<svg xmlns="http://www.w3.org/2000/svg" width="37" height="38" viewBox="0 0 37 38">
  <g id="Group_46" data-name="Group 46" transform="translate(-0.384 -0.048)">
    <g id="Path_5" data-name="Path 5" transform="translate(0.384 0.048)" fill="#79d19a">
      <path d="M18.5,0A18.755,18.755,0,0,1,37,19,18.755,18.755,0,0,1,18.5,38,18.755,18.755,0,0,1,0,19,18.755,18.755,0,0,1,18.5,0Z" stroke="none"/>
      <path d="M 18.5 2 C 14.10279083251953 2 9.965930938720703 3.761569976806641 6.851470947265625 6.960199356079102 C 3.722949981689453 10.17326927185059 2 14.44908905029297 2 19 C 2 23.55091094970703 3.722949981689453 27.82672882080078 6.851470947265625 31.0398006439209 C 9.965930938720703 34.23843002319336 14.10279083251953 36 18.5 36 C 22.89720916748047 36 27.0340690612793 34.23843002319336 30.14852905273438 31.0398006439209 C 33.27705001831055 27.82672882080078 35 23.55091094970703 35 19 C 35 14.44908905029297 33.27705001831055 10.17326927185059 30.14852905273438 6.960199356079102 C 27.0340690612793 3.761569976806641 22.89720916748047 2 18.5 2 M 18.5 0 C 28.71726989746094 0 37 8.506589889526367 37 19 C 37 29.49341011047363 28.71726989746094 38 18.5 38 C 8.282730102539062 38 0 29.49341011047363 0 19 C 0 8.506589889526367 8.282730102539062 0 18.5 0 Z" stroke="none" fill="rgba(11,4,4,0.24)"/>
    </g>
    <path id="Path_3" data-name="Path 3" d="M4791.235,4966.976c4.46,8.042,6.316,7.251,6.316,7.251s3.294-5.748,6.3-11.2c1.176-2.131,2.414-4.421,3.169-5.932" transform="translate(-4779.969 -4946.076)" fill="none" stroke="#fff" stroke-width="3"/>
  </g>
</svg>
