<svg id="_x33_0" enable-background="new 0 0 62 62" height="512" viewBox="0 0 62 62" width="512" xmlns="http://www.w3.org/2000/svg"><g><g><g><path d="m5 27h52v34h-52z" fill="#e6e9ed"/></g><g><path d="m1 19v7c0 .55.45 1 1 1h3 52 3c.55 0 1-.45 1-1v-7z" fill="#ffeaa7"/></g><g><path d="m61 12v7h-32v-8h31c.55 0 1 .45 1 1z" fill="#fcd770"/></g><g><path d="m5 11v8h-4v-7c0-.55.45-1 1-1z" fill="#fcd770"/></g><g><path d="m43 51h4v10h-4z" fill="#b27946"/></g><g><path d="m13 49v-10c0 .55.22 1.05.59 1.41.36.37.86.59 1.41.59 1.1 0 2-.9 2-2 0 .55.22 1.05.59 1.41.36.37.86.59 1.41.59 1.1 0 2-.9 2-2 0 .55.22 1.05.59 1.41.36.37.86.59 1.41.59 1.1 0 2-.9 2-2v22h-12z" fill="#aab2bd"/></g><g><path d="m33 31h20v12h-20z" fill="#69d6f4"/></g><g><path d="m59 55v6h-4v-6h2z" fill="#d3a06c"/></g><g><path d="m35 55v6h-4v-6h2z" fill="#d3a06c"/></g><g><path d="m53 47c1.1 0 2 .9 2 2 0 .55-.22 1.05-.59 1.41-.36.37-.86.59-1.41.59h-6-4-6c-1.1 0-2-.9-2-2 0-.55.22-1.05.59-1.41.36-.37.86-.59 1.41-.59z" fill="#d3a06c"/></g><g><path d="m9 56.78c0 .15-.02.29-.05.43l-.57 2.28c-.22.89-1.02 1.51-1.94 1.51h-2.88c-.92 0-1.72-.62-1.94-1.51l-.57-2.28c-.03-.14-.05-.28-.05-.43 0-.98.8-1.78 1.78-1.78h2.22 2.22c.98 0 1.78.8 1.78 1.78z" fill="#d3a06c"/></g><g><path d="m8.78 46.43c.15.38.22.78.22 1.18 0 1.87-1.52 3.39-3.39 3.39h-.61-.61c-.93 0-1.78-.38-2.4-.99-.61-.62-.99-1.47-.99-2.4 0-.4.07-.8.22-1.18l2.43-6.49c.21-.57.75-.94 1.35-.94s1.14.37 1.35.94z" fill="#b4dd7f"/></g><g><path d="m25 31h4v6h-4z" fill="#ff826e"/></g><g><path d="m17 31h4v6h-4z" fill="#ff826e"/></g><g><path d="m9 31h4v6h-4z" fill="#ff826e"/></g><g><path d="m21 31h4v6h-4z" fill="#ffeaa7"/></g><g><path d="m13 31h4v6h-4z" fill="#ffeaa7"/></g><g><path d="m21 37h4v2c0 1.1-.9 2-2 2-.55 0-1.05-.22-1.41-.59-.37-.36-.59-.86-.59-1.41z" fill="#fcd770"/></g><g><path d="m17 37v2c0 1.1-.9 2-2 2-.55 0-1.05-.22-1.41-.59-.37-.36-.59-.86-.59-1.41v-2z" fill="#fcd770"/></g><g><path d="m29 37v2c0 1.1-.9 2-2 2-.55 0-1.05-.22-1.41-.59-.37-.36-.59-.86-.59-1.41v-2z" fill="#fc6e51"/></g><g><path d="m21 39c0 1.1-.9 2-2 2-.55 0-1.05-.22-1.41-.59-.37-.36-.59-.86-.59-1.41v-2h4z" fill="#fc6e51"/></g><g><path d="m13 37v2c0 1.1-.9 2-2 2-.55 0-1.05-.22-1.41-.59-.37-.36-.59-.86-.59-1.41v-2z" fill="#fc6e51"/></g><g><path d="m6 1h22c.55 0 1 .45 1 1v9 8 3c0 .55-.45 1-1 1h-22c-.55 0-1-.45-1-1v-3-8-9c0-.55.45-1 1-1z" fill="#e6e9ed"/></g><g><path d="m21 11v2c0 1.08-.28 2.09-.78 2.96-1.03 1.81-2.99 3.04-5.22 3.04-3.31 0-6-2.69-6-6v-3c0-.55.45-1 1-1h10c.55 0 1 .45 1 1z" fill="#cf9e76"/></g></g><g><path d="m22.802 10h-.802c0-1.103-.897-2-2-2h-10c-1.103 0-2 .897-2 2v3c0 1.958.81 3.728 2.11 5h-2.11v2h14v-2h-2.11c.355-.348.674-.732.949-1.148l2.59-.518c1.49-.298 2.571-1.617 2.571-3.136 0-1.763-1.435-3.198-3.198-3.198zm-2.802 3c0 2.757-2.243 5-5 5s-5-2.243-5-5v-3h10zm3.037 1.373-1.233.247c.123-.521.196-1.062.196-1.62v-1h.802c.66 0 1.198.538 1.198 1.198 0 .569-.405 1.063-.963 1.175z"/><path d="m10 4h2v2h-2z"/><path d="m14 4h2v2h-2z"/><path d="m18 4h2v2h-2z"/><path d="m58 44v-16h2c1.103 0 2-.897 2-2v-14c0-1.103-.897-2-2-2h-30v-8c0-1.103-.897-2-2-2h-22c-1.103 0-2 .897-2 2v8h-2c-1.103 0-2 .897-2 2v14c0 1.103.897 2 2 2h2v10.221c-.582.263-1.056.745-1.288 1.364l-2.433 6.489c-.185.495-.279 1.013-.279 1.54 0 2.286 1.765 4.148 4 4.347v2.039h-1.219c-1.533 0-2.781 1.248-2.781 2.781 0 .226.028.451.083.674l.568 2.273c.335 1.337 1.532 2.272 2.911 2.272h58.438v-2h-2v-4.184c1.161-.414 2-1.514 2-2.816v-9h-2v9c0 .552-.449 1-1 1h-7v2h2v4h-6v-8h5c1.654 0 3-1.346 3-3s-1.346-3-3-3h-16c-1.654 0-3 1.346-3 3s1.346 3 3 3h5v8h-6v-4h2v-2h-7c-.551 0-1-.448-1-1v-9h-2v9c0 1.302.839 2.402 2 2.816v4.184h-4v-18.184c.314.112.648.184 1 .184 1.654 0 3-1.346 3-3v-9h-22v9c0 1.654 1.346 3 3 3 .352 0 .686-.072 1-.184v18.184h-2.733c.031-.089.059-.18.082-.272l.568-2.273c.055-.223.083-.448.083-.674 0-1.533-1.248-2.781-2.781-2.781h-1.219v-2.039c2.235-.199 4-2.061 4-4.347 0-.527-.094-1.045-.279-1.541l-2.433-6.487c-.232-.619-.706-1.101-1.288-1.365v-10.221h50v16zm-2 12h2v4h-2zm-20-7c0-.552.449-1 1-1h16c.551 0 1 .448 1 1s-.449 1-1 1h-16c-.551 0-1-.448-1-1zm8 3h2v8h-2zm-12 4h2v4h-2zm-18-18h2v1c0 .552-.449 1-1 1s-1-.448-1-1zm6-2h-2v-4h2zm2-4h2v4h-2zm-6 4h-2v-4h2zm2 2h2v1c0 .552-.449 1-1 1s-1-.448-1-1zm4 0h2v1c0 .552-.449 1-1 1s-1-.448-1-1zm5 2c-.551 0-1-.448-1-1v-1h2v1c0 .552-.449 1-1 1zm1-4h-2v-4h2zm-16-4v4h-2v-4zm-1 8c-.551 0-1-.448-1-1v-1h2v1c0 .552-.449 1-1 1zm3 10h2v-2h-2v-6.184c.314.112.648.184 1 .184.771 0 1.468-.301 2-.78.532.48 1.229.78 2 .78s1.468-.301 2-.78c.532.48 1.229.78 2 .78.352 0 .686-.072 1-.184v18.184h-10zm-6 6.781c0 .063-.008.127-.023.189l-.568 2.271c-.112.447-.511.759-.971.759h-2.876c-.459 0-.859-.312-.97-.757l-.567-2.271c-.017-.064-.025-.127-.025-.191 0-.43.35-.781.781-.781h4.438c.431 0 .781.351.781.781zm-.152-10.006c.101.271.152.553.152.839 0 1.316-1.07 2.386-2.386 2.386h-1.228c-1.316 0-2.386-1.07-2.386-2.386 0-.286.051-.568.152-.838l2.433-6.489c.065-.172.231-.287.415-.287s.35.115.415.288zm52.152-34.775v6h-30v-6zm-54-10h22l.001 20h-22.001zm-2 10v6h-2v-6zm-2 8h2v2c0 1.103.897 2 2 2h22c1.103 0 2-.897 2-2v-2h30v6h-58z"/><path d="m54 44v-14h-22v14zm-2-2h-8v-10h8zm-18-10h8v10h-8z"/></g></g></svg>