<svg id="Capa_1" enable-background="new 0 0 512 512" height="512" viewBox="0 0 512 512" width="512" xmlns="http://www.w3.org/2000/svg"><g><g><path d="m400.407 105.825h-288.813c-41.53 38.688-67.513 93.847-67.513 155.083 0 52.805 19.323 101.089 51.271 138.193l160.649 20 160.649-20c31.948-37.104 51.271-85.388 51.271-138.193-.001-61.236-25.984-116.395-67.514-155.083z" fill="#fefaf4"/><path d="m256 173.616c58.07 0 109.975-26.374 144.406-67.791-37.846-35.256-88.602-56.837-144.406-56.837s-106.56 21.581-144.406 56.837c34.431 41.417 86.337 67.791 144.406 67.791z" fill="#b9d4e2"/><g><path d="m400.407 105.825c-4.605 5.539-9.532 10.8-14.735 15.773 32.53 37.249 52.248 85.971 52.248 139.31 0 52.805-19.323 101.089-51.271 138.193l14.806 10 15.194-10c31.949-37.104 51.271-85.388 51.271-138.193 0-61.236-25.983-116.394-67.513-155.083z" fill="#e7e7e7"/></g><path d="m256 48.988c-5.044 0-10.045.182-15 .529 36.904 2.582 71.199 14.615 100.488 33.692 17.019 11.085 18.591 35.607 2.831 48.419-28.653 23.292-64.307 38.299-103.319 41.385 4.95.391 9.95.604 15 .604 58.069 0 109.975-26.374 144.406-67.791-37.846-35.257-88.602-56.838-144.406-56.838z" fill="#9ecbe2"/><path d="m385.991 399.101c1.262-7.326 1.926-14.856 1.926-22.543 0-72.856-59.061-131.917-131.917-131.917s-131.917 59.061-131.917 131.917c0 7.686.665 15.217 1.926 22.543l129.99 10z" fill="#b9d4e2"/><path d="m256.982 244.654v3.665c57.905 13.938 100.935 66.057 100.935 128.24 0 7.686-.665 15.217-1.926 22.543l17.83 10 12.17-10c1.262-7.326 1.926-14.856 1.926-22.543 0-72.528-58.532-131.376-130.935-131.905z" fill="#9ecbe2"/><circle cx="123.268" cy="217.219" fill="#839ecb" r="26.076"/><circle cx="400.407" cy="217.219" fill="#839ecb" r="26.076"/><path d="m248.5 244.858v154.243l7.5 10 7.5-10v-154.243c-2.483-.139-4.982-.216-7.5-.216s-5.017.077-7.5.216z" fill="#85bbd6"/></g><path d="m416.455 455.512h-320.91v-56.411h42.634l7.5 4 7.5-4h40.161l7.5 2 7.5-2h40.16l8.482 2 6.518-2h40.161l7.5 2 7.5-2h40.16l7.5 2 7.5-2h42.634z" fill="#d8d8d8"/><path d="m386.455 399.102h30v56.41h-30z" fill="#c9c9c9"/><path d="" style="fill:none;stroke:#000;stroke-width:15;stroke-linecap:round;stroke-linejoin:round;stroke-miterlimit:10"/><g fill="#c9c9c9"><path d="m138.179 399.102h15v56.41h-15z"/><path d="m248.5 399.102h15v56.41h-15z"/><path d="m193.34 399.102h15v56.41h-15z"/><path d="m303.661 399.102h15v56.41h-15z"/><path d="m358.821 399.102h15v56.41h-15z"/></g><path d="m504.5 463.012h-497c-4.143 0-7.5-3.358-7.5-7.5s3.357-7.5 7.5-7.5h497c4.143 0 7.5 3.358 7.5 7.5s-3.357 7.5-7.5 7.5z" fill="#b8b8b8"/></g></svg>