<svg height="488pt" viewBox="-19 0 488 488" width="488pt" xmlns="http://www.w3.org/2000/svg"><path d="m28.363281 286.960938v139.484374c0 6.519532 4.726563 11.808594 10.558594 11.808594h300.929687c5.828126 0 10.554688-5.289062 10.554688-11.808594v-139.484374zm0 0" fill="#e0ebfc"/><path d="m339.847656 442.253906h-300.925781c-8.03125 0-14.558594-7.09375-14.558594-15.808594v-139.484374c0-2.207032 1.792969-4 4-4h322.042969c2.207031 0 4 1.792968 4 4v139.484374c0 8.714844-6.53125 15.808594-14.558594 15.808594zm-307.484375-151.296875v135.488281c0 4.300782 2.941407 7.804688 6.558594 7.804688h300.925781c3.617188 0 6.558594-3.503906 6.558594-7.804688v-135.488281zm0 0" fill="#3762cc"/><path d="m353.296875 286.960938h-328.367187c-3.214844 0-5.816407-2.605469-5.816407-5.816407v-32.765625c0-3.214844 2.601563-5.816406 5.816407-5.816406h328.367187c3.214844 0 5.816406 2.601562 5.816406 5.816406v32.765625c0 3.210938-2.605469 5.816407-5.816406 5.816407zm0 0" fill="#4671c6"/><path d="m435.367188 216.015625h-53.328126c-5.378906 0-10.453124 2.613281-13.578124 6.988281l-14.046876 19.671875c2.679688.519531 4.699219 2.871094 4.699219 5.699219v22.140625l24.632813-34.5h51.621094c5.523437 0 10-4.476563 10-10s-4.476563-10-10-10zm0 0" fill="#6bdddd"/><path d="m353.296875 290.957031h-328.367187c-5.414063 0-9.816407-4.402343-9.816407-9.8125v-32.765625c0-5.414062 4.402344-9.816406 9.816407-9.816406h328.367187c5.414063 0 9.816406 4.402344 9.816406 9.816406v32.765625c0 5.410157-4.402343 9.8125-9.816406 9.8125zm-328.367187-44.394531c-1.003907 0-1.816407.8125-1.816407 1.816406v32.765625c0 1 .8125 1.8125 1.816407 1.8125h328.367187c1 0 1.816406-.8125 1.816406-1.8125v-32.765625c0-1.003906-.816406-1.816406-1.816406-1.816406zm0 0" fill="#3762cc"/><path d="m359.113281 274.519531c-.40625 0-.820312-.0625-1.222656-.195312-1.65625-.527344-2.777344-2.066407-2.777344-3.804688v-22.140625c0-.863281-.617187-1.609375-1.464843-1.777344-1.335938-.261718-2.445313-1.183593-2.949219-2.449218-.5-1.261719-.328125-2.695313.460937-3.800782l14.046875-19.671874c3.875-5.425782 10.167969-8.664063 16.832031-8.664063h53.328126c7.71875 0 14 6.28125 14 14s-6.28125 14-14 14h-49.5625l-23.4375 32.828125c-.765626 1.070312-1.988282 1.675781-3.253907 1.675781zm1.109375-33.085937c1.796875 1.789062 2.890625 4.265625 2.890625 6.945312v9.65625l17.378907-24.34375c.75-1.050781 1.960937-1.675781 3.253906-1.675781h51.621094c3.308593 0 6-2.691406 6-6s-2.691407-6-6-6h-53.328126c-4.085937 0-7.945312 1.988281-10.320312 5.3125zm0 0" fill="#3762cc"/><path d="m244.175781 361.511719c0 32.671875-26.488281 59.15625-59.160156 59.15625s-59.15625-26.484375-59.15625-59.15625 26.484375-59.160157 59.15625-59.160157 59.160156 26.488282 59.160156 59.160157zm0 0" fill="#6bdddd"/><path d="m185.015625 424.667969c-34.824219 0-63.160156-28.332031-63.160156-63.15625 0-34.828125 28.335937-63.160157 63.160156-63.160157 34.828125 0 63.160156 28.332032 63.160156 63.160157 0 34.824219-28.332031 63.15625-63.160156 63.15625zm0-118.316407c-30.414063 0-55.160156 24.746094-55.160156 55.160157 0 30.414062 24.746093 55.15625 55.160156 55.15625s55.160156-24.742188 55.160156-55.15625c0-30.414063-24.746093-55.160157-55.160156-55.160157zm0 0" fill="#3762cc"/><path d="m273.632812 201.515625h-14.742187c-1.179687 0-2.105469 1.015625-1.988281 2.191406l3.785156 38.855469h23.347656l3.785156-38.855469c.113282-1.175781-.808593-2.191406-1.992187-2.191406zm0 0" fill="#e0ebfc"/><path d="m193.632812 201.515625h-14.742187c-1.179687 0-2.105469 1.015625-1.988281 2.191406l3.785156 38.855469h23.347656l3.785156-38.855469c.113282-1.175781-.808593-2.191406-1.992187-2.191406zm0 0" fill="#e0ebfc"/><path d="m157.394531 242.5625h-61c-3.316406 0-6-2.683594-6-6v-72.265625c0-3.316406 2.683594-6 6-6h61c3.3125 0 6 2.683594 6 6v72.265625c0 3.3125-2.6875 6-6 6zm0 0" fill="#a4c9ff"/><path d="m233.632812 201.515625h-14.742187c-1.179687 0-2.105469 1.015625-1.988281 2.191406l3.785156 38.855469h23.347656l3.785156-38.855469c.113282-1.175781-.808593-2.191406-1.992187-2.191406zm0 0" fill="#e0ebfc"/><path d="m157.394531 246.5625h-61c-5.515625 0-10-4.488281-10-10v-72.265625c0-5.515625 4.484375-10 10-10h61c5.511719 0 10 4.484375 10 10v72.265625c0 5.511719-4.488281 10-10 10zm-61-84.265625c-1.105469 0-2 .894531-2 2v72.265625c0 1.101562.894531 2 2 2h61c1.101563 0 2-.898438 2-2v-72.265625c0-1.105469-.898437-2-2-2zm0 0" fill="#3762cc"/><path d="m284.035156 246.5625h-23.347656c-2.058594 0-3.78125-1.5625-3.980469-3.613281l-3.785156-38.851563c-.164063-1.683594.390625-3.367187 1.527344-4.617187s2.753906-1.96875 4.445312-1.96875h26.9375c1.6875 0 3.304688.714843 4.441407 1.964843 1.132812 1.25 1.691406 2.933594 1.53125 4.613282l-3.789063 38.859375c-.203125 2.050781-1.921875 3.613281-3.980469 3.613281zm-19.71875-8h16.085938l3.222656-33.046875h-22.527344zm21.511719-33.046875h.023437zm0 0" fill="#3762cc"/><path d="m204.035156 246.5625h-23.347656c-2.058594 0-3.78125-1.5625-3.980469-3.613281l-3.785156-38.851563c-.164063-1.683594.390625-3.367187 1.527344-4.617187s2.753906-1.96875 4.445312-1.96875h26.9375c1.6875 0 3.304688.714843 4.441407 1.964843 1.132812 1.25 1.691406 2.933594 1.53125 4.613282l-3.789063 38.859375c-.203125 2.050781-1.921875 3.613281-3.980469 3.613281zm-19.71875-8h16.085938l3.222656-33.046875h-22.527344zm21.511719-33.046875h.023437zm0 0" fill="#3762cc"/><path d="m244.035156 246.5625h-23.347656c-2.058594 0-3.78125-1.5625-3.980469-3.613281l-3.785156-38.851563c-.164063-1.683594.390625-3.367187 1.527344-4.617187s2.753906-1.96875 4.445312-1.96875h26.9375c1.6875 0 3.304688.714843 4.441407 1.964843 1.132812 1.25 1.691406 2.933594 1.53125 4.613282l-3.789063 38.859375c-.203125 2.050781-1.921875 3.613281-3.980469 3.613281zm-19.71875-8h16.085938l3.222656-33.046875h-22.527344zm21.511719-33.046875h.023437zm0 0" fill="#3762cc"/><path d="m181.785156 396.347656c-1.355468 0-2.617187-.859375-3.066406-2.214844-.308594-.917968-.175781-1.875.273438-2.648437 1.195312-4.175781 5.414062-36.277344 10.839843-82.480469.261719-2.210937 1.472657-4.179687 3.328125-5.402344 1.859375-1.230468 4.152344-1.570312 6.292969-.941406l16.375 4.824219c1.714844.503906 2.691406 2.300781 2.191406 4.011719-.503906 1.714844-2.300781 2.691406-4.015625 2.191406l-16.378906-4.824219c-.421875-.128906-.746094.027344-.902344.128907-.15625.105468-.421875.335937-.46875.765624-.984375 8.367188-3.53125 29.871094-5.945312 48.765626-4.6875 36.71875-5.007813 36.828124-7.503906 37.65625-.339844.113281-.683594.167968-1.019532.167968zm0 0" fill="#f9cfcf"/><path d="m188.003906 331.152344h-27.949218c-2.238282 0-3.988282 1.929687-3.773438 4.160156l6.988281 71.714844c.109375 1.105468 1.035157 1.945312 2.144531 1.945312h40.351563c1.105469 0 2.035156-.839844 2.140625-1.945312l6.988281-71.714844c.21875-2.226562-1.53125-4.160156-3.773437-4.160156zm0 0" fill="#e0ebfc"/><path d="m217.871094 337.636719h-65.710938c-1.191406 0-2.152344-.960938-2.152344-2.152344v-6.464844c0-1.191406.960938-2.152343 2.152344-2.152343h65.710938c1.1875 0 2.152344.960937 2.152344 2.152343v6.464844c0 1.1875-.964844 2.152344-2.152344 2.152344zm0 0" fill="#e0ebfc"/><path d="m160.820312 381.910156h49.535157l2.308593-23.695312h-54.148437zm0 0" fill="#f9cfcf"/><path d="m4.003906 106.957031v7.589844c0 16.945313 13.730469 30.679687 30.675782 30.679687h1.257812c16.941406 0 30.675781-13.734374 30.675781-30.679687v-14.484375h-62.109375c-.332031 2.28125-.5 4.582031-.5 6.894531zm0 0" fill="#f9a7a7"/><path d="m41.253906 4c-1.332031 0-2.621094.191406-3.828125.542969-2.410156.703125-4.480469 2.0625-5.871093 3.847656-.695313.894531-1.226563 1.894531-1.542969 2.976563l-24.070313 82.082031c-.636718 2.171875-1.117187 4.378906-1.441406 6.613281h62.113281l18.644531-96.0625zm0 0" fill="#f9a7a7"/><path d="m311.613281 100.0625v14.71875c0 16.8125 13.628907 30.441406 30.445313 30.441406h1.722656c16.816406 0 30.445312-13.628906 30.445312-30.441406v-7.820312c0-2.3125-.171874-4.617188-.5-6.898438zm0 0" fill="#e0ebfc"/><path d="m373.726562 100.0625c-.324218-2.234375-.804687-4.449219-1.441406-6.621094l-24.070312-82.074218c-.316406-1.082032-.84375-2.082032-1.539063-2.976563-1.394531-1.785156-3.464843-3.144531-5.875-3.847656-1.203125-.351563-2.496093-.542969-3.828125-.542969h-44l18.640625 96.0625zm0 0" fill="#e0ebfc"/><path d="m311.613281 114.78125v.214844c0 6.453125-2.039062 12.417968-5.480469 17.328125v110.238281h26.5v-98.84375c-12.195312-3.96875-21.019531-15.417969-21.019531-28.9375zm0 0" fill="#a4c9ff"/><path d="m66.613281 114.765625v-.21875c0 13.363281-8.558593 24.699219-20.480469 28.90625v99.109375h26.5v-109.675781c-3.765624-5.066407-6.019531-11.324219-6.019531-18.121094zm0 0" fill="#a4c9ff"/><path d="m208.898438 4h-19.785157v96.0625h60.769531l-9.25-96.0625zm0 0" fill="#e0ebfc"/><path d="m189.0625 4h-51.46875l-9.246094 96.0625h60.765625v-96.0625zm0 0" fill="#f9a7a7"/><path d="m85.257812 4-18.644531 96.0625h61.734375l9.246094-96.0625zm0 0" fill="#e0ebfc"/><path d="m292.972656 4h-52.339844l9.25 96.0625h61.730469zm0 0" fill="#f9a7a7"/><path d="m97.882812 145.226562h-.808593c-16.824219 0-30.460938-13.636718-30.460938-30.460937v-14.703125h61.730469v14.703125c.003906 16.824219-13.636719 30.460937-30.460938 30.460937zm0 0" fill="#e0ebfc"/><path d="m159.121094 145.226562h-.785156c-16.5625 0-29.992188-13.429687-29.992188-29.992187v-15.171875h60.765625v15.171875c.003906 16.5625-13.425781 29.992187-29.988281 29.992187zm0 0" fill="#f9a7a7"/><path d="m219.886719 145.226562h-.78125c-16.566407 0-29.992188-13.429687-29.992188-29.992187v-15.171875h60.765625v15.171875c0 16.5625-13.425781 29.992187-29.992187 29.992187zm0 0" fill="#e0ebfc"/><path d="m281.386719 145.226562h-1.273438c-16.699219 0-30.230469-13.535156-30.230469-30.230468v-14.933594h61.730469v14.933594c0 16.695312-13.535156 30.230468-30.226562 30.230468zm0 0" fill="#f9a7a7"/><g fill="#3762cc"><path d="m249.882812 104.0625h-60.71875c-2.207031 0-4.050781-1.792969-4.050781-4v-96.0625c0-2.207031 1.789063-4 4-4h51.519531c2.0625 0 3.785157 1.566406 3.984376 3.617188l9.246093 96.0625c.109375 1.121093-.261719 2.238281-1.019531 3.074218-.757812.832032-1.835938 1.308594-2.960938 1.308594zm-56.769531-8h52.363281l-8.476562-88.0625h-43.886719zm0 0"/><path d="m189.113281 104.0625h-60.765625c-1.128906 0-2.207031-.476562-2.960937-1.308594-.757813-.835937-1.128907-1.953125-1.023438-3.074218l9.25-96.0625c.195313-2.050782 1.921875-3.617188 3.980469-3.617188h51.519531c2.207031 0 4 1.792969 4 4v96.0625c0 2.210938-1.792969 4-4 4zm-56.363281-8h52.363281v-88.0625h-43.886719zm0 0"/><path d="m128.347656 104.0625h-61.734375c-1.195312 0-2.324219-.535156-3.085937-1.457031-.757813-.921875-1.066406-2.132813-.839844-3.304688l18.640625-96.0625c.363281-1.878906 2.011719-3.238281 3.925781-3.238281h52.339844c1.125 0 2.203125.476562 2.960938 1.308594.753906.835937 1.128906 1.953125 1.019531 3.074218l-9.246094 96.0625c-.199219 2.050782-1.921875 3.617188-3.980469 3.617188zm-56.882812-8h53.25l8.476562-88.0625h-44.636718zm0 0"/><path d="m311.613281 104.0625h-61.730469c-2.0625 0-3.785156-1.566406-3.984374-3.617188l-9.246094-96.0625c-.109375-1.121093.261718-2.238281 1.023437-3.074218.757813-.832032 1.832031-1.308594 2.957031-1.308594h52.339844c1.917969 0 3.5625 1.359375 3.925782 3.238281l18.640624 96.0625c.230469 1.171875-.078124 2.382813-.839843 3.304688-.757813.921875-1.890625 1.457031-3.085938 1.457031zm-58.097656-8h53.246094l-17.085938-88.0625h-44.636719zm0 0"/><path d="m35.9375 149.222656h-1.257812c-19.125 0-34.679688-15.554687-34.679688-34.675781v-7.59375c0-4.949219.707031-9.875 2.105469-14.632813l24.066406-82.078124c1.769531-6.03125 7.972656-10.242188 15.082031-10.242188h44c1.195313 0 2.324219.535156 3.085938 1.457031.761718.921875 1.066406 2.132813.84375 3.304688l-18.570313 95.6875v14.097656c0 19.121094-15.554687 34.675781-34.675781 34.675781zm5.316406-141.222656c-3.527344 0-6.640625 1.890625-7.40625 4.492188l-24.066406 82.078124c-1.179688 4.03125-1.78125 8.195313-1.78125 12.382813v7.59375c0 14.710937 11.96875 26.675781 26.679688 26.675781h1.257812c14.707031 0 26.675781-11.964844 26.675781-26.675781v-14.484375c0-.257812.027344-.511719.074219-.761719l17.714844-91.300781zm0 0"/><path d="m97.882812 149.222656h-.808593c-19 0-34.457031-15.457031-34.457031-34.457031v-14.703125c0-2.207031 1.789062-4 4-4h61.730468c2.207032 0 4 1.792969 4 4v14.703125c0 19-15.460937 34.457031-34.464844 34.457031zm-27.269531-45.160156v10.703125c0 14.589844 11.871094 26.457031 26.460938 26.457031h.808593c14.59375 0 26.464844-11.871094 26.464844-26.457031v-10.703125zm0 0"/><path d="m159.121094 149.222656h-.785156c-18.742188 0-33.988282-15.246094-33.988282-33.988281v-15.171875c0-2.207031 1.789063-4 4-4h60.765625c2.207031 0 4 1.792969 4 4v15.171875c0 18.742187-15.25 33.988281-33.992187 33.988281zm-26.773438-45.160156v11.171875c0 14.332031 11.65625 25.988281 25.988282 25.988281h.785156c14.332031 0 25.992187-11.65625 25.992187-25.988281v-11.171875zm0 0"/><path d="m219.890625 149.222656h-.785156c-18.742188 0-33.992188-15.246094-33.992188-33.988281v-15.171875c0-2.207031 1.792969-4 4-4h60.765625c2.210938 0 4 1.792969 4 4v15.171875c0 18.742187-15.246094 33.988281-33.988281 33.988281zm-26.777344-45.160156v11.171875c0 14.332031 11.660157 25.988281 25.992188 25.988281h.785156c14.332031 0 25.988281-11.65625 25.988281-25.988281v-11.171875zm0 0"/><path d="m281.386719 149.222656h-1.273438c-18.878906 0-34.230469-15.355468-34.230469-34.226562v-14.933594c0-2.207031 1.792969-4 4-4h61.730469c2.207031 0 4 1.792969 4 4v14.933594c0 18.875-15.355469 34.226562-34.226562 34.226562zm-27.503907-45.160156v10.933594c0 14.460937 11.765626 26.226562 26.230469 26.226562h1.273438c14.460937 0 26.226562-11.765625 26.226562-26.226562v-10.933594zm0 0"/><path d="m332.632812 246.5625h-26.5c-2.207031 0-4-1.792969-4-4v-110.238281c0-.820313.253907-1.625.726563-2.296875 3.109375-4.433594 4.753906-9.632813 4.753906-15.03125v-.214844c0-2.207031 1.792969-4 4-4s4 1.792969 4 4c0 11.480469 7.339844 21.582031 18.257813 25.136719 1.648437.535156 2.761718 2.070312 2.761718 3.800781v98.84375c0 2.210938-1.789062 4-4 4zm-22.5-8h18.5v-92.070312c-7.417968-3.125-13.34375-8.664063-16.992187-15.515626-.460937.875-.964844 1.730469-1.507813 2.566407zm0 0"/><path d="m72.632812 246.5625h-26.5c-2.207031 0-4-1.792969-4-4v-99.109375c0-1.695313 1.070313-3.207031 2.667969-3.769531 10.65625-3.761719 17.8125-13.867188 17.8125-25.136719 0-2.207031 1.792969-4 4-4s4 1.792969 4 4v.21875c0 5.691406 1.808594 11.132813 5.230469 15.738281.511719.691406.789062 1.527344.789062 2.382813v109.675781c0 2.210938-1.789062 4-4 4zm-22.5-8h18.5v-104.394531c-.757812-1.105469-1.445312-2.242188-2.0625-3.410157-3.558593 6.703126-9.289062 12.191407-16.4375 15.398438zm0 0"/><path d="m343.78125 149.222656h-1.722656c-18.992188 0-34.445313-15.449218-34.445313-34.441406v-14.335938l-18.566406-95.683593c-.226563-1.171875.082031-2.386719.839844-3.308594.761719-.921875 1.890625-1.453125 3.085937-1.453125h44c7.113282 0 13.3125 4.210938 15.082032 10.238281v.003907l24.070312 82.082031c1.394531 4.75 2.101562 9.671875 2.101562 14.628906v7.828125c0 18.992188-15.453124 34.441406-34.445312 34.441406zm-45.957031-141.222656 17.714843 91.300781c.046876.25.074219.503907.074219.761719v14.71875c0 14.578125 11.863281 26.441406 26.445313 26.441406h1.722656c14.578125 0 26.441406-11.863281 26.441406-26.441406v-7.828125c0-4.195313-.597656-8.359375-1.777344-12.378906l-24.066406-82.082031c-.765625-2.601563-3.878906-4.492188-7.40625-4.492188zm0 0"/><path d="m343.78125 149.222656h-1.722656c-18.992188 0-34.445313-15.449218-34.445313-34.441406v-14.71875c0-2.207031 1.792969-4 4-4h62.113281c1.984376 0 3.671876 1.457031 3.957032 3.421875.359375 2.472656.542968 4.988281.542968 7.476563v7.820312c0 18.992188-15.453124 34.441406-34.445312 34.441406zm-28.167969-45.160156v10.71875c0 14.578125 11.863281 26.441406 26.445313 26.441406h1.722656c14.582031 0 26.445312-11.863281 26.445312-26.441406v-7.820312c0-.964844-.035156-1.929688-.097656-2.898438zm0 0"/><path d="m35.9375 149.222656h-1.257812c-19.125 0-34.679688-15.554687-34.679688-34.675781v-7.59375c0-2.472656.183594-4.984375.542969-7.464844.285156-1.964843 1.96875-3.425781 3.957031-3.425781h62.113281c2.207031 0 4 1.792969 4 4v14.484375c0 19.121094-15.554687 34.675781-34.675781 34.675781zm-27.839844-45.160156c-.0625.964844-.097656 1.933594-.097656 2.890625v7.59375c0 14.710937 11.96875 26.675781 26.679688 26.675781h1.257812c14.707031 0 26.675781-11.964844 26.675781-26.675781v-10.484375zm0 0"/></g><path d="m125.546875 440c0 24.300781-19.699219 44-44 44s-44-19.699219-44-44 19.699219-44 44-44 44 19.699219 44 44zm0 0" fill="#a4c9ff"/><path d="m103.269531 440c0 11.996094-9.726562 21.722656-21.722656 21.722656s-21.722656-9.726562-21.722656-21.722656 9.726562-21.722656 21.722656-21.722656 21.722656 9.726562 21.722656 21.722656zm0 0" fill="#f9cfcf"/><path d="m81.546875 488c-26.464844 0-48-21.535156-48-48s21.535156-48 48-48c26.46875 0 48 21.535156 48 48s-21.53125 48-48 48zm0-88c-22.054687 0-40 17.945312-40 40s17.945313 40 40 40c22.058594 0 40-17.945312 40-40s-17.941406-40-40-40zm0 0" fill="#3762cc"/><path d="m81.546875 465.71875c-14.183594 0-25.722656-11.539062-25.722656-25.71875 0-14.183594 11.542969-25.722656 25.722656-25.722656 14.183594 0 25.722656 11.539062 25.722656 25.722656s-11.539062 25.71875-25.722656 25.71875zm0-43.441406c-9.769531 0-17.722656 7.953125-17.722656 17.722656s7.953125 17.71875 17.722656 17.71875 17.722656-7.949219 17.722656-17.71875-7.953125-17.722656-17.722656-17.722656zm0 0" fill="#3762cc"/><path d="m340.675781 425.753906c0 32.167969-26.078125 58.246094-58.246093 58.246094-32.167969 0-58.246094-26.078125-58.246094-58.246094 0-32.167968 26.078125-58.246094 58.246094-58.246094 32.167968 0 58.246093 26.078126 58.246093 58.246094zm0 0" fill="#a4c9ff"/><path d="m311.1875 425.753906c0 15.878906-12.875 28.753906-28.757812 28.753906-15.882813 0-28.753907-12.875-28.753907-28.753906 0-15.882812 12.871094-28.757812 28.753907-28.757812 15.882812 0 28.757812 12.875 28.757812 28.757812zm0 0" fill="#f9cfcf"/><path d="m282.429688 488c-34.320313 0-62.246094-27.925781-62.246094-62.246094 0-34.324218 27.925781-62.246094 62.246094-62.246094 34.324218 0 62.246093 27.921876 62.246093 62.246094 0 34.320313-27.921875 62.246094-62.246093 62.246094zm0-116.492188c-29.910157 0-54.246094 24.335938-54.246094 54.246094s24.335937 54.246094 54.246094 54.246094c29.914062 0 54.246093-24.335938 54.246093-54.246094s-24.332031-54.246094-54.246093-54.246094zm0 0" fill="#3762cc"/><path d="m282.429688 458.507812c-18.058594 0-32.753907-14.695312-32.753907-32.753906 0-18.0625 14.695313-32.757812 32.753907-32.757812 18.0625 0 32.757812 14.695312 32.757812 32.757812 0 18.058594-14.695312 32.753906-32.757812 32.753906zm0-57.511718c-13.648438 0-24.753907 11.109375-24.753907 24.757812 0 13.648438 11.105469 24.753906 24.753907 24.753906 13.648437 0 24.757812-11.105468 24.757812-24.753906 0-13.648437-11.109375-24.757812-24.757812-24.757812zm0 0" fill="#3762cc"/></svg>