<svg id="Capa_1" enable-background="new 0 0 512 512" height="512" viewBox="0 0 512 512" width="512" xmlns="http://www.w3.org/2000/svg"><g><g><path d="m458.798 273.714c-4.862 0-9.639 1.581-13.876 4.582 1.916-15.697-19.551-24.792-29.478-12.46-6.466-16.721-30.21-16.491-35.919-.073-10.192-14.043-31.894-6.067-32.343 8.987-9.622-11.731-33.154-3.844-33.806 9.1.289 4.57 5.571 7.521 5.478 12.56.286 1.915 1.902 3.351 3.837 3.409 53.223 1.603 106.202 4.394 153.208 8.07 1.766.143 3.458-.925 4.068-2.613 6.052-14.857-5.382-31.832-21.169-31.562z" fill="#78ad45"/><path d="m166.53 277.182c-5.105 0-9.778 2.43-12.96 6.704-2.715-14.462-24.233-16.882-30.057-3.346-8.033-29.071-36.826-13.172-40.609 4.568-11.084-21.645-41.431-6.898-42.736 15.778-.183 2.231 1.754 4.294 3.992 4.244 44.798-2.955 90.23-4.955 135.042-5.861 10.922-2.983-1.28-23.853-12.672-22.087z" fill="#78ad45"/><path d="m336.868 410.704c-4.902-.103-11.288-2.415-15.448.387-11.214 12.531-5.638 22.134-1.158 29.85 3.866 3.891 3.649 14.405 8.938 14.669 10.247-3.568 20.007-35.839 7.668-44.906z" fill="#c13030"/><path d="m266.927 406.631c-4.44.415-10.5-1.348-13.883 1.118-11.926 12.082-6.361 22.152-1.889 30.244 2.424 4.386 4.931 8.921 5.265 13.972.101 2.057 1.939 3.768 3.991 3.735 15.451-7.466 17.744-33.34 9.907-46.994-.684-1.244-1.974-2.033-3.391-2.075z" fill="#c13030"/><path d="m210.94 401.14c-3.708.43-10.2-1.519-14.307-.019-10.271 6.057-12.128 24.28-2.319 31.595 3.949 3.47 8.425 7.404 9.933 12.301.837 3.056 5.208 3.827 7.031 1.211 8.816-10.808 12.639-37.568-.338-45.088z" fill="#c13030"/><path d="m151.075 422.62c-1.252-1.704-11.798-1.688-12.768.375-9.591 11.328-3.634 20.135 1.152 27.211 3.72 3.549 3.584 10.444 8.407 12.021 12.37-3.625 10.817-31.668 3.209-39.607z" fill="#c13030"/><path d="m382.474 325.2c-59.129-.204-116.807.527-175.865.53-14.416 1.907-81.132-4.87-78.058 3.434-.34 16.849 14.592 27.282 31.074 27.179 15.598-.081 30.665-9.513 45.87-9.561 15.977-1.059 25.793 15.474 41.255 16.985 12.289.756 22.659-9.685 34.109-11.049 16.655-1.379 31.682 11.364 48.811 10.129 22.942 0 45.018-12.415 56.243-31.627 1.562-2.531-.434-6.104-3.439-6.02z" fill="#b25932"/><path d="m411.597 110.579c-5.922-.064-12.248 3.983-17.73 5.483-.356-5.295-5.361-29.604-20.59-26.688-15.2 1.687-28.505 7.505-22.609 24.817-29.577-16.635-44.066 14.828-24.169 19.93 30.591.379 61.976.819 92.624.949 2.121.01 3.885-1.642 4.01-3.762.1-12.243-.371-19.363-11.536-20.729z" fill="#c2e9f9"/><path d="m288.483 65.7c-5.921-.063-12.239 3.977-17.72 5.485-1.188-11.064-7.129-28.946-20.59-26.681-17.428 2.402-27.746 7.46-22.616 24.811-29.579-16.623-44.066 14.832-24.166 19.936 30.571.369 62.007.809 92.612.939 2.121.01 3.884-1.642 4.01-3.761.104-12.241-.367-19.363-11.53-20.729z" fill="#c2e9f9"/><path d="m268.72 162.76c-.021 0-18.214.291-18.214.291-2.159.035-3.901 1.776-3.936 3.936.423 2.273-1.351 14.482.929 16.02 1.165 2.335 18.546.88 20.661 1.325 2.148 0 3.916-1.7 3.997-3.85-.982-5.351 4.062-16.324-3.437-17.722z" fill="#c2e9f9"/><path d="m267.39 203.94c-.025 0-17.546.331-17.546.331-2.155.041-3.89 1.782-3.924 3.938.449 2.26-1.415 16.82.897 18.276 1.177 2.327 18.232.911 20.352 1.356 1.049-.001 2.057-.413 2.806-1.15 2.78-5.359.569-11.694 1.415-18.675.084-2.175-1.823-4.121-4-4.076z" fill="#c2e9f9"/><path d="m220.401 228.64c-2.767.847-29.855-1.646-30.553 2.57-.379-.678-.943-1.228-1.631-1.589 1.282-.673 2.083-2.09 2.052-3.533-.754-2.855 1.606-21.419-2.445-22.498 3.709-1.385 1.367-11.859 1.876-14.642.008-2.126-1.875-3.981-4-3.939-.026 0-20.469.401-20.469.401-2.178.042-3.921 1.82-3.921 3.999.624 2.822-1.702 13.627 2.093 14.996-1.25.678-2.102 1.987-2.103 3.502.702 2.886-1.932 20.881 2.091 22.051-1.246.678-2.1 1.982-2.101 3.498.47 2.29-1.163 17.114 1.179 18.549.917 2.347 22.246.455 24.194.873 1.441-.01 2.834-.849 3.471-2.147.685 1.223 1.979 2.057 3.475 2.057 1.775-.464 29.973.803 30.28-1.593 2.307-1.446.151-16.481.509-18.706-.081-2.151-1.85-3.849-3.997-3.849z" fill="#c2e9f9"/><path d="m165.57 127.8c8.546-1.095 2.428-20.316.157-21.339-6.154-7.152-18.195.03-25.414 2.335-1.189-11.064-7.13-28.946-20.59-26.683-17.427 2.403-27.747 7.46-22.617 24.81-28.803-16.111-43.637 13.123-25.182 19.794 30.886.75 62.7.823 93.646 1.083z" fill="#c2e9f9"/><path d="m79.17 227.06c-3.436 1.079-14.159-.157-13.735 5.656.597 2.326-.471 16.072 2.106 17.43 3.483 2.158 8.052-.26 11.947-.072 2.063-.186 3.643-1.914 3.643-3.985-1.033-4.296 3.135-18.748-3.961-19.029z" fill="#c2e9f9"/><path d="m65.315 208.941c-.056-2.237-2.208-4.078-4.423-3.788-5.778 1.396-12.792-.272-14.266 5.592.749 4.189-3.255 20.833 4.132 21.505 21.533-2.394 14.312-2.456 14.557-23.309z" fill="#c2e9f9"/><path d="m467.922 326.341c-23.775-.609-49.25-.97-77.862-1.101-1.557 0-2.974.904-3.629 2.317-11.481 25.797-46.4 40.753-74.702 31.565-38.766-15.914-31.618-2.787-63.893 3.692-6.798-.003-12.564-3.861-18.668-7.945-19.976-17.799-43.147-3.503-65.009.201-16.011 2.157-34.766-6.962-34.628-25.695.202-2.213-1.705-4.274-3.922-4.264-36.662-.632-69.422-1.792-100.151-3.544-3.534-.319-5.741 4.496-2.973 6.902 9.879 9.327 20.294 19.192 30.754 29.099 12.981 12.296 26.403 25.008 38.733 36.627 7.978 9.326 17.383 14.193 27.958 14.188 26.356 2.117 53.316-41.162 76.081-38.355 25.462 1.435 53.426 27.529 80.69 9.543 53.389-25.98 70.24 46.82 143.94-.174 3.871-.87 64.554-49.647 47.281-53.056z" fill="#684141"/><path d="m294.3 139.36h-17.34c-2.115 0-3.864 1.645-3.993 3.756-2.545 41.696-3.389 84.027-2.506 125.818.717 6.285 11.678 2.832 13.846 12.504.632 2.499 3.796 3.745 5.96 2.322 2.922-2.521 9.55-1.309 9.643-6.378 0 0-1.611-134.071-1.611-134.071-.026-2.189-1.809-3.951-3.999-3.951z" fill="#c0c5d7"/><path d="m243.94 139.36c-2.186.391-21.576-1.163-22.741 1.224-.754.784-1.157 1.839-1.116 2.925l4.13 110.7c.681 4.934 7.942 4.211 9.081 9.42 2.329 4.837 6.645.868 9.94-.371 1.682-.492 2.847-2.023 2.875-3.775l1.83-116.06c.078-2.167-1.826-4.11-3.999-4.063z" fill="#c0c5d7"/><path d="m199.568 151.093c-.214-2.042-1.937-3.583-3.976-3.583-.046 0-39.919 1.363-39.919 1.363-2.097.072-3.782 1.751-3.86 3.847.337 1.646-2.41 32.573.023 32.704-1.662 2.374 46.516-.035 47.003.326 2.275.004 4.188-2.157 3.899-4.416 0-.001-3.17-30.241-3.17-30.241z" fill="#c0c5d7"/><path d="m392.429 160.791s-69.369-1.541-69.399-1.541c-2.203-.046-4.128 1.95-3.997 4.152 0 0 .75 19.68.75 19.68.082 2.151 1.851 3.848 3.996 3.848.023 0 45.952-.784 45.952-.784v70.994c-.082 3.658 4.348 4.022 6.358 6.163 1.771 1.63 4.824 1.176 6.043-.896 3.175-7.37 13.846-5.766 14.21-11.456-1.908-1.672 4.528-94.804-3.913-90.16z" fill="#dcdeea"/><path d="m277.35 120.75c-.039 0-37.366 1.082-37.366 1.082-2.327.015-4.238 2.293-3.84 4.588 1.196 3.189-.112 14.324 5.525 13.939h35.511c2.187 0 3.968-1.755 4-3.941-.746-3.547 2.795-15.889-3.83-15.668z" fill="#dcdeea"/><path d="m131.47 176.89c-19.905 1.346-14.133-7.134-14.811 30.24 1.815 31.541-3.159 57.896 4.079 68.471 1.057 2.482 4.594 3.14 6.463 1.173 2.319-3.404 9.248-2.583 9.378-7.524-1.962-1.838 3.387-97.105-5.109-92.36z" fill="#dcdeea"/><path d="m101.393 178.127c-1.495-2.484-12.672-.731-14.933-1.238-2.198.001-3.984 1.774-4 3.972-.209 28.765-.413 69.952-.3 91.36-.096 3.648 4.924 5.428 7.13 2.47 2.833-3.56 6.336-6.246 10.13-7.769 1.561-.626 2.563-2.162 2.508-3.843-2.065-27.888 1.583-57.427-.535-84.952z" fill="#dcdeea"/><g fill="#65beef"><path d="m366.73 203.58c-.162-.043-17.584.768-17.758.743-2.122.089-3.805 1.822-3.831 3.946.576 2.847-1.898 14.092 1.919 15.493-3.876 1.199-1.684 15.197-2.329 18.008-.068 2.149 1.803 4.067 3.953 4.049 0 0 18.031.21 18.047.21 2.147.042 4.043-1.851 4-4-.639-2.87 1.802-17.382-2.1-18.659 3.79-1.312 1.521-12.994 2.101-15.791.042-2.147-1.856-4.043-4.002-3.999z"/><path d="m346.22 201.646c-.767-3.547 2.796-16.279-3.859-16.036-2.22.477-20.015-.818-21.217 1.571-2.245 1.565-.285 13.069-.611 15.313.041 2.152 2.017 3.976 4.165 3.842l17.69-.74c2.124-.088 3.807-1.823 3.832-3.95z"/><path d="m267.949 183.34s-17.69-.13-17.7-.13c-2.183 0-3.965 1.751-3.999 3.938.443 2.302-1.406 15.426.954 16.944 1.214 2.36 18.321.451 20.418.848 2.146-.04 3.879-1.766 3.926-3.912-1.017-5.697 3.728-16.433-3.599-17.688z"/><path d="m269.608 247.044c-4.025-1.803-8.686-.429-14.92-1.071-5.608.001-8.42-1.286-9.429 3.805.494 3.321-2.155 12.637 3.357 13.05 9.978 1.548 8.125 6.359 13.487 11.575 3.079.675 9.437-1.472 9.355-5.305-1.107-7 1.858-15.981-1.85-22.054z"/><path d="m222.12 202.907c-.286-.265-.613-.468-.955-.638 3.645-1.465 1.157-11.279 1.583-14.058-.081-2.153-1.851-3.851-3.996-3.851-.026 0-26.129.511-26.129.511-2.203.043-3.956 1.858-3.921 4.061.651 2.807-1.469 13.135 2.325 14.448-4.008 1.128-1.089 19.931-1.756 22.721.034 2.188 1.818 3.939 3.999 3.939.02 0 26.929-.391 26.929-.391 2.182.012 4.066-1.969 3.939-4.149-.509-2.079.342-21.581-2.018-22.593z"/><path d="m158.31 185.55c-.026 0-19.809.391-19.809.391-2.197.044-3.948 1.852-3.92 4.049.482 2.28-.948 13.318 1.393 14.829 1.059 2.332 20.527-.016 22.479.348 2.146-.082 3.845-1.846 3.847-3.994-.77-3.519 2.545-15.868-3.99-15.623z"/><path d="m158.29 229.57c-.02 0-19.208.281-19.208.281-2.205.032-3.968 1.843-3.941 4.048.509 2.231-.939 17.079 1.396 18.455 1.089 2.296 19.778.491 21.794.896 2.188-.028 3.948-1.809 3.949-3.998l.01-15.68c.043-2.148-1.851-4.046-4-4.002z"/><path d="m113.41 176.89c-3.322.513-11.826-1.813-11.896 3.814-.167 27.541-3.707 57.105.717 83.868 2.911 2.033 7.23.204 10.28 2.23 2.543 1.265 5.791-.822 5.678-3.67 0 0-.78-82.28-.78-82.28-.02-2.194-1.805-3.962-3.999-3.962z"/><path d="m65.985 252.032c-.245-.197-.515-.35-.794-.482 3.823-1.435.796-15.302 1.275-18.167-.054-2.301-2.327-4.163-4.589-3.769-3.304 1.241-15.448-.121-14.602 5.98 1.395 5.364-.776 15.044 4.013 18.194-4.048 4.535.355 13.587-.304 20.672.068 2.802 3.343 4.699 5.805 3.358 3.8-2.902 11.215-.708 11.457-6.597-.636-2.337.451-17.912-2.261-19.189z"/></g><path d="m343.32 397.534c-.368-3.593 1.456-8.417-2.322-10.335-6.122-2.789-11.976-6.007-18.093-8.847-6.719-2.075-5.534 5.827-6.306 10.45-.868 6.644-1.852 14.174 2.236 18.831 3.773 4.847 12.432 3.216 17.88 3.977 7.393.646 6.953-8.115 6.605-14.076z" fill="#494a57"/><path d="m275.83 385.033c-1.073-9.738-16.004 3.824-25.954-.314-7.422.613-4.963 19.215-2.817 20.007 5.222 5.285 13.336 1.926 19.983 2.897 13.734 1.734 9.909-14.035 8.788-22.59z" fill="#494a57"/><path d="m218.934 374.824c-10.139-3.759-21.03-9.368-30.252-3.833-1.465 3.168-.085 5.857-1.185 10.353-.873 6.736-1.777 13.701 1.594 17.537 3.741 4.127 11.859 1.938 16.145 3.051 5.225.231 9.426 1.629 13.745-2.416 3.191-3.445 3.317-9.103 2.386-21.309-.113-1.496-1.053-2.801-2.433-3.383z" fill="#494a57"/><path d="m157.124 397.926c-.071-3.138-4.055-4.955-6.469-2.929-5.856 4.611-11.769 7.985-17.574 10.029-4.61 2.605-4.306 11.656-1.794 15.183 2.517 4.113 10.26 1.982 14.634 2.374 14.754 2.006 12.318-14.747 11.203-24.657z" fill="#494a57"/><path d="m300.255 279.932c-5.823 0-11.146 2.511-14.931 6.96 3.037-13.601-16.301-20.684-24.206-10.143 1.6-15.841-20.866-20.207-25.871-7.534-.614-21.227-28.385-13.201-30.152 1.184-5.85-21.318-35.807 3.08-28.405 11.605 1.877 1.5 6.143 5.733 5.252 12.633-.149 1.153.212 2.314.987 3.181 17.771 3.431 38.119-.362 56.658.843 14.829-.003 29.868.112 44.697.338 10.376.149 20.897.361 31.271.629 1.269.034 2.488-.543 3.267-1.55 2.884-9.725-9.594-18.416-18.567-18.146z" fill="#b6d366"/><path d="m443.935 304.734c-144.1-6.414-296.682-16.604-438.565 6.246-2.949 2.884-3.724 9.88 1.452 10.461 69.804 4.68 140.392 5.28 194.09 5.279 87.052-.049 192.786-1.824 274.871 1.025 7.518 1.01 32.944 1.761 33.048-6.055.812-17.212-46.872-14.882-64.896-16.956z" fill="#548dc8"/><path d="m349.22 205.3c.197.046 17.478-.761 17.677-.733 2.142-.089 3.833-1.852 3.833-3.997-.75-3.508 2.486-15.609-4-15.369-.023 0-17.429.3-17.429.3-2.163.038-3.903 1.787-3.931 3.949.738 3.547-2.774 16.081 3.85 15.85z" fill="#548dc8"/><path d="m323.481 224.405c-3.778 1.417-.955 14.476-1.438 17.319.059 1.516.964 2.797 2.245 3.425-1.269.703-2.038 2.14-1.974 3.583.619 2.475-.647 19.854 2.283 21.094 2.518 1.845 5.66-.297 8.451.055 4.936-.063 13.01 4.676 12.382-4.01 4.957 5.434 10.213-7.812 20.133-6.413 1.398.109 2.876-.008 3.918-1.065 2.097-1.534.988-7.214 1.25-9.365 0-2.192-1.764-3.975-3.956-4-2.836.657-20.407-2.115-21.613 1.863-.338-.687-.9-1.263-1.578-1.618 1.256-.662 2.129-1.958 2.147-3.478-.579-2.894 1.958-16.474-1.893-17.827 3.812-1.269 1.684-12.525 2.294-15.314.074-2.228-1.946-4.186-4.169-4.044l-17.33.73c-2.201.093-3.913 1.948-3.829 4.15.72 2.787-1.164 13.714 2.677 14.915z" fill="#548dc8"/><path d="m250.68 164.05c.021 0 18.425-.3 18.425-.3 2.107-.035 3.826-1.698 3.93-3.802-.957-5.943 4.601-19.584-3.084-20.588-.001 0-19.001 0-19.001 0-2.184 0-3.964 1.751-4 3.935l-.27 16.69c-.078 2.171 1.828 4.109 4 4.065z" fill="#548dc8"/><path d="m248.873 246.809c2.326-.277 18.77 1.409 20.678-.317 3.4-4.054.809-10.655 1.591-15.643.004-2.2-1.767-3.991-3.967-4.01 0 0-17.594-.15-17.605-.15-2.181 0-3.963 1.75-3.999 3.934.655 3.477-2.623 15.797 3.302 16.186z" fill="#548dc8"/><path d="m136.261 229.718c1.068 2.301 20.088.439 22.089.842 2.185-.033 3.939-1.813 3.94-3.998-.444-2.218 1.199-20.02-1.215-21.263-1.08-2.37-20.432.005-22.409-.366-2.167.084-3.873 1.88-3.846 4.049.453 2.169-.885 19.519 1.441 20.736z" fill="#548dc8"/><path d="m161.09 253.404c-1.112-2.337-19.681-.49-21.724-.904-6.502-.159-3.117 12.682-3.797 16.24.605 6.493 11.701 2.447 15.65 11.37 2.565 4.562 9.585.236 10.957-3.265 2.275 2.685 6.68.806 9.5 2.38 1.926.705 4.159-.208 5.009-2.14 2.258-5.08 6.826-9.837 11.921-12.416 1.215-.615 2.019-1.8 2.166-3.132 3.671 3.218 6.949-.727 11.034 4.385 5.687 4.647 8.114-5.528 13.316-6.799 3.731-1.715 2.33-7.712-1.781-7.583-2.885.762-22.065-1.676-23.143 2.397-.686-1.223-1.979-2.057-3.475-2.057-2.845.777-23.974-1.671-24.967 2.427-.184-.326-.395-.636-.666-.903z" fill="#548dc8"/><path d="m66.562 228.592c1.889 2.182 10.886-.708 13.233-.656 6.039-.584 2.567-15.48 3.485-20.546.069-2.374-2.242-4.378-4.577-3.979-4.205 1.533-13.948-1.362-14.4 5.296.577 2.314-.372 18.657 2.259 19.885z" fill="#548dc8"/><path d="m81.819 250.177c-3.362-2.342-8.235-.034-11.914-.042-2.056.278-3.559 2.081-3.461 4.154l.84 17.73c.085 1.78 1.336 3.29 3.07 3.702 3.872.209 6.62 5.391 10.587 3.72 1.408-.671 2.297-2.1 2.278-3.659-.066-5.603-.1-13.224-.1-22.653.001-1.122-.471-2.194-1.3-2.952z" fill="#548dc8"/><path d="m438.215 179.852s-38.84-1.021-38.875-1.021c-2.145-.04-4.044 1.849-4 4v67.67c0 2.09 1.609 3.828 3.692 3.988 11.434.504 11.252 8.548 17.327 10.273 3.667-1.092 8.153-4.353 11.191-3.645 4.042-.232 10.964 4.28 11.777-2.368 0 0 2.78-74.75 2.78-74.75.123-2.159-1.726-4.137-3.892-4.147z" fill="#9499a9"/><path d="m316.993 181.841c-2.214.341-16.559-1.552-18.002.761-.774.764-1.204 1.81-1.19 2.896l1.11 91.81c.323 5.354 7.308 3.585 10.587 6.117 6.751 2.509 6.652-8.648 12.7-10.521 1.234-.757 1.966-2.121 1.91-3.568l-3.22-83.65c-.082-2.108-1.786-3.79-3.895-3.845z" fill="#9499a9"/></g><g><path d="m510.135 314.983c-2.852-4.952-11.976-8.018-27.197-10.249 6.918-22.03-15.351-40.638-35.575-31.768-.766-4.022-2.856-7.42-5.573-10.019l3.067-82.34c.035-.934-.306-1.843-.945-2.524-.045-2.615-43.426-1.409-44.915-2.221v-14.455c0-1.902-1.52-3.455-3.421-3.497l-76.392-1.689c-1.945-.08-3.696 1.674-3.573 3.632l.732 19.011-14.885-.389-.463-38.592c-.023-1.915-1.583-3.456-3.498-3.456h-13.557l.212-15.15c.068-1.935-1.669-3.639-3.599-3.545 0 0-41.464 1.203-41.464 1.203-8.904.099-5.818 10.982-4.675 17.492-2.034.411-15.427-1.028-16.678 1.071-.915 1.534-.852 3.506-.893 5.357-.086 3.882.095 7.757.282 11.633l1.259 26.193c-8.281.633-4.492.344-12.773.977l-3.419-32.561c-.4-3.811-2.355-4.831-6.023-4.752-9.485.206-18.969.411-28.454.617-6.156.134-17.365-2.042-18.951 6.279-.705 3.699-.677 31.535-1.218 31.545-.004 0-9.171.181-9.171.181-.239-2.855 1.039-9.145-3.568-9.043h-51.893c-6.592-.617-2.495 22.235-3.656 26.366-6.642 1.934-23.327.602-31.427 4.231-2.451 1.098-4.095 3.49-4.247 6.171-1.273 22.511 3.831 45.699 4.566 68.179-6.457 5.779-10.786 14.136-11.045 22.666-11.688 1.73-27.57-1.643-35.443 9.352-2.207 3.492-2.218 7.58-.032 11.512 2.907 3.486 8.799 1.503 12.883 2.425 23.718 22.847 50.578 48.622 75.34 71.415 11.418 10.51 22.738 16.802 36.856 14.389-.774 5.818.404 12.1 6.325 14.409-11.149 18.037 10.69 26.126 8.682 41.06 3.351 17.827 28.306-22.229 13.638-42.424 9.731-7.14 3.538-21.897 4.613-31.713 10.082-8.949 18.021-14.175 24.875-16.866-.215 9.237-4.488 23.433 4.77 28.154-18.606 28.71 17.376 33.323 10.871 48.112-1.72 3.173 2.441 6.626 5.242 4.355 15.626-11.883 20.795-34.2 12.347-51.759 7.514-3.938 6.374-9.065 6.239-22.621 5.446 2.202 11.44 4.354 18.468 5.934-1.22 12.615-2.515 18.009 4.714 21.972-14.757 20.133 8.057 29.456 5.63 48.303-.475 2.686 2.604 4.915 5.006 3.635 17.762-8.178 24.076-34.616 15.814-51.631 9.926-4.599 4.586-18.991 4.5-27.762 11.402-6.122 23.421-8.026 35.472-2.919.924 10.019-5.579 24.07 3.463 31.912-17.6 21.495 9.454 31.624 3.606 49.033-1.634 3.263 2.731 6.579 5.439 4.133 14.472-12.066 23.544-33.514 16.313-51.072 5.776-4.305 2.408-12.767 3.317-19.266 51.506 17.011 94.138-19.458 129.59-62.329.293-.354.737-.534 1.193-.485 12.571 1.351 42.958.962 33.299-15.812zm-63.978-32.973c15.916-12.154 36.487 3.109 29.638 21.812-49.701-3.882-102.858-6.556-153.268-8.071-.644-4.363-2.584-8.269-5.477-11.376 1.761-11.748 20.704-15.533 27.449-6.257.935 1.154 2.501 1.592 3.898 1.091 5.303-3.556-.731-11.903 12.524-16.167 13.343-3.141 12.414 6.169 18.913 7.207 6.053-2.727 2.379-12.189 17.274-12.868 16.095-.36 12.559 18.478 20.534 11.569 8.235-10.324 24.589-3.327 22.823 9.749-.697 3.111 3.335 5.443 5.692 3.311zm-267.118-3.19c3.622-8.672 18.944-21.336 22.448-5.85.351 1.689 1.889 2.869 3.6 2.783 6.049-.645 1.313-15.181 18.413-15.518 11.609 1.275 4.253 11.386 10.49 13.798 6.309.389 4.264-11.211 16.148-7.812 4.361 1.426 8.05 5.619 6.457 11.772-1.099 3.808 4.523 6.112 6.413 2.629 5.76-9.811 21.774-4.327 17.656 7.308-1.58 3.837 4.211 6.656 6.263 3.052 7.767-11.528 24.749-8.351 28.462 4.578-43.183-1.109-86.433-1.269-129.638-.484.898-6.961-2.329-12.748-6.712-16.256zm6.504-89.789.169 11.099-20.55.788.005-11.484zm.275 18.096.289 19.011-20.956.311.008-18.53zm7.782 51.758-.048-3.128 19.605-.254c-3.418 1.698-6.481 4.289-8.635 7.617-4.106-4.307-7.313-4.407-10.922-4.235zm-54.585-25.052 19.136-.284-.007 15.669-18.933.245zm26.133-.388 21.065-.313.239 15.719-21.311.276zm28.06-.416 27.001-.4.588 15.779-27.351.354zm26.741-7.393-26.847.398-.291-19.175 26.401-1.012zm-61.794.917-19.227.285-.225-17.905 19.46-.746zm-18.701 42.089-.153-12.184 18.841-.244-.009 19.758c-1.233.568-2.424 1.279-3.538 2.164-3.206-5.867-9.335-8.995-15.141-9.494zm25.684-12.518 21.42-.277.079 5.208c-5.739 2.91-11.079 8.323-13.756 14.355-2.421-.874-5.052-1.236-7.751-1.118zm104.573-112.701c-.331 5.45-.632 10.911-.905 16.38l-18.34.291.264-16.671zm-20.007 64.853 17.451-.327c-.099 5.294-.172 10.587-.217 15.879l-17.478-.145zm17.61-7.328-17.5.328.222-14.039 17.647.122c-.145 4.528-.264 9.058-.369 13.589zm-17.964 29.73 17.562.145c-.016 4.153-.02 8.304-.003 12.452-.306-.087-17.438-.425-17.751-.46zm18.579-50.313-17.782-.122.208-13.15 18.131-.288c-.205 4.516-.392 9.035-.557 13.56zm-18.882 69.447c.511-.036 17.433.519 17.907.386.055 6.32.141 12.633.274 18.933-1.316.339-2.606.84-3.834 1.524-2.036-6.825-8.025-11.009-14.49-11.833zm109.961 6.5c-4.489 1.276-8.199 3.718-10.844 6.933l.176-14.447 18.075.202v6.458c-2.403-.129-4.897.139-7.407.854zm-32.287 10.274-.694-18.04 15.318.172-.227 18.645c-4.396-1.689-9.417-2.014-14.397-.777zm-1.492-38.772 16.376-.378-.174 14.286-15.673-.176zm23.374-.539 17.812-.411v15.139l-17.989-.202zm17.812-7.408-17.727.409.146-11.954 17.581-.737zm-24.725.57-16.73.386-.442-11.482 17.316-.726zm24.725-19.856-17.495.734.144-11.798 17.352-.296v11.36zm-24.495 1.028-17.671.741-.477-12.402 18.294-.312zm95.814-17.728-2.782 74.682c-5.774-2.281-13.159-2.208-18.957 2.154-3.453-5.899-9.62-9.68-16.998-10.25v-67.606zm-45.733-19.052v86.093c-5.784 1.229-10.622 4.535-13.6 9.34-1.502-1.316-3.184-2.372-4.991-3.163v-71.437c.039-1.892-1.662-3.588-3.557-3.498l-46.35.791-.757-19.658zm-75.388 21.041 3.216 83.576c-4.084 2.496-7.126 6.112-8.733 10.39-2.522-1.342-5.514-2.292-8.453-2.627l-1.101-91.732zm-20.963 91.507c-2.776.49-5.397 1.478-7.736 2.926-1.793-6.394-7.453-10.547-13.695-11.501-.875-41.648-.04-83.811 2.498-125.38h17.324zm-55.76-151.466 37.216-1.081-.162 11.596h-35.485zm3.842 17.512-1.833 115.955c-1.809.537-3.555 1.394-5.133 2.632-1.673-3.886-4.709-6.684-8.759-7.985l-4.122-110.602zm-24.781 55.433-26.246 1.006-.167-10.969 26.022-.514zm-63.279-45.93 39.751-1.364 3.16 30.214-44.032.87zm2.499 36.646-.005 11.614-19.552.749-.151-11.973zm-25.706 79.678c-2.988.798-5.859 2.307-8.192 4.633-.894-1.939-1.955-3.673-3.164-5.188.095-.156-.834-87.55-.802-87.777h11.046zm-27.666-7.716c-.837-26.77-.628-53.863.62-80.616h7.891l.782 82.213c-2.765-1.28-6.093-1.868-9.293-1.597zm-18.412-80.616h12.03c-1.265 27.297-1.462 54.945-.57 82.246-4.455 1.79-8.524 4.92-11.76 8.986-.108-20.931.082-60.982.3-91.232zm-15.171 90.858-.833-17.712c2.887-.387 5.779-.709 8.67-.972-.001 10.368.037 17.605.096 22.682-2.361-1.958-5.035-3.304-7.933-3.998zm-18.485-21.715c-.54-4.906-1.083-9.868-1.513-14.824l11.196-1.681.684 14.53c-3.477.573-6.936 1.232-10.367 1.975zm16.637-17.549 9.731-1.461c-.021 5.533-.034 10.517-.041 15.017-3.003.265-6.007.594-9.006.988zm9.761-8.541-10.091 1.515-.798-16.966c3.621-.293 7.331-.613 10.976-1.148-.036 5.963-.064 11.493-.087 16.599zm-28.557-12.984c3.4-.925 6.976-1.456 10.693-1.847l.818 17.391-11.371 1.707c-.348-5.836-.47-11.624-.14-17.251zm2.918 46.068c3.289-.724 6.605-1.372 9.938-1.935l.764 16.246c-3.221.332-6.366 1.363-9.262 2.837-.301-5.694-.839-11.452-1.44-17.148zm9.819 21.515c8.218-2.066 13.398 3.531 17.534 10.968 8.447 5.311 3.941-19.35 25.459-21.073 6.854.008 11.647 5.109 13.53 14.35.578 3.438 5.762 3.748 6.749.4 4.428-11.544 21.042-9.891 23.116 2.291.181 1.491 1.294 2.699 2.764 3.003 1.471.306 2.971-.364 3.728-1.66 7.435-11.161 23.88-4.727 22.771 8.352-45.044.922-90.032 2.877-134.837 5.857.69-11.246 10.259-20.621 19.186-22.488zm89.691 119.407c.263 4.875 1.403 10.917.576 15.626-.452 2.572-2.598 4.504-5.2 4.713-3.214.257-6.589.398-9.916.283-6.091-.21-5.483-4.513-4.169-9.968 6.221-2.191 12.505-5.761 18.709-10.654zm-4.802 27.378c6.484 9.726 6.177 22.974.052 32.694-3.735-11.857-18.161-19.483-7.017-32.656 2.265-.079 4.611.067 6.955-.056.004.006.006.013.01.018zm68.992-46.99c1.966 25.802-2.17 19.612-22.335 18.784-8.02-.329-2.315-17.122-2.958-23.405-.035-.346.218-.659.562-.708 8.609-1.225 15.902 1.61 24.731 5.329zm-9.297 65.278c-2.027-6.589-7.868-11.225-12.403-15.255-6.332-6.577-4.576-19.226 3.097-24.043 4.094.258 9.039.628 12.167.625 6.736 12.012 5.285 27.725-2.861 38.673zm47.919-54.337c5.59.115 10.824-2.252 15.783-4.368.092 6.296 5.446 18.61-4.337 18.541-15.92-.113-20.864 4.565-17.595-14.915 1.971.298 4.006.698 6.149.742zm13.146 48.127c-1.744 5.777-4.782 10.604-8.778 14.057-1.073-16.279-19.962-25.454-4.513-41.099 3.662.034 6.799-.051 10.908.068 4.197 7.64 5.122 17.897 2.383 26.974zm59.958 13.973c-2.64-14.289-18.677-22.31-4.801-37.82 3.861.448 8.066.162 11.696.868 4.2 9.606 3.334 24.129-6.895 36.952zm10.105-54.065c-.173 11.566 2.243 9.329-9.523 9.562-15.298.302-8.434-15.854-8.559-25.071 6.027 2.802 11.981 6.064 18.107 8.859.028 1.882.001 4.299-.025 6.65zm79.211-21.517c-65.795 39.022-76.852-10.057-124.483-6.644-11.593.831-21.511 9.015-32.349 12.057-3.009.845-6.178 1.023-9.269.561-42.053-6.288-53.448-36.37-99.663 7.511-11.609 10.332-23.954 15.602-34.732 14.84-8.598-.565-15.123-6.307-22.942-12.868-23.302-19.551-47.234-44.719-69.584-65.813 33.12 1.879 66.628 2.962 100.223 3.545-1.296 19.622 20.868 33.032 38.965 29.912 16.493-1.581 33.585-13.078 49.727-7.893 11.456 4.038 20.492 15.819 33.778 15.648 12.026.143 21.854-9.486 33.09-11.109 9.584-1.263 19.797 4.451 29.336 7.261 29.757 9.383 66.156-5.136 79.396-33.695 25.992.126 51.973.443 77.686 1.107-17.347 20.667-33.48 35.62-49.179 45.58zm-285.799-46.704c84.112 1.286 165.812-.312 249.69-.019-13.643 23.355-43.808 35.211-69.737 27.043-10.506-3.188-20.751-8.985-32.281-7.513-11.675 1.201-21.832 11.441-33.235 11.022-11.09-.921-19.693-11.934-30.56-15.266-18.372-6.033-35.449 5.629-52.922 7.615-14.239 1.649-31.179-5.823-30.955-22.882zm371.526-8.896c-.192 2.206-3.078 3.18-5.374 3.393-5.156.478-10.347.375-15.525.271-36.756 0-73.518-1.895-110.273-2.213-25.533-.221-51.068.4-76.602.543-30.339.171-60.678.389-91.018.408-30.304.019-60.609-.159-90.907-.783-30.218-.622-60.429-1.688-90.603-3.448-5.121-.299-10.24-.617-15.358-.957-.754-.05-1.304-.751-1.167-1.494.837-4.529 8.324-6.219 12.615-6.183 36.45-2.713 72.949-4.749 109.474-6.112 36.609-1.366 73.244-2.055 109.879-2.064 36.633-.009 73.266.661 109.874 2.019 36.093 1.34 72.2 3.283 108.232 5.672 10.467.694 20.925 1.708 31.271 3.474 4.316.737 8.681 1.627 12.551 3.676 1.423.753 2.918 1.919 2.939 3.528.003.091 0 .182-.008.27z"/><path d="m325.408 137.142c31.463 4.818 64.575.856 96.38 1.005 1.669.006 3.111-1.17 3.441-2.806 3.786-15.152-3.732-36.76-29.347-23.518-1.354-9.982-9.051-27.815-23.364-25.305-16.187 2.838-27.836 6.81-26.284 22.587-26.446-12.903-46.076 24.17-20.826 28.037zm.058-21.254c11.391-9.53 31.523 11.034 29.118-1.486-1.206-6.279-2.042-10.457-.237-13.367 2.847-4.589 10.924-6.276 19.201-7.599 11.776-1.882 15.54 18.1 16.103 24.02 2.066 12.124 31.208-21.228 29.122 13.683-30.568-.13-62.257 3.332-92.507-.947-7.47-1.056-6.095-9.804-.8-14.304z"/><path d="m202.402 92.308c31.464 4.819 64.573.856 96.38 1.005 1.668.006 3.11-1.169 3.441-2.804 3.787-15.216-3.692-36.643-29.346-23.513-1.353-9.981-9.049-27.822-23.365-25.312-16.188 2.838-27.836 6.81-26.284 22.586-26.445-12.903-46.075 24.171-20.826 28.038zm.059-21.254c11.392-9.531 31.523 11.034 29.119-1.486-1.206-6.279-2.042-10.456-.237-13.367 2.846-4.589 10.924-6.276 19.201-7.599 11.776-1.882 15.539 18.099 16.102 24.02 2.066 12.125 31.205-21.229 29.122 13.683-30.571-.13-62.254 3.333-92.507-.947-7.47-1.056-6.095-9.804-.8-14.304z"/><path d="m72.066 129.884c31.464 4.819 64.573.856 96.38 1.005 1.668.006 3.11-1.169 3.441-2.804 3.787-15.215-3.691-36.642-29.345-23.513-1.353-9.982-9.126-28.226-23.366-25.313-16.261 2.379-27.836 6.811-26.284 22.587-26.444-12.903-46.076 24.172-20.826 28.038zm.058-21.253c11.391-9.529 31.523 11.033 29.119-1.486-1.206-6.279-2.042-10.456-.237-13.367 2.847-4.589 10.911-6.365 19.201-7.599 11.755-2.008 15.539 18.1 16.103 24.021 2.067 12.125 31.205-21.23 29.122 13.682-30.57-.13-62.254 3.332-92.507-.947-7.47-1.057-6.095-9.804-.801-14.304z"/></g></g></svg>