<?xml version="1.0" encoding="UTF-8"?>
<svg xmlns="http://www.w3.org/2000/svg" xmlns:xlink="http://www.w3.org/1999/xlink" width="30pt" height="30pt" viewBox="0 0 30 30" version="1.1">
<g id="surface1">
<path style=" stroke:none;fill-rule:nonzero;fill:rgb(47.058824%,67.843137%,27.058824%);fill-opacity:1;" d="M 26.882812 16.039062 C 26.597656 16.039062 26.316406 16.128906 26.070312 16.304688 C 26.183594 15.386719 24.925781 14.855469 24.34375 15.578125 C 23.964844 14.597656 22.574219 14.609375 22.238281 15.570312 C 21.640625 14.75 20.367188 15.214844 20.34375 16.097656 C 19.777344 15.410156 18.398438 15.875 18.363281 16.632812 C 18.378906 16.898438 18.6875 17.074219 18.683594 17.367188 C 18.699219 17.480469 18.792969 17.5625 18.90625 17.566406 C 22.027344 17.660156 25.128906 17.824219 27.882812 18.039062 C 27.988281 18.046875 28.085938 17.984375 28.125 17.886719 C 28.476562 17.015625 27.808594 16.023438 26.882812 16.039062 Z M 26.882812 16.039062 "/>
<path style=" stroke:none;fill-rule:nonzero;fill:rgb(47.058824%,67.843137%,27.058824%);fill-opacity:1;" d="M 9.757812 16.242188 C 9.457031 16.242188 9.183594 16.382812 9 16.632812 C 8.839844 15.785156 7.578125 15.644531 7.238281 16.4375 C 6.765625 14.734375 5.078125 15.667969 4.859375 16.707031 C 4.207031 15.4375 2.429688 16.300781 2.355469 17.628906 C 2.34375 17.761719 2.457031 17.882812 2.585938 17.878906 C 5.210938 17.707031 7.875 17.589844 10.5 17.535156 C 11.140625 17.359375 10.425781 16.136719 9.757812 16.242188 Z M 9.757812 16.242188 "/>
<path style=" stroke:none;fill-rule:nonzero;fill:rgb(75.686275%,18.823529%,18.823529%);fill-opacity:1;" d="M 19.738281 24.066406 C 19.449219 24.058594 19.078125 23.921875 18.832031 24.085938 C 18.175781 24.820312 18.503906 25.382812 18.765625 25.835938 C 18.992188 26.0625 18.980469 26.679688 19.289062 26.695312 C 19.890625 26.488281 20.460938 24.597656 19.738281 24.066406 Z M 19.738281 24.066406 "/>
<path style=" stroke:none;fill-rule:nonzero;fill:rgb(75.686275%,18.823529%,18.823529%);fill-opacity:1;" d="M 15.640625 23.824219 C 15.378906 23.851562 15.023438 23.746094 14.828125 23.890625 C 14.128906 24.597656 14.453125 25.191406 14.714844 25.664062 C 14.859375 25.921875 15.003906 26.1875 15.023438 26.480469 C 15.03125 26.601562 15.136719 26.703125 15.257812 26.699219 C 16.164062 26.265625 16.296875 24.746094 15.839844 23.949219 C 15.800781 23.875 15.722656 23.828125 15.640625 23.824219 Z M 15.640625 23.824219 "/>
<path style=" stroke:none;fill-rule:nonzero;fill:rgb(75.686275%,18.823529%,18.823529%);fill-opacity:1;" d="M 12.359375 23.503906 C 12.140625 23.53125 11.761719 23.414062 11.519531 23.503906 C 10.917969 23.859375 10.8125 24.925781 11.386719 25.355469 C 11.617188 25.558594 11.878906 25.789062 11.96875 26.074219 C 12.015625 26.253906 12.273438 26.300781 12.378906 26.144531 C 12.894531 25.511719 13.121094 23.945312 12.359375 23.503906 Z M 12.359375 23.503906 "/>
<path style=" stroke:none;fill-rule:nonzero;fill:rgb(75.686275%,18.823529%,18.823529%);fill-opacity:1;" d="M 8.851562 24.761719 C 8.777344 24.664062 8.160156 24.664062 8.105469 24.785156 C 7.542969 25.449219 7.890625 25.964844 8.171875 26.378906 C 8.390625 26.585938 8.382812 26.992188 8.664062 27.082031 C 9.390625 26.871094 9.296875 25.226562 8.851562 24.761719 Z M 8.851562 24.761719 "/>
<path style=" stroke:none;fill-rule:nonzero;fill:rgb(69.803922%,34.901961%,19.607843%);fill-opacity:1;" d="M 22.410156 19.054688 C 18.945312 19.042969 15.566406 19.085938 12.105469 19.085938 C 11.261719 19.199219 7.351562 18.800781 7.53125 19.285156 C 7.511719 20.273438 8.386719 20.886719 9.351562 20.878906 C 10.265625 20.875 11.148438 20.320312 12.039062 20.320312 C 12.976562 20.257812 13.550781 21.226562 14.457031 21.316406 C 15.179688 21.359375 15.785156 20.746094 16.457031 20.667969 C 17.433594 20.585938 18.3125 21.332031 19.316406 21.261719 C 20.660156 21.261719 21.953125 20.53125 22.613281 19.40625 C 22.703125 19.257812 22.585938 19.050781 22.410156 19.054688 Z M 22.410156 19.054688 "/>
<path style=" stroke:none;fill-rule:nonzero;fill:rgb(76.078431%,91.372549%,97.647059%);fill-opacity:1;" d="M 24.117188 6.480469 C 23.769531 6.476562 23.398438 6.710938 23.078125 6.800781 C 23.058594 6.492188 22.765625 5.066406 21.871094 5.238281 C 20.980469 5.335938 20.203125 5.675781 20.546875 6.691406 C 18.8125 5.714844 17.964844 7.558594 19.128906 7.859375 C 20.921875 7.882812 22.761719 7.90625 24.558594 7.914062 C 24.683594 7.914062 24.785156 7.816406 24.792969 7.695312 C 24.796875 6.976562 24.769531 6.558594 24.117188 6.480469 Z M 24.117188 6.480469 "/>
<path style=" stroke:none;fill-rule:nonzero;fill:rgb(76.078431%,91.372549%,97.647059%);fill-opacity:1;" d="M 16.902344 3.851562 C 16.554688 3.847656 16.1875 4.082031 15.863281 4.171875 C 15.796875 3.523438 15.449219 2.476562 14.660156 2.609375 C 13.636719 2.75 13.03125 3.042969 13.332031 4.0625 C 11.601562 3.085938 10.75 4.929688 11.917969 5.230469 C 13.707031 5.25 15.550781 5.277344 17.34375 5.285156 C 17.46875 5.285156 17.570312 5.1875 17.578125 5.0625 C 17.585938 4.347656 17.558594 3.929688 16.902344 3.851562 Z M 16.902344 3.851562 "/>
<path style=" stroke:none;fill-rule:nonzero;fill:rgb(76.078431%,91.372549%,97.647059%);fill-opacity:1;" d="M 15.746094 9.535156 C 15.742188 9.535156 14.679688 9.554688 14.679688 9.554688 C 14.550781 9.554688 14.449219 9.65625 14.449219 9.785156 C 14.472656 9.917969 14.367188 10.632812 14.5 10.722656 C 14.570312 10.859375 15.589844 10.773438 15.710938 10.800781 C 15.839844 10.800781 15.941406 10.699219 15.945312 10.574219 C 15.890625 10.261719 16.183594 9.617188 15.746094 9.535156 Z M 15.746094 9.535156 "/>
<path style=" stroke:none;fill-rule:nonzero;fill:rgb(76.078431%,91.372549%,97.647059%);fill-opacity:1;" d="M 15.667969 11.949219 C 15.664062 11.949219 14.640625 11.96875 14.640625 11.96875 C 14.511719 11.972656 14.410156 12.074219 14.410156 12.199219 C 14.4375 12.332031 14.328125 13.183594 14.460938 13.269531 C 14.53125 13.40625 15.53125 13.324219 15.65625 13.351562 C 15.714844 13.351562 15.773438 13.324219 15.820312 13.28125 C 15.980469 12.96875 15.851562 12.597656 15.902344 12.1875 C 15.90625 12.0625 15.796875 11.945312 15.667969 11.949219 Z M 15.667969 11.949219 "/>
<path style=" stroke:none;fill-rule:nonzero;fill:rgb(76.078431%,91.372549%,97.647059%);fill-opacity:1;" d="M 12.914062 13.398438 C 12.753906 13.445312 11.164062 13.300781 11.125 13.546875 C 11.101562 13.507812 11.070312 13.476562 11.027344 13.453125 C 11.101562 13.414062 11.148438 13.332031 11.148438 13.246094 C 11.105469 13.078125 11.242188 11.992188 11.003906 11.929688 C 11.222656 11.847656 11.085938 11.234375 11.117188 11.070312 C 11.117188 10.945312 11.003906 10.839844 10.882812 10.839844 C 10.878906 10.839844 9.679688 10.863281 9.679688 10.863281 C 9.554688 10.867188 9.453125 10.96875 9.453125 11.097656 C 9.488281 11.261719 9.351562 11.898438 9.574219 11.976562 C 9.5 12.015625 9.453125 12.09375 9.453125 12.183594 C 9.492188 12.351562 9.339844 13.40625 9.574219 13.472656 C 9.5 13.515625 9.449219 13.589844 9.449219 13.679688 C 9.476562 13.8125 9.382812 14.683594 9.519531 14.765625 C 9.574219 14.902344 10.824219 14.792969 10.9375 14.816406 C 11.023438 14.816406 11.101562 14.765625 11.140625 14.691406 C 11.179688 14.761719 11.257812 14.8125 11.34375 14.8125 C 11.449219 14.785156 13.101562 14.859375 13.117188 14.71875 C 13.253906 14.632812 13.128906 13.753906 13.148438 13.621094 C 13.144531 13.496094 13.039062 13.398438 12.914062 13.398438 Z M 12.914062 13.398438 "/>
<path style=" stroke:none;fill-rule:nonzero;fill:rgb(76.078431%,91.372549%,97.647059%);fill-opacity:1;" d="M 9.703125 7.488281 C 10.203125 7.425781 9.84375 6.296875 9.710938 6.238281 C 9.351562 5.820312 8.644531 6.238281 8.222656 6.375 C 8.152344 5.726562 7.804688 4.679688 7.015625 4.8125 C 5.992188 4.953125 5.390625 5.25 5.691406 6.265625 C 4.003906 5.320312 3.132812 7.035156 4.214844 7.425781 C 6.023438 7.46875 7.886719 7.472656 9.703125 7.488281 Z M 9.703125 7.488281 "/>
<path style=" stroke:none;fill-rule:nonzero;fill:rgb(76.078431%,91.372549%,97.647059%);fill-opacity:1;" d="M 4.640625 13.304688 C 4.4375 13.367188 3.808594 13.296875 3.835938 13.636719 C 3.867188 13.773438 3.804688 14.578125 3.957031 14.65625 C 4.160156 14.785156 4.429688 14.640625 4.65625 14.652344 C 4.777344 14.640625 4.871094 14.539062 4.871094 14.417969 C 4.808594 14.167969 5.054688 13.320312 4.640625 13.304688 Z M 4.640625 13.304688 "/>
<path style=" stroke:none;fill-rule:nonzero;fill:rgb(76.078431%,91.372549%,97.647059%);fill-opacity:1;" d="M 3.828125 12.242188 C 3.824219 12.113281 3.699219 12.003906 3.566406 12.019531 C 3.230469 12.101562 2.816406 12.003906 2.730469 12.347656 C 2.777344 12.59375 2.542969 13.570312 2.972656 13.609375 C 4.234375 13.46875 3.8125 13.464844 3.828125 12.242188 Z M 3.828125 12.242188 "/>
<path style=" stroke:none;fill-rule:nonzero;fill:rgb(40.784314%,25.490196%,25.490196%);fill-opacity:1;" d="M 27.417969 19.121094 C 26.023438 19.085938 24.53125 19.066406 22.855469 19.058594 C 22.765625 19.058594 22.679688 19.109375 22.640625 19.191406 C 21.96875 20.703125 19.921875 21.582031 18.265625 21.042969 C 15.992188 20.109375 16.414062 20.878906 14.523438 21.257812 C 14.125 21.257812 13.785156 21.03125 13.429688 20.792969 C 12.257812 19.75 10.898438 20.585938 9.617188 20.804688 C 8.679688 20.929688 7.582031 20.398438 7.589844 19.300781 C 7.601562 19.167969 7.488281 19.050781 7.359375 19.050781 C 5.210938 19.011719 3.292969 18.945312 1.492188 18.84375 C 1.285156 18.824219 1.15625 19.105469 1.316406 19.246094 C 1.894531 19.792969 2.507812 20.371094 3.121094 20.953125 C 3.878906 21.671875 4.667969 22.417969 5.390625 23.097656 C 5.855469 23.644531 6.40625 23.929688 7.027344 23.929688 C 8.570312 24.054688 10.152344 21.515625 11.484375 21.679688 C 12.976562 21.765625 14.617188 23.292969 16.214844 22.242188 C 19.339844 20.71875 20.328125 24.984375 24.648438 22.230469 C 24.875 22.179688 28.429688 19.320312 27.417969 19.121094 Z M 27.417969 19.121094 "/>
<path style=" stroke:none;fill-rule:nonzero;fill:rgb(75.294118%,77.254902%,84.313725%);fill-opacity:1;" d="M 17.242188 8.164062 L 16.226562 8.164062 C 16.105469 8.164062 16 8.261719 15.996094 8.386719 C 15.84375 10.828125 15.796875 13.308594 15.847656 15.757812 C 15.890625 16.125 16.53125 15.921875 16.660156 16.492188 C 16.695312 16.636719 16.882812 16.710938 17.007812 16.625 C 17.179688 16.480469 17.566406 16.550781 17.574219 16.253906 C 17.574219 16.253906 17.476562 8.398438 17.476562 8.398438 C 17.476562 8.269531 17.371094 8.164062 17.242188 8.164062 Z M 17.242188 8.164062 "/>
<path style=" stroke:none;fill-rule:nonzero;fill:rgb(75.294118%,77.254902%,84.313725%);fill-opacity:1;" d="M 14.292969 8.164062 C 14.164062 8.1875 13.027344 8.097656 12.960938 8.238281 C 12.917969 8.285156 12.894531 8.34375 12.894531 8.410156 L 13.136719 14.894531 C 13.175781 15.183594 13.601562 15.140625 13.667969 15.445312 C 13.804688 15.730469 14.058594 15.496094 14.253906 15.425781 C 14.351562 15.394531 14.417969 15.308594 14.421875 15.203125 L 14.527344 8.402344 C 14.53125 8.277344 14.421875 8.164062 14.292969 8.164062 Z M 14.292969 8.164062 "/>
<path style=" stroke:none;fill-rule:nonzero;fill:rgb(75.294118%,77.254902%,84.313725%);fill-opacity:1;" d="M 11.695312 8.851562 C 11.679688 8.734375 11.578125 8.644531 11.460938 8.644531 C 11.457031 8.644531 9.121094 8.722656 9.121094 8.722656 C 9 8.726562 8.898438 8.824219 8.894531 8.949219 C 8.914062 9.042969 8.753906 10.855469 8.898438 10.863281 C 8.800781 11.003906 11.621094 10.863281 11.652344 10.882812 C 11.785156 10.882812 11.894531 10.757812 11.878906 10.625 C 11.878906 10.625 11.695312 8.851562 11.695312 8.851562 Z M 11.695312 8.851562 "/>
<path style=" stroke:none;fill-rule:nonzero;fill:rgb(86.27451%,87.058824%,91.764706%);fill-opacity:1;" d="M 22.992188 9.421875 C 22.992188 9.421875 18.929688 9.332031 18.925781 9.332031 C 18.796875 9.328125 18.6875 9.445312 18.691406 9.574219 C 18.691406 9.574219 18.738281 10.726562 18.738281 10.726562 C 18.742188 10.851562 18.847656 10.953125 18.972656 10.953125 C 18.972656 10.953125 21.664062 10.90625 21.664062 10.90625 L 21.664062 15.066406 C 21.660156 15.28125 21.917969 15.300781 22.035156 15.429688 C 22.140625 15.523438 22.320312 15.496094 22.390625 15.375 C 22.578125 14.945312 23.203125 15.039062 23.222656 14.703125 C 23.113281 14.605469 23.488281 9.148438 22.992188 9.421875 Z M 22.992188 9.421875 "/>
<path style=" stroke:none;fill-rule:nonzero;fill:rgb(86.27451%,87.058824%,91.764706%);fill-opacity:1;" d="M 16.25 7.074219 C 16.25 7.074219 14.0625 7.136719 14.0625 7.136719 C 13.925781 7.140625 13.8125 7.273438 13.835938 7.40625 C 13.90625 7.59375 13.828125 8.246094 14.160156 8.222656 L 16.242188 8.222656 C 16.371094 8.222656 16.472656 8.121094 16.476562 7.992188 C 16.433594 7.785156 16.640625 7.0625 16.25 7.074219 Z M 16.25 7.074219 "/>
<path style=" stroke:none;fill-rule:nonzero;fill:rgb(86.27451%,87.058824%,91.764706%);fill-opacity:1;" d="M 7.703125 10.363281 C 6.535156 10.445312 6.875 9.945312 6.835938 12.136719 C 6.941406 13.984375 6.648438 15.527344 7.074219 16.148438 C 7.136719 16.292969 7.34375 16.332031 7.453125 16.21875 C 7.589844 16.019531 7.996094 16.066406 8.003906 15.777344 C 7.886719 15.667969 8.199219 10.085938 7.703125 10.363281 Z M 7.703125 10.363281 "/>
<path style=" stroke:none;fill-rule:nonzero;fill:rgb(86.27451%,87.058824%,91.764706%);fill-opacity:1;" d="M 5.941406 10.4375 C 5.851562 10.292969 5.199219 10.394531 5.066406 10.363281 C 4.9375 10.363281 4.832031 10.46875 4.832031 10.597656 C 4.820312 12.28125 4.808594 14.695312 4.8125 15.949219 C 4.808594 16.164062 5.101562 16.269531 5.230469 16.09375 C 5.398438 15.886719 5.601562 15.730469 5.824219 15.640625 C 5.917969 15.601562 5.976562 15.511719 5.972656 15.414062 C 5.851562 13.78125 6.066406 12.050781 5.941406 10.4375 Z M 5.941406 10.4375 "/>
<path style=" stroke:none;fill-rule:nonzero;fill:rgb(39.607843%,74.509804%,93.72549%);fill-opacity:1;" d="M 21.488281 11.929688 C 21.480469 11.925781 20.457031 11.972656 20.449219 11.972656 C 20.324219 11.976562 20.226562 12.078125 20.222656 12.203125 C 20.257812 12.371094 20.113281 13.027344 20.335938 13.109375 C 20.109375 13.179688 20.238281 14 20.199219 14.167969 C 20.195312 14.292969 20.304688 14.40625 20.429688 14.402344 C 20.429688 14.402344 21.488281 14.414062 21.488281 14.414062 C 21.613281 14.417969 21.726562 14.308594 21.722656 14.179688 C 21.683594 14.011719 21.828125 13.164062 21.597656 13.089844 C 21.820312 13.011719 21.6875 12.328125 21.722656 12.164062 C 21.726562 12.035156 21.613281 11.925781 21.488281 11.929688 Z M 21.488281 11.929688 "/>
<path style=" stroke:none;fill-rule:nonzero;fill:rgb(39.607843%,74.509804%,93.72549%);fill-opacity:1;" d="M 20.285156 11.816406 C 20.242188 11.605469 20.449219 10.863281 20.058594 10.875 C 19.929688 10.902344 18.886719 10.828125 18.816406 10.96875 C 18.683594 11.058594 18.800781 11.734375 18.78125 11.863281 C 18.785156 11.992188 18.898438 12.097656 19.023438 12.089844 L 20.0625 12.046875 C 20.1875 12.042969 20.285156 11.941406 20.285156 11.816406 Z M 20.285156 11.816406 "/>
<path style=" stroke:none;fill-rule:nonzero;fill:rgb(39.607843%,74.509804%,93.72549%);fill-opacity:1;" d="M 15.699219 10.742188 C 15.699219 10.742188 14.664062 10.734375 14.664062 10.734375 C 14.535156 10.734375 14.429688 10.835938 14.429688 10.964844 C 14.453125 11.101562 14.347656 11.871094 14.484375 11.957031 C 14.554688 12.097656 15.558594 11.984375 15.679688 12.007812 C 15.808594 12.007812 15.910156 11.90625 15.910156 11.777344 C 15.851562 11.445312 16.128906 10.816406 15.699219 10.742188 Z M 15.699219 10.742188 "/>
<path style=" stroke:none;fill-rule:nonzero;fill:rgb(39.607843%,74.509804%,93.72549%);fill-opacity:1;" d="M 15.796875 14.476562 C 15.5625 14.371094 15.289062 14.449219 14.921875 14.414062 C 14.59375 14.414062 14.429688 14.335938 14.371094 14.636719 C 14.398438 14.828125 14.246094 15.375 14.566406 15.398438 C 15.152344 15.492188 15.042969 15.773438 15.359375 16.078125 C 15.539062 16.117188 15.910156 15.992188 15.90625 15.765625 C 15.839844 15.355469 16.015625 14.832031 15.796875 14.476562 Z M 15.796875 14.476562 "/>
<path style=" stroke:none;fill-rule:nonzero;fill:rgb(39.607843%,74.509804%,93.72549%);fill-opacity:1;" d="M 13.015625 11.890625 C 13 11.875 12.980469 11.863281 12.957031 11.851562 C 13.171875 11.765625 13.027344 11.191406 13.050781 11.027344 C 13.046875 10.902344 12.941406 10.800781 12.816406 10.800781 C 12.816406 10.800781 11.285156 10.832031 11.285156 10.832031 C 11.15625 10.835938 11.054688 10.941406 11.058594 11.070312 C 11.09375 11.234375 10.96875 11.839844 11.191406 11.917969 C 10.957031 11.984375 11.128906 13.085938 11.089844 13.25 C 11.09375 13.375 11.195312 13.480469 11.324219 13.480469 C 11.324219 13.480469 12.902344 13.457031 12.902344 13.457031 C 13.03125 13.457031 13.140625 13.339844 13.132812 13.214844 C 13.101562 13.089844 13.152344 11.949219 13.015625 11.890625 Z M 13.015625 11.890625 "/>
<path style=" stroke:none;fill-rule:nonzero;fill:rgb(39.607843%,74.509804%,93.72549%);fill-opacity:1;" d="M 9.277344 10.871094 C 9.273438 10.871094 8.117188 10.894531 8.117188 10.894531 C 7.988281 10.898438 7.882812 11.003906 7.886719 11.132812 C 7.914062 11.265625 7.828125 11.914062 7.96875 12 C 8.027344 12.136719 9.171875 12 9.285156 12.023438 C 9.410156 12.015625 9.507812 11.914062 9.511719 11.789062 C 9.464844 11.582031 9.660156 10.859375 9.277344 10.871094 Z M 9.277344 10.871094 "/>
<path style=" stroke:none;fill-rule:nonzero;fill:rgb(39.607843%,74.509804%,93.72549%);fill-opacity:1;" d="M 9.273438 13.453125 C 9.273438 13.453125 8.148438 13.46875 8.148438 13.46875 C 8.019531 13.46875 7.917969 13.574219 7.917969 13.703125 C 7.949219 13.835938 7.863281 14.707031 8 14.785156 C 8.0625 14.921875 9.160156 14.816406 9.277344 14.839844 C 9.40625 14.835938 9.507812 14.734375 9.507812 14.605469 L 9.507812 13.6875 C 9.511719 13.558594 9.402344 13.449219 9.273438 13.453125 Z M 9.273438 13.453125 "/>
<path style=" stroke:none;fill-rule:nonzero;fill:rgb(39.607843%,74.509804%,93.72549%);fill-opacity:1;" d="M 6.644531 10.363281 C 6.449219 10.394531 5.953125 10.257812 5.949219 10.589844 C 5.9375 12.203125 5.730469 13.933594 5.988281 15.503906 C 6.160156 15.621094 6.414062 15.515625 6.59375 15.632812 C 6.742188 15.707031 6.933594 15.585938 6.925781 15.417969 C 6.925781 15.417969 6.878906 10.597656 6.878906 10.597656 C 6.878906 10.46875 6.773438 10.363281 6.644531 10.363281 Z M 6.644531 10.363281 "/>
<path style=" stroke:none;fill-rule:nonzero;fill:rgb(39.607843%,74.509804%,93.72549%);fill-opacity:1;" d="M 3.867188 14.765625 C 3.851562 14.757812 3.835938 14.746094 3.820312 14.738281 C 4.042969 14.65625 3.867188 13.84375 3.894531 13.675781 C 3.890625 13.539062 3.757812 13.429688 3.625 13.453125 C 3.433594 13.527344 2.71875 13.445312 2.769531 13.804688 C 2.851562 14.117188 2.722656 14.6875 3.003906 14.871094 C 2.769531 15.136719 3.027344 15.667969 2.988281 16.082031 C 2.992188 16.246094 3.183594 16.355469 3.328125 16.277344 C 3.550781 16.109375 3.984375 16.238281 4 15.890625 C 3.960938 15.753906 4.023438 14.84375 3.867188 14.765625 Z M 3.867188 14.765625 "/>
<path style=" stroke:none;fill-rule:nonzero;fill:rgb(28.627451%,29.019608%,34.117647%);fill-opacity:1;" d="M 20.117188 23.292969 C 20.09375 23.082031 20.203125 22.800781 19.980469 22.6875 C 19.621094 22.523438 19.277344 22.335938 18.921875 22.167969 C 18.527344 22.046875 18.597656 22.511719 18.550781 22.78125 C 18.5 23.171875 18.441406 23.613281 18.683594 23.882812 C 18.902344 24.167969 19.410156 24.074219 19.730469 24.117188 C 20.164062 24.15625 20.136719 23.640625 20.117188 23.292969 Z M 20.117188 23.292969 "/>
<path style=" stroke:none;fill-rule:nonzero;fill:rgb(28.627451%,29.019608%,34.117647%);fill-opacity:1;" d="M 16.160156 22.558594 C 16.097656 21.988281 15.222656 22.785156 14.640625 22.542969 C 14.207031 22.578125 14.351562 23.667969 14.476562 23.714844 C 14.78125 24.023438 15.257812 23.828125 15.648438 23.882812 C 16.453125 23.984375 16.226562 23.0625 16.160156 22.558594 Z M 16.160156 22.558594 "/>
<path style=" stroke:none;fill-rule:nonzero;fill:rgb(28.627451%,29.019608%,34.117647%);fill-opacity:1;" d="M 12.828125 21.960938 C 12.234375 21.742188 11.597656 21.414062 11.054688 21.738281 C 10.96875 21.921875 11.050781 22.082031 10.984375 22.34375 C 10.933594 22.738281 10.882812 23.148438 11.078125 23.371094 C 11.296875 23.613281 11.773438 23.484375 12.027344 23.550781 C 12.332031 23.5625 12.578125 23.644531 12.832031 23.410156 C 13.019531 23.207031 13.023438 22.875 12.972656 22.160156 C 12.964844 22.074219 12.910156 21.996094 12.828125 21.960938 Z M 12.828125 21.960938 "/>
<path style=" stroke:none;fill-rule:nonzero;fill:rgb(28.627451%,29.019608%,34.117647%);fill-opacity:1;" d="M 9.207031 23.316406 C 9.203125 23.132812 8.96875 23.027344 8.828125 23.144531 C 8.484375 23.414062 8.136719 23.613281 7.796875 23.730469 C 7.527344 23.882812 7.546875 24.414062 7.691406 24.621094 C 7.839844 24.863281 8.292969 24.738281 8.550781 24.761719 C 9.414062 24.878906 9.273438 23.898438 9.207031 23.316406 Z M 9.207031 23.316406 "/>
<path style=" stroke:none;fill-rule:nonzero;fill:rgb(71.372549%,82.745098%,40%);fill-opacity:1;" d="M 17.59375 16.402344 C 17.25 16.402344 16.941406 16.550781 16.71875 16.808594 C 16.894531 16.011719 15.761719 15.597656 15.300781 16.214844 C 15.394531 15.289062 14.078125 15.03125 13.785156 15.773438 C 13.746094 14.53125 12.121094 15 12.015625 15.84375 C 11.675781 14.59375 9.917969 16.023438 10.351562 16.523438 C 10.464844 16.613281 10.710938 16.859375 10.660156 17.265625 C 10.652344 17.332031 10.671875 17.398438 10.71875 17.449219 C 11.757812 17.652344 12.953125 17.429688 14.039062 17.5 C 14.90625 17.5 15.789062 17.507812 16.65625 17.519531 C 17.265625 17.527344 17.882812 17.539062 18.488281 17.554688 C 18.5625 17.558594 18.636719 17.523438 18.679688 17.464844 C 18.851562 16.894531 18.117188 16.386719 17.59375 16.402344 Z M 17.59375 16.402344 "/>
<path style=" stroke:none;fill-rule:nonzero;fill:rgb(32.941176%,55.294118%,78.431373%);fill-opacity:1;" d="M 26.011719 17.855469 C 17.570312 17.480469 8.628906 16.882812 0.316406 18.222656 C 0.140625 18.390625 0.0976562 18.800781 0.398438 18.835938 C 4.488281 19.109375 8.625 19.144531 11.773438 19.144531 C 16.871094 19.140625 23.066406 19.035156 27.878906 19.203125 C 28.320312 19.261719 29.808594 19.308594 29.8125 18.847656 C 29.863281 17.839844 27.066406 17.976562 26.011719 17.855469 Z M 26.011719 17.855469 "/>
<path style=" stroke:none;fill-rule:nonzero;fill:rgb(32.941176%,55.294118%,78.431373%);fill-opacity:1;" d="M 20.460938 12.03125 C 20.472656 12.03125 21.484375 11.984375 21.496094 11.988281 C 21.625 11.980469 21.722656 11.878906 21.722656 11.753906 C 21.679688 11.546875 21.867188 10.835938 21.488281 10.851562 C 21.488281 10.851562 20.46875 10.871094 20.46875 10.871094 C 20.339844 10.871094 20.238281 10.972656 20.238281 11.101562 C 20.28125 11.308594 20.074219 12.042969 20.460938 12.03125 Z M 20.460938 12.03125 "/>
<path style=" stroke:none;fill-rule:nonzero;fill:rgb(32.941176%,55.294118%,78.431373%);fill-opacity:1;" d="M 18.953125 13.148438 C 18.734375 13.230469 18.898438 13.996094 18.871094 14.164062 C 18.875 14.253906 18.925781 14.328125 19 14.363281 C 18.925781 14.40625 18.882812 14.488281 18.886719 14.574219 C 18.921875 14.71875 18.847656 15.738281 19.019531 15.808594 C 19.167969 15.917969 19.351562 15.792969 19.515625 15.8125 C 19.804688 15.808594 20.277344 16.085938 20.238281 15.578125 C 20.53125 15.898438 20.839844 15.121094 21.417969 15.203125 C 21.5 15.210938 21.589844 15.203125 21.648438 15.140625 C 21.773438 15.050781 21.707031 14.71875 21.722656 14.589844 C 21.722656 14.464844 21.621094 14.359375 21.492188 14.355469 C 21.324219 14.394531 20.296875 14.234375 20.222656 14.464844 C 20.203125 14.425781 20.171875 14.390625 20.132812 14.371094 C 20.207031 14.332031 20.257812 14.257812 20.257812 14.167969 C 20.222656 14 20.371094 13.203125 20.148438 13.125 C 20.371094 13.046875 20.246094 12.390625 20.28125 12.226562 C 20.285156 12.09375 20.167969 11.980469 20.035156 11.988281 L 19.019531 12.03125 C 18.890625 12.035156 18.792969 12.144531 18.796875 12.273438 C 18.839844 12.4375 18.730469 13.078125 18.953125 13.148438 Z M 18.953125 13.148438 "/>
<path style=" stroke:none;fill-rule:nonzero;fill:rgb(32.941176%,55.294118%,78.431373%);fill-opacity:1;" d="M 14.6875 9.613281 C 14.691406 9.613281 15.769531 9.59375 15.769531 9.59375 C 15.890625 9.59375 15.992188 9.496094 16 9.371094 C 15.941406 9.023438 16.269531 8.222656 15.816406 8.164062 C 15.816406 8.164062 14.703125 8.164062 14.703125 8.164062 C 14.574219 8.164062 14.472656 8.269531 14.46875 8.394531 L 14.453125 9.375 C 14.449219 9.5 14.5625 9.613281 14.6875 9.613281 Z M 14.6875 9.613281 "/>
<path style=" stroke:none;fill-rule:nonzero;fill:rgb(32.941176%,55.294118%,78.431373%);fill-opacity:1;" d="M 14.582031 14.460938 C 14.71875 14.445312 15.683594 14.542969 15.792969 14.441406 C 15.992188 14.207031 15.839844 13.820312 15.886719 13.527344 C 15.886719 13.398438 15.785156 13.292969 15.65625 13.292969 C 15.65625 13.292969 14.625 13.28125 14.625 13.28125 C 14.496094 13.28125 14.390625 13.386719 14.390625 13.511719 C 14.425781 13.71875 14.234375 14.4375 14.582031 14.460938 Z M 14.582031 14.460938 "/>
<path style=" stroke:none;fill-rule:nonzero;fill:rgb(32.941176%,55.294118%,78.431373%);fill-opacity:1;" d="M 7.984375 13.460938 C 8.046875 13.59375 9.160156 13.484375 9.277344 13.507812 C 9.40625 13.507812 9.507812 13.402344 9.507812 13.273438 C 9.484375 13.144531 9.578125 12.101562 9.4375 12.027344 C 9.375 11.890625 8.242188 12.03125 8.125 12.007812 C 7.996094 12.011719 7.898438 12.117188 7.898438 12.246094 C 7.925781 12.371094 7.847656 13.390625 7.984375 13.460938 Z M 7.984375 13.460938 "/>
<path style=" stroke:none;fill-rule:nonzero;fill:rgb(32.941176%,55.294118%,78.431373%);fill-opacity:1;" d="M 9.4375 14.847656 C 9.375 14.710938 8.285156 14.820312 8.164062 14.796875 C 7.785156 14.785156 7.984375 15.539062 7.945312 15.746094 C 7.980469 16.125 8.628906 15.890625 8.859375 16.414062 C 9.011719 16.679688 9.421875 16.425781 9.503906 16.222656 C 9.636719 16.378906 9.894531 16.269531 10.058594 16.359375 C 10.171875 16.402344 10.304688 16.347656 10.351562 16.234375 C 10.484375 15.9375 10.753906 15.660156 11.050781 15.507812 C 11.121094 15.472656 11.167969 15.402344 11.179688 15.324219 C 11.394531 15.511719 11.585938 15.28125 11.824219 15.582031 C 12.15625 15.855469 12.300781 15.257812 12.605469 15.183594 C 12.824219 15.082031 12.742188 14.730469 12.5 14.738281 C 12.332031 14.785156 11.207031 14.640625 11.144531 14.878906 C 11.105469 14.808594 11.027344 14.757812 10.941406 14.757812 C 10.773438 14.804688 9.535156 14.660156 9.476562 14.902344 C 9.46875 14.882812 9.453125 14.863281 9.4375 14.847656 Z M 9.4375 14.847656 "/>
<path style=" stroke:none;fill-rule:nonzero;fill:rgb(32.941176%,55.294118%,78.431373%);fill-opacity:1;" d="M 3.898438 13.394531 C 4.011719 13.523438 4.539062 13.351562 4.675781 13.355469 C 5.03125 13.320312 4.824219 12.449219 4.878906 12.152344 C 4.882812 12.011719 4.75 11.894531 4.613281 11.917969 C 4.363281 12.007812 3.792969 11.839844 3.769531 12.230469 C 3.800781 12.363281 3.746094 13.320312 3.898438 13.394531 Z M 3.898438 13.394531 "/>
<path style=" stroke:none;fill-rule:nonzero;fill:rgb(32.941176%,55.294118%,78.431373%);fill-opacity:1;" d="M 4.792969 14.660156 C 4.597656 14.523438 4.3125 14.65625 4.097656 14.65625 C 3.976562 14.671875 3.886719 14.777344 3.894531 14.898438 L 3.941406 15.9375 C 3.949219 16.042969 4.019531 16.132812 4.121094 16.15625 C 4.347656 16.167969 4.511719 16.472656 4.742188 16.375 C 4.824219 16.335938 4.878906 16.25 4.875 16.160156 C 4.871094 15.832031 4.871094 15.382812 4.871094 14.832031 C 4.871094 14.765625 4.84375 14.703125 4.792969 14.660156 Z M 4.792969 14.660156 "/>
<path style=" stroke:none;fill-rule:nonzero;fill:rgb(58.039216%,60%,66.27451%);fill-opacity:1;" d="M 25.675781 10.539062 C 25.675781 10.539062 23.402344 10.476562 23.398438 10.476562 C 23.273438 10.476562 23.160156 10.585938 23.164062 10.710938 L 23.164062 14.679688 C 23.164062 14.800781 23.257812 14.902344 23.378906 14.910156 C 24.050781 14.941406 24.039062 15.414062 24.394531 15.511719 C 24.609375 15.449219 24.875 15.257812 25.050781 15.300781 C 25.289062 15.285156 25.695312 15.550781 25.742188 15.160156 C 25.742188 15.160156 25.90625 10.78125 25.90625 10.78125 C 25.910156 10.65625 25.804688 10.539062 25.675781 10.539062 Z M 25.675781 10.539062 "/>
<path style=" stroke:none;fill-rule:nonzero;fill:rgb(58.039216%,60%,66.27451%);fill-opacity:1;" d="M 18.574219 10.65625 C 18.445312 10.675781 17.605469 10.5625 17.519531 10.699219 C 17.472656 10.742188 17.449219 10.804688 17.449219 10.867188 L 17.515625 16.25 C 17.535156 16.5625 17.941406 16.457031 18.132812 16.605469 C 18.53125 16.753906 18.523438 16.101562 18.878906 15.992188 C 18.949219 15.945312 18.992188 15.867188 18.992188 15.78125 L 18.800781 10.878906 C 18.796875 10.757812 18.699219 10.65625 18.574219 10.65625 Z M 18.574219 10.65625 "/>
<path style=" stroke:none;fill-rule:nonzero;fill:rgb(0%,0%,0%);fill-opacity:1;" d="M 29.890625 18.457031 C 29.722656 18.164062 29.1875 17.984375 28.296875 17.855469 C 28.703125 16.566406 27.398438 15.472656 26.210938 15.992188 C 26.167969 15.757812 26.046875 15.558594 25.886719 15.40625 L 26.066406 10.582031 C 26.066406 10.527344 26.046875 10.472656 26.011719 10.433594 C 26.007812 10.28125 23.464844 10.351562 23.378906 10.304688 L 23.378906 9.457031 C 23.378906 9.347656 23.289062 9.253906 23.179688 9.253906 L 18.703125 9.152344 C 18.589844 9.148438 18.484375 9.25 18.492188 9.367188 L 18.535156 10.480469 L 17.664062 10.457031 L 17.636719 8.195312 C 17.636719 8.085938 17.542969 7.992188 17.429688 7.992188 L 16.636719 7.992188 L 16.648438 7.105469 C 16.652344 6.992188 16.550781 6.894531 16.4375 6.898438 C 16.4375 6.898438 14.007812 6.96875 14.007812 6.96875 C 13.488281 6.976562 13.667969 7.613281 13.734375 7.992188 C 13.617188 8.019531 12.832031 7.933594 12.757812 8.054688 C 12.703125 8.144531 12.707031 8.261719 12.707031 8.371094 C 12.699219 8.597656 12.710938 8.824219 12.722656 9.050781 L 12.796875 10.585938 C 12.3125 10.625 12.53125 10.605469 12.046875 10.644531 L 11.847656 8.734375 C 11.824219 8.511719 11.710938 8.453125 11.496094 8.457031 C 10.9375 8.46875 10.382812 8.480469 9.828125 8.492188 C 9.464844 8.5 8.808594 8.375 8.714844 8.863281 C 8.675781 9.078125 8.675781 10.710938 8.644531 10.710938 C 8.644531 10.710938 8.109375 10.722656 8.109375 10.722656 C 8.09375 10.554688 8.167969 10.183594 7.898438 10.191406 L 4.859375 10.191406 C 4.472656 10.15625 4.710938 11.492188 4.644531 11.734375 C 4.253906 11.847656 3.277344 11.769531 2.800781 11.984375 C 2.660156 12.046875 2.5625 12.1875 2.554688 12.34375 C 2.480469 13.664062 2.777344 15.023438 2.820312 16.339844 C 2.441406 16.679688 2.1875 17.167969 2.175781 17.667969 C 1.488281 17.769531 0.558594 17.570312 0.0976562 18.214844 C -0.03125 18.421875 -0.03125 18.660156 0.09375 18.890625 C 0.265625 19.09375 0.609375 18.980469 0.851562 19.03125 C 2.238281 20.371094 3.8125 21.882812 5.265625 23.21875 C 5.933594 23.832031 6.597656 24.203125 7.425781 24.058594 C 7.378906 24.402344 7.449219 24.769531 7.796875 24.90625 C 7.140625 25.960938 8.421875 26.433594 8.304688 27.308594 C 8.5 28.355469 9.960938 26.007812 9.101562 24.824219 C 9.671875 24.40625 9.308594 23.542969 9.375 22.964844 C 9.964844 22.441406 10.429688 22.136719 10.832031 21.976562 C 10.816406 22.519531 10.566406 23.351562 11.109375 23.628906 C 10.019531 25.308594 12.128906 25.582031 11.746094 26.445312 C 11.644531 26.632812 11.890625 26.835938 12.054688 26.703125 C 12.96875 26.007812 13.273438 24.699219 12.777344 23.667969 C 13.21875 23.4375 13.152344 23.136719 13.144531 22.34375 C 13.460938 22.472656 13.8125 22.597656 14.226562 22.691406 C 14.152344 23.429688 14.078125 23.746094 14.5 23.980469 C 13.636719 25.160156 14.972656 25.703125 14.832031 26.808594 C 14.804688 26.964844 14.984375 27.097656 15.125 27.023438 C 16.164062 26.542969 16.535156 24.992188 16.050781 23.996094 C 16.632812 23.726562 16.320312 22.882812 16.316406 22.371094 C 16.984375 22.011719 17.6875 21.898438 18.394531 22.199219 C 18.449219 22.785156 18.066406 23.609375 18.597656 24.070312 C 17.566406 25.328125 19.148438 25.921875 18.808594 26.941406 C 18.710938 27.132812 18.96875 27.328125 19.125 27.183594 C 19.972656 26.476562 20.507812 25.21875 20.082031 24.191406 C 20.421875 23.941406 20.222656 23.445312 20.277344 23.0625 C 23.292969 24.058594 25.792969 21.921875 27.871094 19.410156 C 27.886719 19.390625 27.914062 19.378906 27.941406 19.382812 C 28.675781 19.460938 30.457031 19.4375 29.890625 18.457031 Z M 26.140625 16.523438 C 27.074219 15.8125 28.28125 16.707031 27.878906 17.800781 C 24.964844 17.574219 21.851562 17.417969 18.898438 17.328125 C 18.859375 17.074219 18.746094 16.84375 18.578125 16.664062 C 18.679688 15.972656 19.789062 15.753906 20.183594 16.296875 C 20.242188 16.363281 20.332031 16.390625 20.414062 16.359375 C 20.726562 16.152344 20.371094 15.664062 21.148438 15.414062 C 21.929688 15.230469 21.875 15.773438 22.257812 15.835938 C 22.609375 15.675781 22.394531 15.121094 23.269531 15.082031 C 24.210938 15.058594 24.003906 16.164062 24.472656 15.757812 C 24.953125 15.152344 25.910156 15.5625 25.808594 16.328125 C 25.769531 16.511719 26.003906 16.648438 26.140625 16.523438 Z M 10.492188 16.335938 C 10.703125 15.828125 11.601562 15.085938 11.804688 15.996094 C 11.828125 16.09375 11.917969 16.164062 12.015625 16.15625 C 12.371094 16.121094 12.09375 15.269531 13.09375 15.25 C 13.777344 15.324219 13.34375 15.914062 13.710938 16.054688 C 14.078125 16.078125 13.960938 15.398438 14.65625 15.597656 C 14.910156 15.683594 15.128906 15.929688 15.035156 16.289062 C 14.96875 16.511719 15.300781 16.648438 15.410156 16.441406 C 15.75 15.867188 16.6875 16.1875 16.445312 16.871094 C 16.351562 17.097656 16.691406 17.261719 16.8125 17.050781 C 17.265625 16.375 18.261719 16.558594 18.480469 17.316406 C 15.949219 17.253906 13.414062 17.242188 10.882812 17.289062 C 10.9375 16.882812 10.746094 16.542969 10.492188 16.335938 Z M 10.871094 11.074219 L 10.882812 11.726562 L 9.675781 11.773438 L 9.679688 11.101562 Z M 10.886719 12.136719 L 10.90625 13.25 L 9.675781 13.269531 L 9.675781 12.183594 Z M 11.34375 15.167969 L 11.339844 14.984375 L 12.488281 14.972656 C 12.289062 15.070312 12.109375 15.222656 11.984375 15.417969 C 11.742188 15.164062 11.554688 15.160156 11.34375 15.167969 Z M 8.144531 13.699219 L 9.265625 13.683594 L 9.265625 14.601562 L 8.15625 14.617188 Z M 9.675781 13.679688 L 10.910156 13.660156 L 10.925781 14.582031 L 9.675781 14.597656 Z M 11.320312 13.652344 L 12.902344 13.628906 L 12.9375 14.554688 L 11.335938 14.574219 Z M 12.886719 13.222656 L 11.316406 13.246094 L 11.296875 12.121094 L 12.84375 12.0625 Z M 9.265625 13.273438 L 8.140625 13.292969 L 8.128906 12.242188 L 9.265625 12.199219 Z M 8.171875 15.742188 L 8.164062 15.027344 L 9.265625 15.011719 L 9.265625 16.171875 C 9.195312 16.203125 9.125 16.246094 9.058594 16.296875 C 8.871094 15.953125 8.511719 15.769531 8.171875 15.742188 Z M 9.675781 15.007812 L 10.929688 14.992188 L 10.9375 15.296875 C 10.597656 15.464844 10.285156 15.785156 10.128906 16.136719 C 9.988281 16.085938 9.832031 16.066406 9.675781 16.070312 Z M 15.804688 8.402344 C 15.785156 8.722656 15.765625 9.042969 15.75 9.363281 L 14.675781 9.378906 L 14.691406 8.402344 Z M 14.632812 12.203125 L 15.652344 12.183594 C 15.648438 12.496094 15.644531 12.804688 15.640625 13.113281 L 14.617188 13.105469 Z M 15.664062 11.773438 L 14.636719 11.792969 L 14.652344 10.972656 L 15.683594 10.976562 C 15.675781 11.242188 15.667969 11.507812 15.664062 11.773438 Z M 14.609375 13.515625 L 15.640625 13.523438 C 15.636719 13.769531 15.636719 14.011719 15.640625 14.253906 C 15.621094 14.25 14.617188 14.230469 14.597656 14.226562 Z M 15.699219 10.566406 L 14.65625 10.5625 L 14.667969 9.789062 L 15.730469 9.773438 C 15.71875 10.039062 15.707031 10.304688 15.699219 10.566406 Z M 14.59375 14.636719 C 14.621094 14.636719 15.613281 14.667969 15.640625 14.660156 C 15.644531 15.03125 15.648438 15.398438 15.65625 15.769531 C 15.582031 15.789062 15.503906 15.820312 15.433594 15.859375 C 15.3125 15.457031 14.964844 15.214844 14.585938 15.164062 Z M 21.035156 15.019531 C 20.773438 15.09375 20.554688 15.234375 20.398438 15.425781 L 20.410156 14.578125 L 21.46875 14.589844 L 21.46875 14.96875 C 21.328125 14.960938 21.183594 14.976562 21.035156 15.019531 Z M 19.144531 15.621094 L 19.101562 14.5625 L 20 14.574219 L 19.988281 15.664062 C 19.730469 15.566406 19.4375 15.546875 19.144531 15.621094 Z M 19.054688 13.347656 L 20.015625 13.328125 L 20.003906 14.164062 L 19.085938 14.152344 Z M 20.425781 13.316406 L 21.46875 13.292969 L 21.46875 14.179688 L 20.414062 14.167969 Z M 21.46875 12.882812 L 20.429688 12.90625 L 20.441406 12.207031 L 21.46875 12.164062 Z M 20.019531 12.917969 L 19.039062 12.9375 L 19.015625 12.265625 L 20.03125 12.222656 Z M 21.46875 11.753906 L 20.445312 11.796875 L 20.453125 11.105469 L 21.46875 11.085938 Z M 20.035156 11.8125 L 19 11.855469 L 18.972656 11.128906 L 20.042969 11.113281 Z M 25.648438 10.773438 L 25.484375 15.148438 C 25.148438 15.015625 24.714844 15.019531 24.375 15.277344 C 24.171875 14.929688 23.8125 14.710938 23.378906 14.675781 L 23.378906 10.714844 Z M 22.96875 9.65625 L 22.96875 14.703125 C 22.628906 14.773438 22.347656 14.96875 22.171875 15.25 C 22.082031 15.171875 21.984375 15.109375 21.878906 15.0625 L 21.878906 10.878906 C 21.882812 10.769531 21.78125 10.667969 21.671875 10.671875 L 18.957031 10.71875 L 18.910156 9.566406 Z M 18.550781 10.890625 L 18.738281 15.789062 C 18.5 15.933594 18.324219 16.144531 18.226562 16.398438 C 18.082031 16.316406 17.90625 16.261719 17.734375 16.242188 L 17.667969 10.867188 Z M 17.324219 16.253906 C 17.160156 16.28125 17.007812 16.339844 16.871094 16.425781 C 16.765625 16.050781 16.433594 15.804688 16.066406 15.75 C 16.015625 13.308594 16.066406 10.839844 16.214844 8.402344 L 17.230469 8.402344 Z M 14.054688 7.378906 L 16.238281 7.3125 L 16.226562 7.992188 L 14.148438 7.992188 Z M 14.28125 8.402344 L 14.171875 15.199219 C 14.066406 15.230469 13.964844 15.28125 13.871094 15.351562 C 13.773438 15.125 13.597656 14.960938 13.359375 14.882812 L 13.117188 8.402344 Z M 12.828125 11.652344 L 11.292969 11.710938 L 11.28125 11.066406 L 12.804688 11.039062 Z M 9.121094 8.960938 L 11.449219 8.878906 L 11.636719 10.652344 L 9.054688 10.703125 Z M 9.269531 11.109375 L 9.265625 11.789062 L 8.121094 11.832031 L 8.113281 11.128906 Z M 7.761719 15.777344 C 7.585938 15.824219 7.417969 15.910156 7.28125 16.046875 C 7.230469 15.933594 7.167969 15.832031 7.097656 15.742188 C 7.101562 15.734375 7.046875 10.613281 7.050781 10.601562 L 7.695312 10.601562 Z M 6.140625 15.324219 C 6.089844 13.753906 6.105469 12.167969 6.175781 10.601562 L 6.640625 10.601562 L 6.683594 15.417969 C 6.523438 15.34375 6.328125 15.308594 6.140625 15.324219 Z M 5.0625 10.601562 L 5.765625 10.601562 C 5.691406 12.199219 5.679688 13.820312 5.734375 15.417969 C 5.472656 15.523438 5.234375 15.707031 5.042969 15.945312 C 5.039062 14.71875 5.050781 12.375 5.0625 10.601562 Z M 4.171875 15.925781 L 4.125 14.886719 C 4.292969 14.863281 4.460938 14.84375 4.632812 14.828125 C 4.632812 15.4375 4.632812 15.859375 4.636719 16.160156 C 4.5 16.042969 4.34375 15.964844 4.171875 15.925781 Z M 3.089844 14.652344 C 3.058594 14.363281 3.027344 14.074219 3 13.785156 L 3.65625 13.683594 L 3.695312 14.535156 C 3.492188 14.570312 3.289062 14.609375 3.089844 14.652344 Z M 4.066406 13.625 L 4.632812 13.539062 C 4.632812 13.863281 4.632812 14.15625 4.632812 14.417969 C 4.457031 14.433594 4.28125 14.453125 4.105469 14.476562 Z M 4.636719 13.125 L 4.046875 13.210938 L 4 12.21875 C 4.210938 12.199219 4.429688 12.183594 4.640625 12.152344 C 4.640625 12.5 4.636719 12.824219 4.636719 13.125 Z M 2.964844 12.363281 C 3.164062 12.308594 3.371094 12.277344 3.589844 12.253906 L 3.636719 13.273438 L 2.972656 13.375 C 2.949219 13.03125 2.945312 12.691406 2.964844 12.363281 Z M 3.132812 15.0625 C 3.328125 15.019531 3.519531 14.980469 3.714844 14.949219 L 3.761719 15.898438 C 3.574219 15.917969 3.386719 15.980469 3.21875 16.066406 C 3.199219 15.734375 3.167969 15.394531 3.132812 15.0625 Z M 3.710938 16.324219 C 4.191406 16.203125 4.496094 16.53125 4.738281 16.964844 C 5.230469 17.277344 4.96875 15.832031 6.230469 15.730469 C 6.628906 15.730469 6.910156 16.03125 7.019531 16.570312 C 7.054688 16.773438 7.359375 16.789062 7.417969 16.59375 C 7.675781 15.917969 8.648438 16.015625 8.769531 16.730469 C 8.78125 16.816406 8.847656 16.886719 8.933594 16.90625 C 9.019531 16.921875 9.105469 16.882812 9.152344 16.808594 C 9.585938 16.152344 10.550781 16.53125 10.484375 17.296875 C 7.847656 17.351562 5.210938 17.464844 2.585938 17.640625 C 2.625 16.980469 3.1875 16.433594 3.710938 16.324219 Z M 8.964844 23.320312 C 8.980469 23.605469 9.046875 23.957031 9 24.234375 C 8.972656 24.386719 8.847656 24.5 8.695312 24.511719 C 8.503906 24.527344 8.308594 24.535156 8.113281 24.527344 C 7.757812 24.515625 7.792969 24.261719 7.867188 23.941406 C 8.234375 23.816406 8.601562 23.605469 8.964844 23.320312 Z M 8.683594 24.921875 C 9.0625 25.492188 9.046875 26.269531 8.6875 26.839844 C 8.46875 26.144531 7.621094 25.695312 8.273438 24.925781 C 8.40625 24.921875 8.546875 24.929688 8.683594 24.921875 Z M 12.726562 22.167969 C 12.839844 23.683594 12.597656 23.320312 11.417969 23.269531 C 10.949219 23.25 11.28125 22.265625 11.242188 21.898438 C 11.242188 21.878906 11.257812 21.859375 11.277344 21.859375 C 11.78125 21.785156 12.207031 21.953125 12.726562 22.167969 Z M 12.179688 25.996094 C 12.0625 25.609375 11.71875 25.335938 11.453125 25.101562 C 11.082031 24.714844 11.1875 23.972656 11.636719 23.691406 C 11.875 23.707031 12.164062 23.730469 12.347656 23.730469 C 12.742188 24.433594 12.660156 25.351562 12.179688 25.996094 Z M 14.988281 22.8125 C 15.316406 22.816406 15.625 22.679688 15.914062 22.554688 C 15.917969 22.925781 16.234375 23.644531 15.660156 23.640625 C 14.726562 23.632812 14.4375 23.910156 14.628906 22.765625 C 14.746094 22.785156 14.863281 22.808594 14.988281 22.8125 Z M 15.757812 25.628906 C 15.65625 25.96875 15.480469 26.253906 15.246094 26.453125 C 15.183594 25.5 14.074219 24.964844 14.980469 24.046875 C 15.195312 24.046875 15.378906 24.042969 15.621094 24.050781 C 15.867188 24.496094 15.917969 25.097656 15.757812 25.628906 Z M 19.273438 26.449219 C 19.117188 25.613281 18.179688 25.140625 18.992188 24.234375 C 19.21875 24.261719 19.464844 24.242188 19.675781 24.285156 C 19.921875 24.847656 19.871094 25.699219 19.273438 26.449219 Z M 19.863281 23.28125 C 19.855469 23.960938 19.996094 23.828125 19.304688 23.84375 C 18.410156 23.859375 18.8125 22.914062 18.804688 22.371094 C 19.15625 22.539062 19.507812 22.726562 19.867188 22.890625 C 19.867188 23.003906 19.867188 23.144531 19.863281 23.28125 Z M 24.503906 22.019531 C 20.652344 24.308594 20.003906 21.433594 17.210938 21.632812 C 16.53125 21.679688 15.953125 22.160156 15.316406 22.339844 C 15.140625 22.386719 14.953125 22.398438 14.773438 22.371094 C 12.308594 22.003906 11.640625 20.238281 8.933594 22.8125 C 8.253906 23.417969 7.53125 23.726562 6.898438 23.679688 C 6.394531 23.648438 6.011719 23.3125 5.554688 22.925781 C 4.1875 21.78125 2.785156 20.304688 1.476562 19.070312 C 3.417969 19.179688 5.382812 19.242188 7.347656 19.277344 C 7.273438 20.429688 8.574219 21.214844 9.632812 21.03125 C 10.597656 20.9375 11.601562 20.265625 12.546875 20.566406 C 13.21875 20.804688 13.746094 21.496094 14.527344 21.484375 C 15.230469 21.492188 15.804688 20.929688 16.464844 20.835938 C 17.027344 20.761719 17.625 21.09375 18.183594 21.257812 C 19.925781 21.808594 22.058594 20.957031 22.835938 19.285156 C 24.359375 19.292969 25.878906 19.3125 27.386719 19.351562 C 26.371094 20.5625 25.425781 21.4375 24.503906 22.019531 Z M 7.757812 19.285156 C 12.6875 19.359375 17.476562 19.265625 22.390625 19.285156 C 21.589844 20.652344 19.824219 21.347656 18.304688 20.867188 C 17.6875 20.679688 17.089844 20.339844 16.414062 20.425781 C 15.726562 20.496094 15.132812 21.097656 14.464844 21.074219 C 13.816406 21.019531 13.3125 20.375 12.675781 20.179688 C 11.597656 19.824219 10.597656 20.507812 9.574219 20.625 C 8.738281 20.722656 7.746094 20.285156 7.757812 19.285156 Z M 29.527344 18.761719 C 29.519531 18.890625 29.347656 18.949219 29.214844 18.960938 C 28.910156 18.988281 28.609375 18.984375 28.304688 18.976562 C 26.152344 18.976562 23.996094 18.867188 21.84375 18.847656 C 20.347656 18.835938 18.851562 18.871094 17.355469 18.878906 C 15.578125 18.890625 13.800781 18.902344 12.023438 18.902344 C 10.246094 18.90625 8.46875 18.894531 6.695312 18.859375 C 4.925781 18.820312 3.152344 18.757812 1.386719 18.65625 C 1.085938 18.636719 0.785156 18.621094 0.484375 18.601562 C 0.441406 18.597656 0.410156 18.554688 0.417969 18.511719 C 0.46875 18.246094 0.90625 18.148438 1.15625 18.148438 C 3.292969 17.992188 5.429688 17.871094 7.570312 17.792969 C 9.714844 17.710938 11.863281 17.671875 14.011719 17.671875 C 16.15625 17.671875 18.300781 17.710938 20.449219 17.789062 C 22.5625 17.867188 24.679688 17.980469 26.789062 18.121094 C 27.402344 18.164062 28.015625 18.222656 28.621094 18.324219 C 28.875 18.367188 29.128906 18.421875 29.355469 18.539062 C 29.441406 18.585938 29.527344 18.652344 29.53125 18.746094 C 29.53125 18.753906 29.53125 18.757812 29.527344 18.761719 Z M 29.527344 18.761719 "/>
<path style=" stroke:none;fill-rule:nonzero;fill:rgb(0%,0%,0%);fill-opacity:1;" d="M 19.066406 8.035156 C 20.910156 8.316406 22.851562 8.085938 24.714844 8.09375 C 24.8125 8.09375 24.894531 8.027344 24.914062 7.929688 C 25.136719 7.042969 24.695312 5.777344 23.195312 6.550781 C 23.117188 5.96875 22.664062 4.921875 21.828125 5.070312 C 20.878906 5.234375 20.195312 5.46875 20.289062 6.394531 C 18.738281 5.636719 17.585938 7.808594 19.066406 8.035156 Z M 19.070312 6.789062 C 19.738281 6.230469 20.917969 7.4375 20.777344 6.703125 C 20.707031 6.335938 20.65625 6.089844 20.761719 5.921875 C 20.929688 5.652344 21.402344 5.550781 21.886719 5.476562 C 22.578125 5.363281 22.796875 6.535156 22.832031 6.882812 C 22.953125 7.59375 24.660156 5.636719 24.539062 7.683594 C 22.746094 7.675781 20.890625 7.878906 19.117188 7.628906 C 18.679688 7.566406 18.761719 7.054688 19.070312 6.789062 Z M 19.070312 6.789062 "/>
<path style=" stroke:none;fill-rule:nonzero;fill:rgb(0%,0%,0%);fill-opacity:1;" d="M 11.859375 5.410156 C 13.703125 5.691406 15.644531 5.457031 17.507812 5.46875 C 17.605469 5.46875 17.6875 5.398438 17.707031 5.304688 C 17.929688 4.410156 17.492188 3.15625 15.988281 3.925781 C 15.910156 3.339844 15.457031 2.296875 14.621094 2.441406 C 13.671875 2.609375 12.988281 2.839844 13.078125 3.765625 C 11.53125 3.011719 10.378906 5.183594 11.859375 5.410156 Z M 11.863281 4.164062 C 12.53125 3.605469 13.710938 4.808594 13.570312 4.078125 C 13.5 3.707031 13.449219 3.464844 13.554688 3.292969 C 13.722656 3.023438 14.195312 2.925781 14.679688 2.847656 C 15.371094 2.738281 15.589844 3.910156 15.625 4.253906 C 15.746094 4.964844 17.453125 3.011719 17.332031 5.058594 C 15.539062 5.050781 13.683594 5.253906 11.910156 5 C 11.472656 4.941406 11.550781 4.425781 11.863281 4.164062 Z M 11.863281 4.164062 "/>
<path style=" stroke:none;fill-rule:nonzero;fill:rgb(0%,0%,0%);fill-opacity:1;" d="M 4.222656 7.609375 C 6.066406 7.894531 8.007812 7.660156 9.871094 7.667969 C 9.96875 7.667969 10.050781 7.601562 10.070312 7.503906 C 10.292969 6.613281 9.855469 5.359375 8.351562 6.128906 C 8.273438 5.542969 7.816406 4.472656 6.984375 4.644531 C 6.03125 4.785156 5.351562 5.042969 5.441406 5.96875 C 3.894531 5.210938 2.742188 7.382812 4.222656 7.609375 Z M 4.226562 6.363281 C 4.894531 5.808594 6.074219 7.011719 5.933594 6.277344 C 5.863281 5.910156 5.8125 5.664062 5.917969 5.496094 C 6.085938 5.226562 6.558594 5.121094 7.042969 5.050781 C 7.730469 4.933594 7.953125 6.109375 7.988281 6.457031 C 8.109375 7.167969 9.816406 5.214844 9.691406 7.257812 C 7.902344 7.25 6.046875 7.453125 4.273438 7.203125 C 3.835938 7.140625 3.914062 6.628906 4.226562 6.363281 Z M 4.226562 6.363281 "/>
</g>
</svg>
