<svg id="Layer_1" enable-background="new 0 0 512.001 512.001" height="512" viewBox="0 0 512.001 512.001" width="512" xmlns="http://www.w3.org/2000/svg"><g><g><path d="m30 67.563h452v406.874h-452z" fill="#ecf5ff"/><path d="m452 67.564h30v406.874h-30z" fill="#dceafc"/><path d="m17.5 7.501h477c5.523 0 10 4.487 10 10.021v40.021c0 5.534-4.477 10.021-10 10.021h-477c-5.523 0-10-4.487-10-10.021v-40.021c0-5.535 4.478-10.021 10-10.021z" fill="#bee49d"/><path d="m494.5 7.501h-30c5.523 0 10 4.486 10 10.021v40.021c0 5.534-4.477 10.021-10 10.021h30c5.523 0 10-4.487 10-10.021v-40.021c0-5.535-4.477-10.021-10-10.021z" fill="#a3d8a4"/><path d="m213.331 474.438h-153.331v-279.288c0-5.523 4.477-10 10-10h133.33c5.523 0 10 4.477 10 10v279.288z" fill="#4f6d8f"/><path d="m203.331 185.149h-30c5.523 0 10 4.477 10 10v279.288h30v-279.288c0-5.522-4.477-10-10-10z" fill="#455e7e"/><path d="m452 474.438h-153.33v-279.288c0-5.523 4.477-10 10-10h133.33c5.523 0 10 4.477 10 10z" fill="#4f6d8f"/><path d="m442 185.149h-30c5.523 0 10 4.477 10 10v279.288h30v-279.288c0-5.522-4.477-10-10-10z" fill="#455e7e"/><path d="m17.5 474.438h477c5.523 0 10 4.487 10 10.021v10.021c0 5.534-4.477 10.021-10 10.021h-477c-5.523 0-10-4.487-10-10.021v-10.021c0-5.535 4.478-10.021 10-10.021z" fill="#bee49d"/><path d="m494.5 474.438h-30c5.523 0 10 4.487 10 10.021v10.021c0 5.535-4.477 10.021-10 10.021h30c5.523 0 10-4.486 10-10.021v-10.021c0-5.535-4.477-10.021-10-10.021z" fill="#a3d8a4"/></g><path d="m187.403 90.206c-4.063.804-6.706 4.749-5.902 8.813l11.386 57.562c.801 4.01 4.538 6.933 8.6 6.922h.063c3.807-.025 7.226-2.526 8.35-6.177l10.613-34.289 10.566 34.296c1.131 3.664 4.59 6.172 8.41 6.169h.06c4.066-.015 7.731-2.919 8.545-6.931l11.431-57.437c.808-4.063-1.83-8.011-5.892-8.819-4.065-.815-8.011 1.829-8.82 5.892l-6.621 33.269-10.511-34.12c-1.219-3.959-5.417-6.181-9.375-4.96-2.683.827-4.563 3.022-5.119 5.583l-10.369 33.501-6.601-33.372c-.805-4.063-4.753-6.705-8.814-5.902zm324.597-32.663v-40.022c0-9.661-7.851-17.521-17.5-17.521h-477c-9.649.001-17.5 7.86-17.5 17.521v40.021c-.084 11.722 11.318 19.343 22.5 17.521v391.875c-11.323-1.506-22.52 5.437-22.5 17.521v10.021c0 9.661 7.851 17.52 17.5 17.52h477c9.649 0 17.5-7.859 17.5-17.52v-10.021c.014-12.017-11.221-19.196-22.5-17.521v-391.875c10.995 1.028 22.603-5.103 22.5-17.52zm-17.5 424.395c1.378 0 2.5 1.131 2.5 2.521v10.021c0 1.39-1.122 2.521-2.5 2.521h-477c-1.378 0-2.5-1.131-2.5-2.521v-10.021c0-1.39 1.122-2.521 2.5-2.521zm-427-15v-271.788c0-1.379 1.122-2.5 2.5-2.5h133.331c1.378 0 2.5 1.121 2.5 2.5v271.788zm139.327-391.875h267.673v391.875h-15v-101.723c0-4.143-3.358-7.5-7.5-7.5s-7.5 3.357-7.5 7.5v101.723h-138.33v-271.788c0-1.379 1.122-2.5 2.5-2.5h133.33c1.378 0 2.5 1.121 2.5 2.5v135.065c0 4.143 3.358 7.5 7.5 7.5s7.5-3.357 7.5-7.5v-135.065c0-9.649-7.851-17.5-17.5-17.5h-133.33c-9.649 0-17.5 7.851-17.5 17.5v271.788h-70.339v-271.788c0-9.649-7.851-17.5-17.5-17.5h-133.331c-9.649 0-17.5 7.851-17.5 17.5v271.788h-15v-391.875h134.326c4.142 0 7.5-3.357 7.5-7.5s-3.358-7.5-7.5-7.5h-154.326c-1.378 0-2.5-1.131-2.5-2.521v-40.021c0-1.39 1.122-2.521 2.5-2.521h477c1.378 0 2.5 1.131 2.5 2.521v40.021c0 1.39-1.122 2.521-2.5 2.521h-287.673c-4.142 0-7.5 3.357-7.5 7.5s3.358 7.5 7.5 7.5zm-116.827 234.052c-4.142 0-7.5 3.357-7.5 7.5v26.358c0 4.143 3.358 7.5 7.5 7.5s7.5-3.357 7.5-7.5v-26.358c0-4.143-3.357-7.5-7.5-7.5zm238.67 0c-4.142 0-7.5 3.357-7.5 7.5v26.358c0 4.143 3.358 7.5 7.5 7.5s7.5-3.357 7.5-7.5v-26.358c0-4.143-3.358-7.5-7.5-7.5zm-23.935-145.613c8.099 0 15.369-2.663 21.023-7.7 1.109-.987 2.162-2.073 3.131-3.229 2.662-3.173 2.247-7.904-.927-10.565-3.174-2.663-7.905-2.247-10.566.927-.502.599-1.045 1.159-1.614 1.665-2.907 2.59-6.624 3.902-11.047 3.902-11.976 0-21.719-9.743-21.719-21.719 0-11.977 9.743-21.72 21.719-21.72 4.353 0 8.55 1.281 12.138 3.705 3.433 2.317 8.095 1.416 10.414-2.017 2.319-3.432 1.416-8.094-2.016-10.413-6.077-4.105-13.178-6.275-20.535-6.275-20.247 0-36.719 16.473-36.719 36.72s16.471 36.719 36.718 36.719z" fill="#1e1d21"/></g></svg>