<svg id="Capa_1" enable-background="new 0 0 511 511" height="512" viewBox="0 0 511 511" width="512" xmlns="http://www.w3.org/2000/svg"><g><g id="Filled_1_"><path d="m20.5 183.5h470v290h-470z" fill="#e46a4a"/><path d="m20.5 443.5h470v30h-470z" fill="#db380e"/><path d="m7.5 473.5h496v30h-496z" fill="#e4e8ed"/><path d="m220.5 186.5c0 19.33-15.67 35-35 35-19.33 0-35-15.67-35-35 0 19.33-15.67 35-35 35-19.33 0-35-15.67-35-35 0 19.33-15.67 35-35 35-19.33 0-35-15.67-35-35v-25l45-84h400l45 84v25c0 19.33-15.67 35-35 35-19.33 0-35-15.67-35-35 0 19.33-15.67 35-35 35-19.33 0-35-15.67-35-35 0 19.33-15.67 35-35 35-19.33 0-35-15.67-35-35 0 19.33-15.67 35-35 35-19.33 0-35-15.67-35-35z" fill="#faef93"/><path d="m465.5 191.5c-19.33 0-35-15.67-35-35 0 19.33-15.67 35-35 35-19.33 0-35-15.67-35-35 0 19.33-15.67 35-35 35-19.33 0-35-15.67-35-35 0 19.33-15.67 35-35 35-19.33 0-35-15.67-35-35 0 19.33-15.67 35-35 35-19.33 0-35-15.67-35-35 0 19.33-15.67 35-35 35-19.33 0-35-15.67-35-35 0 19.33-15.67 35-35 35-17.835 0-32.543-13.343-34.714-30.589l-.286.589v25c0 19.33 15.67 35 35 35 19.33 0 35-15.67 35-35 0 19.33 15.67 35 35 35 19.33 0 35-15.67 35-35 0 19.33 15.67 35 35 35 19.33 0 35-15.67 35-35 0 19.33 15.67 35 35 35 19.33 0 35-15.67 35-35 0 19.33 15.67 35 35 35 19.33 0 35-15.67 35-35 0 19.33 15.67 35 35 35 19.33 0 35-15.67 35-35 0 19.33 15.67 35 35 35 19.33 0 35-15.67 35-35v-25l-.283-.616c-2.158 17.259-16.873 30.616-34.717 30.616z" fill="#f8e868"/><g fill="#fff"><path d="m166.5 77.5-16 84v25c0 19.33-15.67 35-35 35-19.33 0-35-15.67-35-35v-25l26-84z"/><path d="m286.5 77.5 4 84v25c0 19.33-15.67 35-35 35-19.33 0-35-15.67-35-35v-25l6-84z"/><path d="m406.5 77.5 24 84v25c0 19.33-15.67 35-35 35-19.33 0-35-15.67-35-35v-25l-14-84z"/></g><g fill="#eaeaeb"><path d="m150.728 160.447c-.146-1.297-.228-2.612-.228-3.947 0 19.33-15.67 35-35 35-17.892 0-32.638-13.429-34.735-30.755l-.265.755v25c0 19.33 15.67 35 35 35 19.33 0 35-15.67 35-35v-25z"/><path d="m290.38 159.28c-1.418 18.029-16.487 32.22-34.88 32.22-18.263 0-33.252-13.991-34.851-31.838l-.149 1.838v25c0 19.33 15.67 35 35 35 19.33 0 35-15.67 35-35v-25z"/><path d="m430.24 160.699c-2.076 17.349-16.833 30.801-34.74 30.801-19.33 0-35-15.67-35-35 0 1.304-.077 2.59-.216 3.857l.216 1.143v25c0 19.33 15.67 35 35 35 19.33 0 35-15.67 35-35v-25z"/></g><path d="m55.5 7.5h400v70h-400z" fill="#faef93"/><path d="m55.5 47.5h400v30h-400z" fill="#f8e868"/><path d="m20.5 343.5h170v130h-170z" fill="#dba999"/><path d="m20.5 443.5h170v30h-170z" fill="#d29380"/><path d="m60.5 283.5h100v60h-100z" fill="#e4e8ed"/><path d="m60.5 313.5h100v30h-100z" fill="#c8d1da"/><path d="m273.5 403.5h40v40h-40z" fill="#c4e5f9"/><path d="m293.5 324.5c-11.046 0-20 8.954-20 20v24h40v-24c0-11.046-8.954-20-20-20z" fill="#faef93"/><path d="m273.5 259.5h45v34h-45z" fill="#faef93"/><path d="m318.5 259.5h45v34h-45z" fill="#c4e5f9"/><path d="m363.5 259.5h45v34h-45z" fill="#faef93"/><path d="m408.5 259.5h45v34h-45z" fill="#c4e5f9"/><path d="m333.5 324.5c-11.046 0-20 8.954-20 20v24h40v-24c0-11.046-8.954-20-20-20z" fill="#faef93"/><path d="m373.5 324.5c-11.046 0-20 8.954-20 20v24h40v-24c0-11.046-8.954-20-20-20z" fill="#faef93"/><path d="m313.5 403.5h40v40h-40z" fill="#c4e5f9"/><path d="m408.5 403.5h40v40h-40z" fill="#c4e5f9"/></g><g id="Outline_1_"><path d="m498 466v-252.155c6.233-7.397 10-16.937 10-27.345v-26.882l-21.023-39.245-13.223 7.083 14.22 26.544h-51.817l-19.714-69h34.566l15.661 29.234 13.222-7.083-16.892-31.534v-75.617h-142.5v15h127.5v55h-385v-55h242.5v-15h-257.5v75.617l-45 84v26.883c0 10.408 3.767 19.948 10 27.345v54.655h15v-43.286c5.341 2.424 11.263 3.786 17.5 3.786 14.504 0 27.327-7.307 35-18.429 7.673 11.122 20.496 18.429 35 18.429s27.327-7.307 35-18.429c7.673 11.122 20.496 18.429 35 18.429s27.327-7.307 35-18.429c7.673 11.122 20.496 18.429 35 18.429s27.327-7.307 35-18.429c7.673 11.122 20.496 18.429 35 18.429s27.327-7.307 35-18.429c7.673 11.122 20.496 18.429 35 18.429s27.327-7.307 35-18.429c7.673 11.122 20.496 18.429 35 18.429 6.237 0 12.159-1.362 17.5-3.786v60.786h-22v-34h-195v34h-25.5v15h25.5 195 22v60h-17v-42.5h-15v42.5h-15v-42.5h-15v42.5h-20v-16.5c0-15.164-12.336-27.5-27.5-27.5-7.875 0-14.982 3.332-20 8.655-5.018-5.323-12.125-8.655-20-8.655s-14.982 3.332-20 8.655c-5.018-5.323-12.125-8.655-20-8.655-15.164 0-27.5 12.336-27.5 27.5v16.5h-25.5v15h25.5 40 15 25 15 40 82v60h-27v-40h-55v40h-40v-40h-95v40h-25.5v15h25.5 8v15h-76v-130h-30v-60h-20v-15h17.5v-15h-50v15h17.5v15h-80v60h-25v-52.5h-15v182.5h-13v45h78.5v-15h-63.5v-15h301.5v-15h-27.5v-15h72 40 33v15h-102.5v15h164.5v15h-402.5v15h417.5v-45zm-425-279.5c0 15.164-12.336 27.5-27.5 27.5s-27.5-12.336-27.5-27.5v-17.5h55zm1.97-32.5h-51.944l36.964-69h36.337zm68.03 32.5c0 15.164-12.336 27.5-27.5 27.5s-27.5-12.336-27.5-27.5v-17.5h55zm1.294-32.5h-53.622l21.357-69h45.407zm68.706 32.5c0 15.164-12.336 27.5-27.5 27.5s-27.5-12.336-27.5-27.5v-17.5h55zm.517-32.5h-53.953l13.143-69h45.739zm19.966-69h45.865l3.286 69h-54.079zm49.517 101.5c0 15.164-12.336 27.5-27.5 27.5s-27.5-12.336-27.5-27.5v-17.5h55zm11.366-101.5h45.781l11.5 69h-53.995zm58.634 101.5c0 15.164-12.336 27.5-27.5 27.5s-27.5-12.336-27.5-27.5v-17.5h55zm2.353-101.5h45.489l19.714 69h-53.704zm67.647 101.5c0 15.164-12.336 27.5-27.5 27.5s-27.5-12.336-27.5-27.5v-17.5h55zm-112 99.5h-30v-19h30zm45 0h-30v-19h30zm45 0h-30v-19h30zm45 0h-30v-19h30zm-140 75h-25v-16.5c0-6.893 5.607-12.5 12.5-12.5s12.5 5.607 12.5 12.5zm40 0h-25v-16.5c0-6.893 5.607-12.5 12.5-12.5s12.5 5.607 12.5 12.5zm40 0h-25v-16.5c0-6.893 5.607-12.5 12.5-12.5s12.5 5.607 12.5 12.5zm-318-70h85v45h-85zm115 115h-32.5v15h32.5v15h-52.5v15h52.5v15h-155v-115h155zm123 30h-25v-25h25zm40 0h-25v-25h25zm95 0h-25v-25h25zm42 30h-34v-15h7 27zm10-279.5c0 15.164-12.336 27.5-27.5 27.5s-27.5-12.336-27.5-27.5v-17.5h55z"/></g><g fill="#fff"><path d="m100.5 436h15v15h-15z"/><path d="m70.5 436h15v15h-15z"/><path d="m293 50h-15v-15h15zm-30 0h-15v-15h15zm-30 0h-15v-15h15z"/></g></g></svg>