<svg height="512pt" viewBox="0 -13 512 512" width="512pt" xmlns="http://www.w3.org/2000/svg"><path d="m212.488281 222.199219h143.691407v248.824219h-143.691407zm0 0" fill="#fe8d7d"/><path d="m284.339844 207.222656h71.839844v263.800782h-71.839844zm0 0" fill="#ee5454"/><path d="m299.339844 272.527344v15.25c0 8.277344-6.71875 14.976562-15 14.976562-8.289063 0-15-6.699218-15-14.976562v-15.25c0-8.277344 6.710937-14.976563 15-14.976563 8.28125 0 15 6.699219 15 14.976563zm0 0" fill="#fff"/><path d="m299.339844 337.433594v15.25c0 8.277344-6.71875 14.976562-15 14.976562-8.289063 0-15-6.699218-15-14.976562v-15.25c0-8.277344 6.710937-14.976563 15-14.976563 8.28125 0 15 6.699219 15 14.976563zm0 0" fill="#fff"/><path d="m299.339844 413.753906v42.019532c0 8.277343-6.71875 14.980468-15 14.980468-8.289063 0-15-6.703125-15-14.980468v-42.019532c0-8.265625 6.710937-14.976562 15-14.976562 8.28125 0 15 6.710937 15 14.976562zm0 0" fill="#fff49c"/><path d="m299.339844 413.753906v42.019532c0 8.277343-6.71875 14.980468-15 14.980468v-71.976562c8.28125 0 15 6.710937 15 14.976562zm0 0" fill="#fee276"/><path d="m356.179688 222.199219c0 8.269531-6.71875 14.976562-15 14.976562h-133.691407c-8.277343 0-15-6.707031-15-14.976562 0-8.277344 6.722657-14.976563 15-14.976563h133.691407c8.28125 0 15 6.699219 15 14.976563zm0 0" fill="#d9eeff"/><path d="m356.179688 222.199219c0 8.269531-6.71875 14.976562-15 14.976562h-56.839844v-29.957031h56.839844c8.28125.003906 15 6.703125 15 14.980469zm0 0" fill="#b0e3fc"/><path d="m178.25 263.550781v207.203125h-158.25v-207.203125c0-13.96875 1.199219-27.789062 3.539062-41.351562 7.851563-45.355469 28.519532 2.316406 60.121094-32.132813 3.960938-4.324218 9.601563-6.800781 15.460938-6.800781h.007812c5.871094 0 11.5 2.476563 15.460938 6.789063v.011718c31.601562 34.449219 52.269531-13.21875 60.121094 32.132813 2.339843 13.5625 3.539062 27.382812 3.539062 41.351562zm0 0" fill="#1b6aa6"/><path d="m178.25 263.550781v207.203125h-79.121094v-287.488281c5.871094 0 11.5 2.476563 15.460938 6.789063v.011718c31.601562 34.449219 52.269531-13.222656 60.121094 32.132813 2.339843 13.5625 3.539062 27.382812 3.539062 41.351562zm0 0" fill="#173755"/><path d="m491.640625 33.832031v436.917969h-165.460937v-405.894531c0-1.316407.101562-2.613281.308593-3.894531 1.511719-9.714844 8.640625-14.851563 18.371094-17.480469l64.050781-17.285157 50.851563-13.730468c7.660156-2.066406 15.667969-3.488282 21.96875 1.324218 1.597656 1.21875 3.03125 2.609376 4.257812 4.117188 3.640625 4.453125 5.652344 10.011719 5.652344 15.925781zm0 0" fill="#1b6aa6"/><path d="m491.640625 33.832031v436.917969h-82.730469v-444.554688l50.851563-13.730468c7.660156-2.066406 15.667969-3.488282 21.96875 1.324218 1.597656 1.21875 3.03125 2.609376 4.257812 4.117188 3.640625 4.453125 5.652344 10.011719 5.652344 15.925781zm0 0" fill="#173755"/><path d="m491.640625 33.832031v33.949219l-82.730469 22.339844-82.730468 22.328125v-47.59375c0-1.316407.101562-2.613281.308593-3.894531l82.421875-22.246094 77.078125-20.808594c3.640625 4.453125 5.652344 10.011719 5.652344 15.925781zm0 0" fill="#fff49c"/><path d="m491.640625 33.832031v33.949219l-82.730469 22.339844v-51.40625l77.078125-20.8125c3.640625 4.457031 5.652344 10.015625 5.652344 15.929687zm0 0" fill="#fee276"/><path d="m500.710938 29.4375-91.761719 24.773438-83.929688 22.65625c-1.308593.359374-2.621093.53125-3.917969.53125-6.613281 0-12.660156-4.394532-14.472656-11.074219-2.160156-7.988281 2.570313-16.207031 10.5625-18.375l91.757813-24.773438 83.929687-22.65625c8-2.148437 16.242188 2.566407 18.402344 10.554688s-2.570312 16.207031-10.570312 18.363281zm0 0" fill="#d9eeff"/><path d="m500.710938 80.855469-91.761719 24.773437-83.929688 22.65625c-1.308593.347656-2.621093.519532-3.917969.519532-6.613281 0-12.660156-4.394532-14.472656-11.074219-2.160156-7.988281 2.570313-16.207031 10.5625-18.363281l91.757813-24.777344 83.929687-22.65625c8-2.15625 16.230469 2.566406 18.390625 10.546875 2.171875 7.988281-2.558593 16.214843-10.558593 18.375zm0 0" fill="#d9eeff"/><g fill="#fff"><path d="m423.949219 272.527344v15.25c0 8.277344-6.710938 14.976562-15 14.976562h-.039063c-8.261718-.019531-14.960937-6.710937-14.960937-14.976562v-15.25c0-8.269532 6.699219-14.957032 14.960937-14.976563h.039063c8.289062 0 15 6.699219 15 14.976563zm0 0"/><path d="m423.949219 337.433594v15.25c0 8.277344-6.710938 14.976562-15 14.976562h-.039063c-8.261718-.019531-14.960937-6.710937-14.960937-14.976562v-15.25c0-8.265625 6.699219-14.957032 14.960937-14.976563h.039063c8.289062 0 15 6.699219 15 14.976563zm0 0"/><path d="m423.949219 140.789062v15.257813c0 8.277344-6.710938 14.976563-15 14.976563h-.039063c-8.261718-.019532-14.960937-6.710938-14.960937-14.976563v-15.257813c0-8.257812 6.699219-14.960937 14.960937-14.980468h.039063c8.289062 0 15 6.710937 15 14.980468zm0 0"/><path d="m423.949219 205.695312v15.257813c0 8.277344-6.710938 14.976563-15 14.976563h-.039063c-8.261718-.019532-14.960937-6.710938-14.960937-14.976563v-15.257813c0-8.257812 6.699219-14.960937 14.960937-14.980468h.039063c8.289062 0 15 6.710937 15 14.980468zm0 0"/></g><path d="m423.949219 413.753906v57h-30v-57c0-8.257812 6.699219-14.957031 14.960937-14.976562h.039063c8.289062 0 15 6.710937 15 14.976562zm0 0" fill="#fff49c"/><path d="m423.949219 140.789062v15.257813c0 8.277344-6.710938 14.976563-15 14.976563h-.039063v-45.214844h.039063c8.289062 0 15 6.710937 15 14.980468zm0 0" fill="#d9eeff"/><path d="m423.949219 205.695312v15.257813c0 8.277344-6.710938 14.976563-15 14.976563h-.039063v-45.214844h.039063c8.289062 0 15 6.710937 15 14.980468zm0 0" fill="#d9eeff"/><path d="m423.949219 272.527344v15.25c0 8.277344-6.710938 14.976562-15 14.976562h-.039063v-45.207031h.039063c8.289062.003906 15 6.703125 15 14.980469zm0 0" fill="#d9eeff"/><path d="m423.949219 337.433594v15.25c0 8.277344-6.710938 14.976562-15 14.976562h-.039063v-45.203125h.039063c8.289062 0 15 6.699219 15 14.976563zm0 0" fill="#d9eeff"/><path d="m423.949219 413.753906v57h-15.039063v-71.976562h.039063c8.289062 0 15 6.710937 15 14.976562zm0 0" fill="#fee276"/><path d="m511.269531 62.480469c2.171875 7.988281-2.558593 16.214843-10.558593 18.375l-91.761719 24.773437v-31.035156l83.929687-22.65625c8-2.160156 16.230469 2.5625 18.390625 10.542969zm0 0" fill="#b0e3fc"/><path d="m500.710938 29.4375-91.761719 24.773438v-31.035157l83.929687-22.65625c8-2.148437 16.242188 2.566407 18.402344 10.554688s-2.570312 16.207031-10.570312 18.363281zm0 0" fill="#b0e3fc"/><path d="m114.121094 272.527344v15.25c0 8.277344-6.699219 14.964844-14.992188 14.976562h-.007812c-8.28125 0-15-6.699218-15-14.976562v-15.25c0-8.277344 6.71875-14.976563 15-14.976563h.007812c8.292969.007813 14.992188 6.699219 14.992188 14.976563zm0 0" fill="#fff"/><path d="m114.121094 337.433594v15.25c0 8.277344-6.699219 14.96875-14.992188 14.976562h-.007812c-8.28125 0-15-6.699218-15-14.976562v-15.25c0-8.277344 6.71875-14.976563 15-14.976563h.007812c8.292969.007813 14.992188 6.699219 14.992188 14.976563zm0 0" fill="#fff"/><path d="m114.121094 413.753906v42.019532c0 8.277343-6.699219 14.96875-14.992188 14.980468h-.007812c-8.28125 0-15-6.703125-15-14.980468v-42.019532c0-8.265625 6.71875-14.976562 15-14.976562h.007812c8.292969.007812 14.992188 6.710937 14.992188 14.976562zm0 0" fill="#fff49c"/><path d="m114.121094 413.753906v42.019532c0 8.277343-6.699219 14.96875-14.992188 14.980468v-71.976562c8.292969.007812 14.992188 6.710937 14.992188 14.976562zm0 0" fill="#fee276"/><path d="m512 470.753906c0 8.277344-6.710938 14.976563-15 14.976563h-482c-8.28125 0-15-6.699219-15-14.976563 0-8.269531 6.71875-14.980468 15-14.980468h482c8.289062 0 15 6.710937 15 14.980468zm0 0" fill="#00db7e"/><path d="m299.339844 272.527344v15.25c0 8.277344-6.71875 14.976562-15 14.976562v-45.207031c8.28125.003906 15 6.703125 15 14.980469zm0 0" fill="#d9eeff"/><path d="m299.339844 337.433594v15.25c0 8.277344-6.71875 14.976562-15 14.976562v-45.203125c8.28125 0 15 6.699219 15 14.976563zm0 0" fill="#d9eeff"/><path d="m174.710938 222.199219h-151.171876c7.851563-45.355469 28.519532-87.683594 60.121094-122.132813 3.960938-4.324218 9.601563-6.800781 15.460938-6.800781h.007812c5.871094 0 11.5 2.476563 15.460938 6.789063v.011718c31.601562 34.449219 52.269531 76.777344 60.121094 122.132813zm0 0" fill="#fff49c"/><path d="m114.121094 272.527344v15.25c0 8.277344-6.699219 14.964844-14.992188 14.976562v-45.207031c8.292969.011719 14.992188 6.703125 14.992188 14.980469zm0 0" fill="#d9eeff"/><path d="m114.121094 337.433594v15.25c0 8.277344-6.699219 14.96875-14.992188 14.976562v-45.203125c8.292969.007813 14.992188 6.699219 14.992188 14.976563zm0 0" fill="#d9eeff"/><path d="m174.710938 222.199219h-75.582032v-128.933594c5.871094 0 11.5 2.476563 15.460938 6.789063v.011718c31.601562 34.449219 52.269531 76.777344 60.121094 122.132813zm0 0" fill="#fee276"/><path d="m512 470.753906c0 8.277344-6.710938 14.976563-15 14.976563h-240.890625v-29.957031h240.890625c8.289062 0 15 6.710937 15 14.980468zm0 0" fill="#00a863"/></svg>