<svg height="512pt" viewBox="-18 0 512 512" width="512pt" xmlns="http://www.w3.org/2000/svg"><path d="m395.675781 143.558594c-7.296875-80.492188-74.945312-143.558594-157.335937-143.558594-82.394532 0-150.042969 63.066406-157.339844 143.558594-47.09375 15.910156-81 60.457031-81 112.921875 0 65.816406 53.355469 119.167969 119.167969 119.167969 1.4375 0 2.867187-.035157 4.292969-.082032 24.925781 36.808594 67.074218 61.003906 114.878906 61.003906 47.800781 0 89.949218-24.195312 114.875-61.003906 1.425781.046875 2.855468.082032 4.292968.082032 65.8125 0 119.167969-53.351563 119.167969-119.167969 0-52.464844-33.90625-97.011719-81-112.921875zm0 0" fill="#8dd470"/><path d="m350.691406 241.804688c6.175782 6.175781 6.875 15.953124 1.636719 22.945312l-89.1875 119.078125c-3.390625 4.523437-10 4.996094-13.996094 1l-41.476562-41.476563c-3.996094-3.996093-3.527344-10.609374.996093-13.996093l119.078126-89.191407c6.992187-5.234374 16.773437-4.535156 22.949218 1.640626zm0 0" fill="#c76d33"/><path d="m238.339844 0c-82.394532 0-150.042969 63.066406-157.339844 143.558594-47.09375 15.910156-81 60.457031-81 112.921875 0 65.816406 53.355469 119.167969 119.167969 119.167969 1.4375 0 2.867187-.035157 4.292969-.082032 24.925781 36.808594 67.074218 61.003906 114.878906 61.003906-172.574219 0-146.570313-436.570312 0-436.570312zm0 0" fill="#6dc847"/><path d="m125.984375 284.042969c-6.175781 6.175781-6.875 15.953125-1.636719 22.945312l89.1875 119.078125c3.390625 4.523438 10 4.996094 13.996094 1l41.476562-41.476562c4-3.996094 3.527344-10.609375-.996093-13.996094l-119.078125-89.191406c-6.992188-5.234375-16.773438-4.539063-22.949219 1.640625zm0 0" fill="#af602d"/><path d="m238.339844 218.273438c14.835937 0 27.417968 10.90625 29.523437 25.59375l35.898438 250.121093c1.363281 9.503907-6.011719 18.011719-15.613281 18.011719h-99.621094c-9.601563 0-16.976563-8.507812-15.613282-18.011719l35.898438-250.121093c2.105469-14.6875 14.6875-25.59375 29.527344-25.59375zm0 0" fill="#d97c41"/><path d="m204.457031 493.988281 35.894531-250.121093c1.289063-8.988282 6.507813-16.554688 13.757813-21.074219-4.597656-2.867188-10.011719-4.515625-15.769531-4.515625-14.839844 0-27.421875 10.902344-29.527344 25.589844l-35.898438 250.121093c-1.363281 9.503907 6.011719 18.011719 15.613282 18.011719h31.539062c-9.601562 0-16.972656-8.507812-15.609375-18.011719zm0 0" fill="#c76d33"/><g fill="#454545"><path d="m239.019531 152.691406c-10.011719 0-19.355469-5.226562-24.382812-13.648437-2.125-3.554688-.964844-8.160157 2.589843-10.285157 3.558594-2.121093 8.164063-.960937 10.285157 2.59375 2.339843 3.910157 6.746093 6.339844 11.507812 6.339844 4.757813 0 9.164063-2.429687 11.503907-6.339844 2.125-3.554687 6.730468-4.714843 10.285156-2.59375 3.554687 2.125 4.714844 6.730469 2.589844 10.285157-5.03125 8.421875-14.371094 13.648437-24.378907 13.648437zm0 0"/><path d="m303.949219 122.53125c-4.140625 0-7.5-3.355469-7.5-7.5v-11.695312c0-4.144532 3.359375-7.5 7.5-7.5 4.144531 0 7.5 3.355468 7.5 7.5v11.695312c0 4.144531-3.355469 7.5-7.5 7.5zm0 0"/><path d="m172.726562 122.53125c-4.140624 0-7.5-3.355469-7.5-7.5v-11.695312c0-4.144532 3.359376-7.5 7.5-7.5 4.140626 0 7.5 3.355468 7.5 7.5v11.695312c0 4.144531-3.359374 7.5-7.5 7.5zm0 0"/></g><path d="m309.800781 144.644531h-11.699219c-4.140624 0-7.5-3.355469-7.5-7.5 0-4.140625 3.359376-7.5 7.5-7.5h11.699219c4.140625 0 7.5 3.359375 7.5 7.5 0 4.144531-3.359375 7.5-7.5 7.5zm0 0" fill="#f4f4f4"/><path d="m178.574219 144.644531h-11.695313c-4.144531 0-7.5-3.355469-7.5-7.5 0-4.140625 3.355469-7.5 7.5-7.5h11.695313c4.144531 0 7.5 3.359375 7.5 7.5 0 4.144531-3.355469 7.5-7.5 7.5zm0 0" fill="#f4f4f4"/></svg>