<svg id="Capa_1" enable-background="new 0 0 512 512" height="512" viewBox="0 0 512 512" width="512" xmlns="http://www.w3.org/2000/svg"><g><path d="m256 12.468c-141.385 0-256 114.615-256 256v49.845c0 27.642 21.585 50.966 49.209 51.973.661.024 1.325.036 1.991.036 23.999 0 44.316-15.744 51.2-37.466 6.884 21.722 27.2 37.466 51.2 37.466 23.999 0 44.316-15.744 51.2-37.466 6.884 21.722 27.201 37.466 51.2 37.466 23.999 0 44.316-15.744 51.2-37.466 6.884 21.722 27.201 37.466 51.2 37.466 23.999 0 44.316-15.744 51.2-37.466 6.884 21.722 27.201 37.466 51.2 37.466.667 0 1.331-.012 1.991-.036 27.624-1.007 49.209-24.33 49.209-51.973v-49.845c0-141.385-114.615-256-256-256z" fill="#ffbd6c"/><g fill="#ffa93e"><path d="m145.593 182.57c0-65.419 26.9-124.545 70.227-166.955-122.295 19.28-215.82 125.139-215.82 252.852v49.845c0 27.642 21.585 50.965 49.209 51.972.661.024 1.324.037 1.991.037 23.999 0 44.316-15.744 51.2-37.466 6.884 21.722 27.2 37.466 51.2 37.466 22.633 0 41.985-14.006 49.889-33.818-36.04-41.11-57.896-94.966-57.896-153.933z"/><path d="m208.949 342.516c5.622 10.195 14.464 18.359 25.151 23.14-8.94-7.096-17.344-14.833-25.151-23.14z"/></g><path d="m340.295 482.227c-52.068-65.059-10.688-145.035 15.322-183.332 6.869-10.114-1.687-23.55-13.766-21.656-20.308 3.183-45.099 12.74-56.031 39.368 0 0 7.359-48.211-22.115-102.943-1.524-2.831-4.49-4.596-7.705-4.596-3.215 0-6.181 1.766-7.705 4.596-29.474 54.731-22.115 102.943-22.115 102.943-10.931-26.628-35.723-36.185-56.031-39.368-12.078-1.893-20.635 11.542-13.766 21.656 26.01 38.296 67.39 118.272 15.322 183.332-9.579 11.969-1.26 29.679 14.07 29.679h140.449c15.33 0 23.65-17.71 14.071-29.679z" fill="#e6876e"/><g><g><g><ellipse cx="168.82" cy="164.917" fill="#fff2ce" rx="32.168" ry="25.617"/></g><g><ellipse cx="343.18" cy="164.917" fill="#fff2ce" rx="32.168" ry="25.617"/></g></g></g><g><path d="m187.566 147.984c-4.268 0-7.726-3.459-7.726-7.726v-13.15c0-4.267 3.459-7.726 7.726-7.726s7.726 3.459 7.726 7.726v13.15c.001 4.267-3.458 7.726-7.726 7.726z" fill="#4a5561"/></g><g><path d="m324.433 147.984c-4.268 0-7.726-3.459-7.726-7.726v-13.15c0-4.267 3.459-7.726 7.726-7.726s7.726 3.459 7.726 7.726v13.15c0 4.267-3.459 7.726-7.726 7.726z" fill="#4a5561"/></g><g><path d="m256 155.812c-9.147 0-17.846-3.962-23.867-10.869-2.803-3.217-2.469-8.097.748-10.901 3.216-2.803 8.097-2.469 10.901.748 3.085 3.539 7.538 5.57 12.217 5.57s9.133-2.03 12.217-5.57c2.804-3.217 7.684-3.552 10.901-.748s3.551 7.684.748 10.901c-6.019 6.907-14.718 10.869-23.865 10.869z" fill="#4a5561"/></g><path d="m263.999.16c-9.173.744-18.138 4.623-25.156 11.641-7.214 7.214-11.112 16.487-11.696 25.927-.7 11.316 8.761 20.777 20.077 20.077 9.44-.584 18.713-4.481 25.927-11.696 7.018-7.018 10.897-15.983 11.641-25.156.967-11.924-8.869-21.76-20.793-20.793z" fill="#97b95c"/><path d="m99.886 218.405c-9.173.744-18.138 4.623-25.156 11.641-7.214 7.214-11.112 16.487-11.696 25.927-.7 11.316 8.761 20.777 20.077 20.077 9.44-.584 18.713-4.481 25.927-11.696 7.018-7.018 10.897-15.983 11.641-25.156.968-11.923-8.868-21.76-20.793-20.793z" fill="#ff6c53"/><path d="m44.521 99.795c.744 9.173 4.623 18.138 11.641 25.156 7.214 7.214 16.487 11.112 25.927 11.696 11.316.7 20.777-8.761 20.077-20.077-.584-9.44-4.481-18.713-11.696-25.927-7.018-7.018-15.983-10.897-25.156-11.641-11.923-.967-21.76 8.869-20.793 20.793z" fill="#ff6c53"/><path d="m412.114 218.405c9.173.744 18.138 4.623 25.156 11.641 7.214 7.214 11.112 16.487 11.696 25.927.7 11.316-8.761 20.777-20.077 20.077-9.44-.584-18.713-4.481-25.927-11.696-7.018-7.018-10.897-15.983-11.641-25.156-.967-11.923 8.869-21.76 20.793-20.793z" fill="#97b95c"/><path d="m467.479 99.795c-.744 9.173-4.623 18.138-11.641 25.156-7.214 7.214-16.487 11.112-25.927 11.696-11.316.7-20.777-8.761-20.077-20.077.584-9.44 4.481-18.713 11.696-25.927 7.018-7.018 15.983-10.897 25.156-11.641 11.924-.967 21.76 8.869 20.793 20.793z" fill="#ff6c53"/><path d="m251.879 379.625c0-41.179 11.376-79.696 31.145-112.598-3.183-15.79-8.985-34.174-19.319-53.363-1.524-2.831-4.49-4.597-7.705-4.597s-6.181 1.766-7.705 4.597c-29.474 54.731-22.115 102.943-22.115 102.943-10.931-26.627-35.723-36.185-56.03-39.368-12.078-1.893-20.635 11.542-13.766 21.656 26.01 38.296 67.39 118.272 15.322 183.331-9.579 11.969-1.26 29.68 14.07 29.68h94.183c-20.788-36.749-28.08-82.577-28.08-132.281z" fill="#db6747"/><g><path d="m224.544 462.366c-4.074-1.268-6.349-5.599-5.08-9.674 2.122-6.817 3.806-13.934 5.006-21.155.698-4.209 4.679-7.054 8.888-6.356 4.209.699 7.054 4.679 6.355 8.888-1.315 7.915-3.164 15.726-5.495 23.215-1.268 4.075-5.599 6.35-9.674 5.082z" fill="#f89f86"/></g><g><path d="m226.727 400.156c-.156-8.708-.958-17.548-2.383-26.275-.687-4.212 2.169-8.183 6.381-8.87 4.204-.687 8.182 2.169 8.87 6.381 1.543 9.456 2.412 19.04 2.582 28.487.076 4.267-3.32 7.787-7.587 7.864-4.322.068-7.786-3.367-7.863-7.587z" fill="#f89f86"/></g><g><path d="m273.647 442.263c-2.667-12.452-3.837-25.796-3.577-40.794.074-4.266 3.6-7.693 7.859-7.591 4.267.074 7.665 3.592 7.592 7.859-.239 13.806.82 26.004 3.237 37.29.893 4.173-1.765 8.28-5.938 9.173-4.165.892-8.277-1.756-9.173-5.937z" fill="#f89f86"/></g><g><path d="m279.43 376.895c-4.218-.641-7.12-4.58-6.479-8.799 1.228-8.089 2.501-14.656 4.006-20.667 1.036-4.14 5.236-6.652 9.371-5.619 4.14 1.036 6.655 5.232 5.619 9.371-1.383 5.527-2.565 11.639-3.718 19.234-.642 4.224-4.584 7.119-8.799 6.48z" fill="#f89f86"/></g></g></svg>