<svg id="Capa_1" enable-background="new 0 0 512 512" height="512" viewBox="0 0 512 512" width="512" xmlns="http://www.w3.org/2000/svg"><g><g><path d="m70.965 495.497v-223.209c0-3.851-3.121-6.972-6.972-6.972h-31.039c-3.85 0-6.972 3.121-6.972 6.972v223.208c0 3.85 3.121 6.972 6.972 6.972h31.039c3.851 0 6.972-3.121 6.972-6.971z" fill="#5a5a5a"/><path d="m306.001 236.041h53.408v200.704h-53.408z" fill="#c86d36"/><path d="m325.531 236.041h33.878v200.704h-33.878z" fill="#ac5e2e"/><path d="m432.528 113.36c-.436-58.544-44.957-105.86-99.823-105.86s-99.388 47.316-99.823 105.86c-31.011 9.012-53.489 35.626-53.489 67.063 0 46.171 47.792 79.961 96.6 67.922 10.251 19.25 31.792 32.513 56.713 32.513 24.922 0 46.462-13.263 56.713-32.513 48.851 12.049 96.6-21.786 96.6-67.922-.002-31.437-22.481-58.051-53.491-67.063z" fill="#09a76d"/><g fill="#cecece"><path d="m159.692 439.862v-72.959c0-3.85 3.121-6.972 6.972-6.972h13.03c3.85 0 6.972 3.121 6.972 6.972v72.959c0 3.85-3.121 6.972-6.972 6.972h-13.03c-3.85-.001-6.972-3.122-6.972-6.972z"/><path d="m359.723 439.862v-72.959c0-3.85 3.121-6.972 6.972-6.972h13.03c3.85 0 6.972 3.121 6.972 6.972v72.959c0 3.85-3.121 6.972-6.972 6.972h-13.03c-3.851-.001-6.972-3.122-6.972-6.972z"/><path d="m159.693 497.528v-43.724c0-3.85 3.121-6.972 6.972-6.972h13.03c3.85 0 6.972 3.121 6.972 6.972v43.724c0 3.85-3.121 6.972-6.972 6.972h-13.03c-3.851 0-6.972-3.121-6.972-6.972z"/><path d="m359.723 497.528v-43.724c0-3.85 3.121-6.972 6.972-6.972h13.03c3.85 0 6.972 3.121 6.972 6.972v43.724c0 3.85-3.121 6.972-6.972 6.972h-13.03c-3.851 0-6.972-3.121-6.972-6.972z"/></g><path d="m116.055 48.72h67.5v19.035c0 7.151-5.797 12.947-12.947 12.947h-41.606c-7.151 0-12.947-5.797-12.947-12.947z" fill="#fece85"/><path d="m116.055 48.72h67.5v-18.811c0-8.251-6.688-14.939-14.939-14.939h-37.622c-8.251 0-14.939 6.688-14.939 14.939z" fill="#838383"/><path d="m116.055 41.25h67.5v-18.811c0-8.251-6.688-14.939-14.939-14.939h-37.622c-8.251 0-14.939 6.688-14.939 14.939z" fill="#838383"/><g><path d="m432.528 113.36c-.436-58.544-44.957-105.86-99.823-105.86-5.941 0-11.759.557-17.415 1.62 46.575 8.76 82.02 52.035 82.408 104.24 31.011 9.012 53.489 35.626 53.489 67.063 0 33.354-25.307 61.265-59.256 68.499 48.147 10.303 94.086-23.279 94.086-68.499 0-31.437-22.479-58.051-53.489-67.063z" fill="#02905d"/></g><path d="m379.724 359.931h-13.03c-3.85 0-6.972 3.122-6.972 6.972v51.783h26.973v-51.783c0-3.851-3.121-6.972-6.971-6.972z" fill="#bfbfbf"/><path d="m179.693 359.931h-13.03c-3.85 0-6.972 3.122-6.972 6.972v51.783h26.973v-51.783c.001-3.851-3.12-6.972-6.971-6.972z" fill="#bfbfbf"/><path d="m359.723 482.258h26.973c0-31.159.236-29.429-.625-31.327h-25.723c-.861 1.899-.625.323-.625 31.327z" fill="#bfbfbf"/><path d="m159.693 453.805v28.454h26.973v-28.454c0-1.025-.227-1.996-.625-2.873h-25.723c-.398.877-.625 1.847-.625 2.873z" fill="#bfbfbf"/><path d="m409.571 391.951v-70.822c0-3.851-3.121-6.972-6.972-6.972h-261.635c-3.85 0-6.972 3.121-6.972 6.972v70.822c0 3.85 3.121 6.972 6.972 6.972h261.635c3.85 0 6.972-3.121 6.972-6.972z" fill="#fedba6"/><path d="m422.969 455.525v-17.384c0-3.85-3.121-6.972-6.972-6.972h-288.432c-3.85 0-6.972 3.122-6.972 6.972v17.384c0 3.85 3.121 6.972 6.972 6.972h288.433c3.85 0 6.971-3.122 6.971-6.972z" fill="#fedba6"/><path d="m405.422 314.158h-33.878c3.85 0 6.972 3.121 6.972 6.972v70.822c0 3.85-3.121 6.972-6.972 6.972h33.878c3.85 0 6.972-3.121 6.972-6.972v-70.822c0-3.851-3.122-6.972-6.972-6.972z" fill="#fece85"/><path d="m418.821 431.17h-33.878c3.85 0 6.972 3.122 6.972 6.972v17.384c0 3.85-3.121 6.972-6.972 6.972h33.878c3.85 0 6.972-3.122 6.972-6.972v-17.384c-.001-3.851-3.122-6.972-6.972-6.972z" fill="#fece85"/><path d="m66.816 265.317h-19.762c3.85 0 6.972 3.121 6.972 6.972v223.208c0 3.85-3.121 6.972-6.972 6.972h19.762c3.85 0 6.972-3.122 6.972-6.972v-223.209c0-3.85-3.121-6.971-6.972-6.971z" fill="#444"/></g><g><path d="m108.556 67.755c0 11.274 9.172 20.447 20.447 20.447h41.605c11.275 0 20.447-9.173 20.447-20.447 0-13.929 0-24.276 0-37.846 0-12.373-10.066-22.439-22.439-22.439-10.218 0-71.734 0-81.881 0-24.455 0-44.35 19.896-44.35 44.351v205.996h-9.431c-7.979 0-14.472 6.492-14.472 14.472v223.208c0 7.979 6.492 14.472 14.472 14.472h33.862c7.979 0 14.472-6.492 14.472-14.472v-223.209c0-7.979-6.492-14.472-14.472-14.472h-9.431v-205.996c0-16.184 13.167-29.351 29.35-29.351h23.093c-.821 2.33-1.273 4.832-1.273 7.439.001 13.621.001 24.014.001 37.847zm-42.268 427.213h-32.805v-222.152h32.805zm109.768-427.213c0 3.004-2.444 5.447-5.447 5.447h-41.605c-3.003 0-5.447-2.443-5.447-5.447v-11.535h52.5v11.535zm-7.439-45.285c4.102 0 7.439 3.337 7.439 7.439v11.311h-52.5v-11.311c0-4.103 3.337-7.439 7.439-7.439z"/><path d="m393.127 256.805c5.347.971 10.787 1.461 16.234 1.461 46.404 0 84.156-34.92 84.156-77.842 0-32.458-21.339-61.005-53.652-72.567-.972-18.613-6.197-36.705-15.242-52.636-2.045-3.602-6.623-4.861-10.225-2.819-3.602 2.046-4.864 6.623-2.819 10.226 8.664 15.261 13.314 32.823 13.448 50.789.025 3.315 2.224 6.222 5.407 7.146 28.759 8.357 48.082 32.414 48.082 59.861 0 34.651-31.023 62.842-69.156 62.842-6.12 0-12.225-.74-18.147-2.201-3.335-.825-6.801.725-8.417 3.756-9.271 17.41-28.988 28.538-50.093 28.538-21.121 0-40.829-11.141-50.093-28.538-1.615-3.032-5.085-4.582-8.417-3.756-5.922 1.461-12.027 2.201-18.147 2.201-38.133 0-69.156-28.19-69.156-62.842 0-27.447 19.323-51.504 48.082-59.861 3.184-.925 5.382-3.831 5.407-7.146.406-54.268 41.822-98.417 92.326-98.417 21.298 0 42.08 7.982 58.516 22.476 3.107 2.741 7.846 2.442 10.586-.665 2.739-3.106 2.442-7.846-.665-10.585-19.179-16.913-43.483-26.226-68.437-26.226-28.613 0-55.526 11.838-75.781 33.333-18.902 20.059-29.934 46.347-31.382 74.524-32.312 11.563-53.649 40.108-53.649 72.566 0 42.922 37.752 77.842 84.156 77.842 5.447 0 10.887-.49 16.234-1.461 6.497 9.992 15.57 17.991 26.218 23.438v26.415h-79.728c-4.142 0-7.5 3.357-7.5 7.5s3.358 7.5 7.5 7.5h186.121v69.765c-33.007 0-230.281 0-263.402 0v-69.765h42.281c4.142 0 7.5-3.357 7.5-7.5s-3.358-7.5-7.5-7.5h-42.809c-7.979 0-14.472 6.492-14.472 14.472v70.821c0 7.979 6.492 14.472 14.472 14.472h11.229v17.247h-24.627c-7.98 0-14.472 6.492-14.472 14.472v17.384c0 7.979 6.492 14.472 14.472 14.472h24.628v27.531c0 7.979 6.492 14.472 14.471 14.472h13.03c7.979 0 14.472-6.492 14.472-14.472v-27.531h158.058v27.531c0 7.979 6.492 14.472 14.472 14.472h13.029c7.979 0 14.472-6.492 14.472-14.472v-27.531h24.625c7.98 0 14.472-6.492 14.472-14.472v-17.384c0-7.979-6.492-14.472-14.472-14.472h-24.625v-17.247h11.227c7.979 0 14.472-6.492 14.472-14.472v-70.82c0-7.979-6.492-14.472-14.472-14.472h-38.513v-26.415c10.645-5.447 19.718-13.446 26.215-23.438zm-41.218 149.618v17.247h-38.409v-17.247zm-157.744 17.247v-17.247h104.335v17.247zm-26.973-17.247h11.973v17.247h-11.973zm11.974 90.577h-11.973v-27.003h11.973zm200.03 0h-11.973v-27.003h11.973zm39.096-42.003c-9.501 0-277.738 0-290.199 0v-16.327h290.199zm-39.097-31.327h-11.973v-17.247h11.973zm-27.286-117.012h-38.409v-20.732c6.421 1.662 12.945 2.432 19.204 2.432 6.31 0 12.803-.775 19.204-2.432v20.732z"/></g></g></svg>