<svg id="Capa_1" enable-background="new 0 0 512 512" height="512" viewBox="0 0 512 512" width="512" xmlns="http://www.w3.org/2000/svg"><g><g><g clip-rule="evenodd" fill-rule="evenodd"><circle cx="215.057" cy="52.501" fill="#faef93" r="45"/><path d="m338.5 399.373v-60h-180v60zm15 60.064v-30h-210v30z" fill="#decba0"/><path d="m428.5 447.75c24.853 0 45-20.147 45-45s-20.147-45-45-45c-24.822 0-45 20.122-45 45 0 24.879 20.177 45 45 45zm-421-217.497c0 47.067 38.155 85.222 85.222 85.222s85.222-38.155 85.222-85.222-38.155-85.222-85.222-85.222-85.222 38.155-85.222 85.222zm314.999 10.747c0 33 27 60 60 60h62.001c33 0 60-27 60-60v-143.5c0-33-27-60-60-60h-62.002c-33 0-60 27-60 60v143.5z" fill="#7bdaa9"/><path d="m398.499 504.5h30l.001-56.75c-11.526 0-22.04-4.334-30-11.462v68.212zm-.001-135.29c7.961-7.127 18.476-11.46 30.001-11.46v-56.75h-30z" fill="#decba0"/><path d="m428.499 462.75v-15c-11.526 0-22.04-4.334-30-11.462v68.212h15v-43.643c4.795 1.235 9.821 1.893 15 1.893zm-30.001-93.54c7.961-7.127 18.476-11.46 30.001-11.46v-15c-5.18 0-10.206.658-15.001 1.893l.001-43.643h-15z" fill="#d4b981"/><path d="m439.751 446.332c-19.393-4.993-33.752-22.595-33.752-43.582s14.359-38.589 33.752-43.582c-28.258-7.274-56.252 14.012-56.252 43.582.001 29.57 27.995 50.856 56.252 43.582zm-432.251-216.079c0 51.698 45.521 91.202 96.472 84.482-41.749-5.507-73.972-41.229-73.972-84.482s32.223-78.976 73.972-84.482c-50.951-6.721-96.472 32.784-96.472 84.482zm314.999 10.747c0 33 27 60 60 60h22.5c-33 0-60-27-60-60v-143.5c0-33 27-60 60-60h-22.5c-33 0-60 27-60 60z" fill="#52cd8d"/><path d="m173.5 339.374h-15v60h15zm-15 90.063h-15v30h15z" fill="#d4b981"/><path d="m170.057 52.501c0 29.571 27.99 50.856 56.25 43.582-19.409-4.995-33.75-22.614-33.75-43.582s14.341-38.587 33.75-43.582c-28.26-7.274-56.25 14.011-56.25 43.582z" fill="#f8e868"/></g><g><path d="m451 410.25h-15v-15h15zm-15-15h-15v-15h15zm-119.999-18.376h-15v-15h15zm-30 0h-45v-15h45zm96.497-98.374c-20.678 0-37.5-16.822-37.5-37.5h15c0 12.196 10.304 22.5 22.5 22.5zm-22.5-52.5h-15v-15h15zm-221.467-3.051c-4.187-15.914-16.449-32.918-38.31-32.918v-15c13.227 0 25.279 4.625 34.856 13.374 8.505 7.77 14.715 18.396 17.959 30.728zm-53.308-32.918h-15.001v-15h15.001zm396.777-40.031h-15v-15h15zm0-30h-15v-22.5c0-12.196-10.304-22.5-22.5-22.5v-15c20.678 0 37.5 16.822 37.5 37.5zm-244.442-60h-15.001v-15h-14.999v-15h15v15h15z" fill="#fff"/></g></g><g><path d="m331 466.937h30v-45h-30v-15.063h15v-75h-135v15h120v45h-165v-45h30v-15h-45v75h15v15.063h-30v45h30v30.063h-166v15h248.5v-15h-67.5v-30.063h90v-15h-120v-15h195v15h-60v15h30v30.063h-52.5v15h248.5v-15h-181zm-150-60.063h135v15.063h-135z"/><path d="m444.5 30h-62.002c-37.22 0-67.5 30.28-67.5 67.5v15h15v-15c0-28.949 23.552-52.5 52.5-52.5h62.002c28.948 0 52.5 23.551 52.5 52.5v113.501h15v-113.501c0-37.22-30.28-67.5-67.5-67.5z"/><path d="m497 241c0 28.948-23.552 52.5-52.5 52.5h-62.002c-28.948 0-52.5-23.551-52.5-52.5v-113.5h-15v113.5c0 37.219 30.28 67.5 67.5 67.5h8.501v57.558c-9.27 9.472-15 22.423-15 36.692s5.73 27.22 15 36.692v42.558h15v-31.826c4.664 2.222 9.706 3.771 15 4.532v27.294h15v-27.289c8.253-1.177 16.078-4.291 22.95-9.191l-8.709-12.213c-6.369 4.542-13.888 6.942-21.741 6.942-20.678 0-37.5-16.822-37.5-37.5s16.822-37.5 37.5-37.5 37.5 16.822 37.5 37.5c0 7.854-2.4 15.372-6.941 21.741l12.213 8.708c6.364-8.926 9.729-19.455 9.729-30.449 0-26.402-19.593-48.304-45-51.956v-42.293h8.501c37.22 0 67.5-30.28 67.5-67.5v-15h-15v15zm-76.001 109.794c-5.294.761-10.336 2.31-15 4.532v-46.826h15z"/><path d="m100.222 307.606v-19.023l28.11-16.229-7.5-12.99-20.61 11.899v-41.01h-15v77.352c-13.875-1.321-27.013-6.294-38.362-14.605l-8.863 12.102c13.941 10.209 30.137 16.214 47.226 17.574v54.89l-37.769-21.806-7.5 12.99 45.269 26.136v87.114h15v-159.33c47.633-3.831 85.222-43.815 85.222-92.417 0-21.752-7.689-42.9-21.652-59.547l-11.492 9.639c11.7 13.951 18.145 31.676 18.145 49.909-.003 40.324-30.875 73.566-70.224 77.352z"/><path d="m36.572 283.99c-13.911-14.53-21.572-33.614-21.572-53.737 0-42.856 34.866-77.722 77.722-77.722 18.233 0 35.958 6.444 49.908 18.145l9.639-11.492c-16.646-13.963-37.794-21.653-59.547-21.653-51.127 0-92.722 41.595-92.722 92.722 0 24.007 9.141 46.775 25.738 64.11z"/><path d="m420.999 161.75h15v15h-15z"/><path d="m390.999 161.75h15v15h-15z"/><path d="m215.057 105c28.948 0 52.5-23.551 52.5-52.5s-23.552-52.5-52.5-52.5-52.5 23.551-52.5 52.5 23.551 52.5 52.5 52.5zm0-90c20.678 0 37.5 16.822 37.5 37.5s-16.823 37.5-37.5 37.5-37.5-16.822-37.5-37.5 16.822-37.5 37.5-37.5z"/></g></g></svg>