<svg id="Capa_1" enable-background="new 0 0 512 512" height="512" viewBox="0 0 512 512" width="512" xmlns="http://www.w3.org/2000/svg"><g><g><path d="m256 418.41-14.769 33.271 14.769 41.319h39.06l-10.877-99.548z" fill="#8c624d"/><path d="m256 418.41v74.59h-39.06l10.877-99.548z" fill="#a6756b"/></g><g><path d="m256 343.83-14.769 31.255 14.769 43.325h40.32l-11.538-105.45z" fill="#804040"/><path d="m256 343.83v74.58h-40.32l11.538-105.45z" fill="#8c624d"/></g><g><path d="m256 269.24-14.769 33.079 14.769 41.511h40.32l-10.442-95.446z" fill="#8c624d"/><path d="m256 269.24v74.59h-40.32l10.442-95.446z" fill="#a6756b"/></g><g><path d="m256 194.66-14.769 35.54 14.769 39.04h39.06l-10.065-92.105z" fill="#804040"/><path d="m256 194.66v74.58h-39.06l10.065-92.105z" fill="#8c624d"/></g><g><path d="m256 120.08-14.769 39.823 14.769 34.757h39.06l-8.15-74.58z" fill="#8c624d"/><path d="m256 120.08v74.58h-39.06l8.15-74.58z" fill="#a6756b"/></g><g><g><path d="m512 512h-256l-14.769-15 14.769-15h256z" fill="#f66"/></g><g><path d="m0 482h256v30h-256z" fill="#ffb366"/></g></g><g><g><path d="m357.87 87.79h154.13c0-24.25-10.72-46.19-28.06-62.08s-41.3-25.71-67.76-25.71h-64.17c-52.92 0-96.01 39.3-96.01 87.79l-14.769 6.955 14.769 36.145z" fill="#83b324"/><path d="m154.13 87.79h-154.13c0-24.25 10.72-46.19 28.06-62.08s41.3-25.71 67.76-25.71h64.17c52.92 0 96.01 39.3 96.01 87.79v43.1z" fill="#b1cc29"/></g><g><path d="m256 130.89-115.84 51.81-29.57-4.43-15.66 24.69-60.79 27.24c-4.43-9.91-6.53-20.33-6.53-30.73 0-33.03 21.19-65.84 56.07-81.46l55.6-24.91c4.89-2.19 9.86-3.96 14.85-5.31 41.76-11.34 85.34 6.11 101.87 43.1z" fill="#c7e62e"/></g><g><path d="m256 130.89 115.84 51.81 29.57-4.43 15.66 24.69 60.79 27.24c4.43-9.91 6.53-20.33 6.53-30.73 0-33.03-21.19-65.84-56.07-81.46l-55.6-24.91c-4.89-2.19-9.86-3.96-14.85-5.31-41.76-11.34-85.34 6.11-101.87 43.1z" fill="#b1cc29"/></g></g></g></svg>