<svg id="Capa_1" enable-background="new 0 0 512 512" height="512" viewBox="0 0 512 512" width="512" xmlns="http://www.w3.org/2000/svg"><g><path d="m149.502 286.194c-54.352 0-81.155-23.68-94.069-43.546-21.685-33.357-18.794-77.804-2.688-114.072 5.097-11.478 18.532-16.649 30.01-11.553 11.477 5.097 16.65 18.533 11.553 30.01-11.537 25.978-11.829 53.779-.746 70.829 9.859 15.166 28.68 22.855 55.941 22.855 12.558 0 22.738 10.18 22.738 22.738s-10.181 22.739-22.739 22.739z" fill="#c47b46"/><path d="m371.366 303.927c-12.558 0-22.738-10.18-22.738-22.738s10.18-22.738 22.738-22.738c22.665 0 38.589-5.364 47.33-15.944 12.115-14.662 14.181-41.708 6.315-82.682-2.367-12.333 5.711-24.25 18.044-26.618 12.338-2.362 24.25 5.711 26.617 18.044 6.751 35.169 12.446 85.894-15.919 120.223-17.793 21.534-45.512 32.453-82.387 32.453z" fill="#c47b46"/><path d="m390.895 462.865c27.722-291.579-21.141-347.003-134.895-347.003s-162.617 55.424-134.895 347.003z" fill="#d2996f"/><path d="m256 115.862c-66.108 0-110.297 18.726-130.278 91.636 48.933-.389 87.608 1.294 119.505-7.946 36.672 19.917 90.715 16.257 143.271 16.692-18.799-80.174-63.821-100.382-132.498-100.382z" fill="#c47b46"/><path d="m307.631 143.094c38.708 0 70.088-26.427 70.088-59.026s-31.38-59.026-70.088-59.026c-7.947 0-15.579 1.121-22.697 3.178-5.436 1.571-11.261-.199-15.012-4.437-12.774-14.433-33.192-23.783-56.211-23.783-38.709 0-70.088 26.427-70.088 59.026v84.068z" fill="#3ba560"/><path d="m12.645 126.61c0 51.423 62.32 44.728 129.085 44.728s129.085 2.057 129.086-49.365c0-22.542-22.737-41.056-58.42-43.149-3.994-.234-7.537-2.533-9.544-5.994-10.242-17.66-35.795-30.177-65.709-30.177-32.49 0-59.831 14.766-68 34.851-1.545 3.798-4.892 6.529-8.926 7.266-27.413 5.005-47.572 21.84-47.572 41.84z" fill="#3cb767"/><path d="m499.355 135.334c0 51.423-62.32 44.728-129.085 44.728s-129.085 2.057-129.086-49.366c0-22.542 22.737-41.056 58.42-43.148 3.994-.234 7.537-2.533 9.544-5.994 10.242-17.66 35.795-30.177 65.709-30.177 32.49 0 59.831 14.766 68 34.851 1.545 3.798 4.892 6.529 8.926 7.266 27.413 5.004 47.572 21.84 47.572 41.84z" fill="#6ac75e"/><path d="m437.52 435.316h-236.089c-29.191 27.549-10.633 68.593 25.604 76.684h226.669c12.355 0 22.372-10.016 22.372-22.372v-15.757c0-21.293-17.262-38.555-38.556-38.555z" fill="#f5ea72"/><path d="m201.431 435.316h-126.951c-21.294 0-38.556 17.262-38.556 38.556v15.757c0 12.355 10.016 22.371 22.372 22.371h168.739c-16.373-13.292-34.391-41.696-25.604-76.684z" fill="#e9c85f"/><g><path d="m204.535 302.67c-.042 13.236-13.549 23.922-30.169 23.871-16.62-.052-30.06-10.824-30.019-24.059.041-13.236 13.548-23.923 30.169-23.871 16.621.051 30.06 10.823 30.019 24.059z" fill="#eda1ab"/><path d="m307.465 302.992c-.041 13.236 13.398 24.007 30.018 24.059s30.127-10.635 30.169-23.871-13.398-24.007-30.019-24.06c-16.619-.051-30.126 10.637-30.168 23.872z" fill="#eda1ab"/><g fill="#565e75"><path d="m280.32 284.494c.047-14.995-10.811-16.438-24.211-16.48s-24.267 1.333-24.314 16.328 10.778 27.184 24.178 27.226 24.3-12.08 24.347-27.074z"/><path d="m206.386 284.097c-.008 0-.016 0-.024 0-4.142-.013-7.49-3.381-7.477-7.523.006-1.823-.699-3.539-1.983-4.832-1.285-1.293-2.996-2.008-4.818-2.014-.007 0-.015 0-.022 0-3.753 0-6.812 3.047-6.824 6.802-.013 4.134-3.369 7.477-7.5 7.477-.008 0-.016 0-.024 0-4.142-.013-7.49-3.381-7.477-7.523.038-12.01 9.821-21.755 21.822-21.755h.07c5.829.018 11.303 2.305 15.412 6.44s6.362 9.623 6.343 15.452c-.012 4.134-3.367 7.476-7.498 7.476z"/><path d="m334.427 284.498c-.009 0-.016 0-.025 0-4.142-.013-7.489-3.381-7.477-7.523.012-3.763-3.04-6.834-6.803-6.846-.007 0-.015 0-.022 0-3.752 0-6.811 3.047-6.823 6.803-.014 4.134-3.369 7.476-7.499 7.476-.009 0-.017 0-.025 0-4.142-.013-7.489-3.382-7.476-7.524.039-12.01 9.822-21.755 21.823-21.755h.069c12.033.038 21.793 9.858 21.756 21.892-.012 4.134-3.367 7.477-7.498 7.477z"/></g></g></g></svg>