<svg id="Capa_1" enable-background="new 0 0 512 512" height="512" viewBox="0 0 512 512" width="512" xmlns="http://www.w3.org/2000/svg"><g><path d="m391.5 105.375c0-6.253-3.879-11.85-9.733-14.045l-241-90.375c-4.605-1.727-9.767-1.086-13.811 1.716-4.043 2.802-6.456 7.409-6.456 12.329v482h271z" fill="#00cbf2"/><path d="m381.767 91.33-125.767-47.163v452.833h135.5v-391.625c0-6.253-3.879-11.85-9.733-14.045z" fill="#0093ff"/><g><path d="m286.125 120.375h-90.375c-8.284 0-15-6.716-15-15s6.716-15 15-15h90.375c8.284 0 15 6.716 15 15s-6.716 15-15 15z" fill="#1d356f"/></g><g><path d="m316.25 180.625h-120.5c-8.284 0-15-6.716-15-15s6.716-15 15-15h120.5c8.284 0 15 6.716 15 15s-6.716 15-15 15z" fill="#1d356f"/></g><g><path d="m316.25 301.125h-60.25c-8.284 0-15-6.716-15-15s6.716-15 15-15h60.25c8.284 0 15 6.716 15 15s-6.716 15-15 15z" fill="#1d356f"/></g><g><path d="m204.125 240.875h-8.375c-8.284 0-15-6.716-15-15s6.716-15 15-15h8.375c8.284 0 15 6.716 15 15s-6.716 15-15 15z" fill="#1d356f"/></g><g><path d="m314.5 240.875h-43.5c-8.284 0-15-6.716-15-15s6.716-15 15-15h43.5c8.284 0 15 6.716 15 15s-6.716 15-15 15z" fill="#021e57"/></g><g><path d="m286.125 502c-8.284 0-15-6.716-15-15v-60.25c0-8.284 6.716-15 15-15s15 6.716 15 15v60.25c0 8.284-6.716 15-15 15z" fill="#966857"/></g><g fill="#021e57"><path d="m286.125 90.375h-30.125v30h30.125c8.284 0 15-6.716 15-15s-6.716-15-15-15z"/><path d="m316.25 150.625h-60.25v30h60.25c8.284 0 15-6.716 15-15s-6.716-15-15-15z"/><path d="m316.25 271.125h-60.25v30h60.25c8.284 0 15-6.716 15-15s-6.716-15-15-15z"/></g><g><path d="m210.833 286v60.333l-75.333 21.667-75.333-21.667v-60.333c0-8.284 6.716-15 15-15h120.667c8.284 0 14.999 6.716 14.999 15z" fill="#1d356f"/></g><path d="m195.833 271h-60.333v97l75.333-21.667v-60.333c0-8.284-6.715-15-15-15z" fill="#021e57"/><g><path d="m210.833 346.333v75.333l-75.333 15.084-75.333-15.084v-75.333z" fill="#1d356f"/></g><g><path d="m60.167 421.666h150.667v75.333h-150.667z" fill="#1d356f"/></g><g><path d="m421.75 434.5h30v62.5h-30z" fill="#966857"/></g><path d="m436.75 434.5h15v62.5h-15z" fill="#805142"/><path d="m135.5 421.667h75.333v75.333h-75.333z" fill="#021e57"/><g><path d="m60.25 434.5h30v62.5h-30z" fill="#966857"/></g><path d="m75.25 434.5h15v62.5h-15z" fill="#805142"/><path d="m301.125 487v-60.25c0-8.284-6.716-15-15-15v90.25c8.284 0 15-6.716 15-15z" fill="#805142"/><g><path d="m286.125 451.75c-24.882 0-45.125-20.243-45.125-45.125s20.243-45.125 45.125-45.125 45.125 20.243 45.125 45.125-20.243 45.125-45.125 45.125z" fill="#c8e364"/></g><path d="m286.125 361.5v90.25c24.882 0 45.125-20.243 45.125-45.125s-20.243-45.125-45.125-45.125z" fill="#3cd380"/><g><path d="m497 512h-482c-8.284 0-15-6.716-15-15s6.716-15 15-15h482c8.284 0 15 6.716 15 15s-6.716 15-15 15z" fill="#c8e364"/></g><path d="m497 482h-241v30h241c8.284 0 15-6.716 15-15s-6.716-15-15-15z" fill="#3cd380"/><path d="m480.988 266.941c-14.978-41.604-30.158-79.629-30.31-80.009-2.277-5.696-7.793-9.432-13.928-9.432s-11.651 3.736-13.928 9.432c-.152.379-15.333 38.404-30.31 80.009-31.012 86.144-31.012 103.767-31.012 109.559 0 41.493 33.757 75.25 75.25 75.25s75.25-33.757 75.25-75.25c0-5.792 0-23.415-31.012-109.559z" fill="#c8e364"/><path d="m512 376.5c0-5.792 0-23.415-31.012-109.559-14.978-41.604-30.158-79.629-30.31-80.009-2.277-5.696-7.793-9.432-13.928-9.432v274.25c41.493 0 75.25-33.757 75.25-75.25z" fill="#3cd380"/><path d="m119.488 266.941c-14.978-41.604-30.158-79.629-30.31-80.009-2.277-5.696-7.793-9.432-13.928-9.432s-11.651 3.736-13.928 9.432c-.152.379-15.333 38.404-30.31 80.009-31.012 86.144-31.012 103.767-31.012 109.559 0 41.493 33.757 75.25 75.25 75.25s75.25-33.757 75.25-75.25c0-5.792 0-23.415-31.012-109.559z" fill="#c8e364"/><path d="m150.5 376.5c0-5.792 0-23.415-31.012-109.559-14.978-41.604-30.158-79.629-30.31-80.009-2.277-5.696-7.793-9.432-13.928-9.432v274.25c41.493 0 75.25-33.757 75.25-75.25z" fill="#3cd380"/></g></svg>