<?xml version="1.0" ?><svg viewBox="0 0 64 64" xmlns="http://www.w3.org/2000/svg"><defs><style>.cls-1{fill:none;}.cls-2{fill:#010101;}</style></defs><title/><g data-name="Layer 3" id="Layer_3"><rect class="cls-1" height="64" width="64"/></g><g data-name="Design Convert" id="Design_Convert"><path class="cls-2" d="M32,57A25,25,0,1,1,57,32,25,25,0,0,1,32,57ZM32,9A23,23,0,1,0,55,32,23,23,0,0,0,32,9Z"/><path class="cls-2" d="M43,44a1,1,0,0,1-.71-.29l-22-22a1,1,0,0,1,1.42-1.42l22,22a1,1,0,0,1,0,1.42A1,1,0,0,1,43,44Z"/><path class="cls-2" d="M21,44a1,1,0,0,1-.71-.29,1,1,0,0,1,0-1.42l22-22a1,1,0,0,1,1.42,1.42l-22,22A1,1,0,0,1,21,44Z"/></g></svg>